SplineFontDB: 3.2
FontName: notosansmaths
FullName: notosansmaths
FamilyName: notosansmaths
Weight: Regular
Copyright: Copyright 2018 Google LLC. All Rights Reserved.
Version: 2.001; ttfautohint (v1.8.3) -l 8 -r 50 -G 200 -x 14 -D latn -f none -a qsq -X ""
ItalicAngle: 0
UnderlinePosition: -125
UnderlineWidth: 50
Ascent: 800
Descent: 200
InvalidEm: 0
sfntRevision: 0x00020042
LayerCount: 2
Layer: 0 1 "Back" 1
Layer: 1 1 "Fore" 0
XUID: [1021 426 849761687 10005520]
StyleMap: 0x0040
FSType: 0
OS2Version: 4
OS2_WeightWidthSlopeOnly: 1
OS2_UseTypoMetrics: 0
CreationTime: 1470326346
ModificationTime: 1717748922
PfmFamily: 17
TTFWeight: 400
TTFWidth: 5
LineGap: 0
VLineGap: 0
Panose: 2 11 5 2 4 5 4 2 2 4
OS2TypoAscent: 1069
OS2TypoAOffset: 0
OS2TypoDescent: -423
OS2TypoDOffset: 0
OS2TypoLinegap: 0
OS2WinAscent: 1069
OS2WinAOffset: 0
OS2WinDescent: 423
OS2WinDOffset: 0
HheadAscent: 1069
HheadAOffset: 0
HheadDescent: -423
HheadDOffset: 0
OS2SubXSize: 650
OS2SubYSize: 600
OS2SubXOff: 0
OS2SubYOff: 75
OS2SupXSize: 650
OS2SupYSize: 600
OS2SupXOff: 0
OS2SupYOff: 350
OS2StrikeYSize: 50
OS2StrikeYPos: 322
OS2CapHeight: 714
OS2XHeight: 536
OS2Vendor: 'GOOG'
OS2CodePages: 00000001.00000000
OS2UnicodeRanges: 800000c3.020064ec.02000010.00000000
Lookup: 1 0 0 "'aalt' Access All Alternates lookup 0" { "'aalt' Access All Alternates lookup 0 subtable"  } ['aalt' ('DFLT' <'dflt' > ) ]
Lookup: 1 0 0 "'rtlm' Right to Left mirrored forms lookup 1" { "'rtlm' Right to Left mirrored forms lookup 1 subtable"  } ['rtlm' ('DFLT' <'dflt' > ) ]
Lookup: 1 0 0 "'fwid' Full Widths lookup 2" { "'fwid' Full Widths lookup 2 subtable" ("full") } ['fwid' ('DFLT' <'dflt' > ) ]
Lookup: 260 0 0 "'mark' Mark Positioning lookup 0" { "'mark' Mark Positioning lookup 0 subtable"  } ['mark' ('DFLT' <'dflt' > ) ]
Lookup: 262 16 0 "'mkmk' Mark to Mark lookup 1" { "'mkmk' Mark to Mark lookup 1 subtable"  } ['mkmk' ('DFLT' <'dflt' > ) ]

StartChar: .notdef
Encoding: 1114112 -1 0
Width: 600
Flags: W
LayerCount: 2
Fore
SplineSet
95 0 m 1,0,-1
 95 714 l 1,1,-1
 505 714 l 1,2,-1
 505 0 l 1,3,-1
 95 0 l 1,0,-1
146 51 m 1,4,-1
 455 51 l 1,5,-1
 455 663 l 1,6,-1
 146 663 l 1,7,-1
 146 51 l 1,4,-1
EndSplineSet
EndChar

StartChar: u1D504
Encoding: 120068 120068 1
Width: 664
Flags: W
LayerCount: 2
Fore
SplineSet
544 -28 m 1,0,-1
 526 -22 l 1,1,2
 530 -10 530 -10 530 -2 c 0,3,4
 530 5 530 5 524 12 c 0,5,6
 494 46 494 46 494 112 c 2,7,-1
 494 134 l 1,8,9
 462 110 462 110 423 87 c 128,-1,10
 384 64 384 64 338 41 c 0,11,12
 247 -5 247 -5 221 -25 c 1,13,-1
 204 -12 l 1,14,15
 218 2 218 2 218 5 c 0,16,17
 218 9 218 9 206 22 c 128,-1,18
 194 35 194 35 175 51 c 128,-1,19
 156 67 156 67 135.5 83 c 128,-1,20
 115 99 115 99 97.5 109 c 128,-1,21
 80 119 80 119 71 119 c 0,22,23
 58 119 58 119 37 112 c 1,24,-1
 30 134 l 1,25,26
 194 181 194 181 268.5 253 c 128,-1,27
 343 325 343 325 343 443 c 0,28,29
 343 533 343 533 302.5 585 c 128,-1,30
 262 637 262 637 191 637 c 0,31,32
 154 637 154 637 123 617 c 128,-1,33
 92 597 92 597 74 562 c 128,-1,34
 56 527 56 527 56 481 c 0,35,36
 56 414 56 414 95 371.5 c 128,-1,37
 134 329 134 329 209 315 c 1,38,-1
 202 294 l 1,39,40
 119 306 119 306 73.5 360 c 128,-1,41
 28 414 28 414 28 499 c 0,42,43
 28 565 28 565 53 616 c 128,-1,44
 78 667 78 667 121 696 c 128,-1,45
 164 725 164 725 218 725 c 0,46,47
 276 725 276 725 320 694.5 c 128,-1,48
 364 664 364 664 389.5 609 c 128,-1,49
 415 554 415 554 415 481 c 0,50,51
 415 381 415 381 356.5 303.5 c 128,-1,52
 298 226 298 226 177 164 c 1,53,-1
 271 84 l 2,54,55
 294 64 294 64 314 64 c 0,56,57
 332 64 332 64 378 88 c 0,58,59
 401 100 401 100 430 118.5 c 128,-1,60
 459 137 459 137 493 163 c 1,61,-1
 493 575 l 2,62,63
 493 625 493 625 483 666 c 1,64,-1
 501 672 l 1,65,-1
 518 619 l 1,66,67
 523 648 523 648 540.5 672.5 c 128,-1,68
 558 697 558 697 584 712 c 128,-1,69
 610 727 610 727 640 727 c 1,70,-1
 640 708 l 1,71,72
 572 676 572 676 572 564 c 2,73,-1
 572 167 l 2,74,75
 572 148 572 148 573 135 c 128,-1,76
 574 122 574 122 577 115 c 0,77,78
 582 103 582 103 599 103 c 0,79,80
 615 103 615 103 644 126 c 1,81,-1
 658 112 l 1,82,83
 621 71 621 71 592.5 36 c 128,-1,84
 564 1 564 1 544 -28 c 1,0,-1
EndSplineSet
EndChar

StartChar: uni2336
Encoding: 9014 9014 2
Width: 756
Flags: W
LayerCount: 2
Fore
SplineSet
51 26 m 1,0,-1
 51 97 l 1,1,-1
 343 97 l 1,2,-1
 343 609 l 1,3,-1
 51 609 l 1,4,-1
 51 680 l 1,5,-1
 705 680 l 1,6,-1
 705 609 l 1,7,-1
 414 609 l 1,8,-1
 414 97 l 1,9,-1
 705 97 l 1,10,-1
 705 26 l 1,11,-1
 51 26 l 1,0,-1
EndSplineSet
EndChar

StartChar: uni237A
Encoding: 9082 9082 3
Width: 615
Flags: W
LayerCount: 2
Fore
SplineSet
275 -10 m 0,0,1
 172 -10 172 -10 113.5 63 c 128,-1,2
 55 136 55 136 55 266 c 0,3,4
 55 400 55 400 114.5 473 c 128,-1,5
 174 546 174 546 283 546 c 0,6,7
 342 546 342 546 381.5 525.5 c 128,-1,8
 421 505 421 505 447 464 c 1,9,-1
 453 464 l 1,10,11
 465 508 465 508 485 536 c 1,12,-1
 554 536 l 1,13,14
 547 514 547 514 541 477 c 128,-1,15
 535 440 535 440 532 400 c 128,-1,16
 529 360 529 360 529 326 c 2,17,-1
 529 118 l 2,18,19
 529 87 529 87 541 74.5 c 128,-1,20
 553 62 553 62 570 62 c 0,21,22
 578 62 578 62 585.5 63 c 128,-1,23
 593 64 593 64 600 67 c 1,24,-1
 600 3 l 1,25,26
 593 -1 593 -1 577 -5.5 c 128,-1,27
 561 -10 561 -10 544 -10 c 0,28,29
 501 -10 501 -10 479 11 c 128,-1,30
 457 32 457 32 449 72 c 1,31,-1
 442 72 l 1,32,33
 413 29 413 29 372.5 9.5 c 128,-1,34
 332 -10 332 -10 275 -10 c 0,0,1
290 63 m 0,35,36
 370 63 370 63 406 109 c 128,-1,37
 442 155 442 155 442 260 c 2,38,-1
 442 264 l 2,39,40
 442 377 442 377 405.5 424.5 c 128,-1,41
 369 472 369 472 289 472 c 0,42,43
 146 472 146 472 146 265 c 0,44,45
 146 164 146 164 180.5 113.5 c 128,-1,46
 215 63 215 63 290 63 c 0,35,36
EndSplineSet
EndChar

StartChar: uni2376
Encoding: 9078 9078 4
Width: 615
Flags: W
LayerCount: 2
Fore
SplineSet
275 -10 m 0,0,1
 172 -10 172 -10 113.5 63 c 128,-1,2
 55 136 55 136 55 266 c 0,3,4
 55 400 55 400 114.5 473 c 128,-1,5
 174 546 174 546 283 546 c 0,6,7
 342 546 342 546 381.5 525.5 c 128,-1,8
 421 505 421 505 447 464 c 1,9,-1
 453 464 l 1,10,11
 465 508 465 508 485 536 c 1,12,-1
 554 536 l 1,13,14
 547 514 547 514 541 477 c 128,-1,15
 535 440 535 440 532 400 c 128,-1,16
 529 360 529 360 529 326 c 2,17,-1
 529 118 l 2,18,19
 529 87 529 87 541 74.5 c 128,-1,20
 553 62 553 62 570 62 c 0,21,22
 578 62 578 62 585.5 63 c 128,-1,23
 593 64 593 64 600 67 c 1,24,-1
 600 3 l 1,25,26
 593 -1 593 -1 577 -5.5 c 128,-1,27
 561 -10 561 -10 544 -10 c 0,28,29
 501 -10 501 -10 479 11 c 128,-1,30
 457 32 457 32 449 72 c 1,31,-1
 442 72 l 1,32,33
 413 29 413 29 372.5 9.5 c 128,-1,34
 332 -10 332 -10 275 -10 c 0,0,1
290 63 m 0,35,36
 370 63 370 63 406 109 c 128,-1,37
 442 155 442 155 442 260 c 2,38,-1
 442 264 l 2,39,40
 442 377 442 377 405.5 424.5 c 128,-1,41
 369 472 369 472 289 472 c 0,42,43
 146 472 146 472 146 265 c 0,44,45
 146 164 146 164 180.5 113.5 c 128,-1,46
 215 63 215 63 290 63 c 0,35,36
51 -149 m 1,47,-1
 51 -78 l 1,48,-1
 599 -78 l 1,49,-1
 599 -149 l 1,50,-1
 51 -149 l 1,47,-1
EndSplineSet
EndChar

StartChar: uni2340
Encoding: 9024 9024 5
Width: 539
Flags: W
LayerCount: 2
Fore
SplineSet
51 268 m 1,0,-1
 51 335 l 1,1,-1
 219 335 l 1,2,-1
 73 713 l 1,3,-1
 148 713 l 1,4,-1
 294 335 l 1,5,-1
 488 335 l 1,6,-1
 488 268 l 1,7,-1
 320 268 l 1,8,-1
 466 -110 l 1,9,-1
 391 -110 l 1,10,-1
 245 268 l 1,11,-1
 51 268 l 1,0,-1
EndSplineSet
EndChar

StartChar: uni2349
Encoding: 9033 9033 6
Width: 672
Flags: W
LayerCount: 2
Fore
SplineSet
336 72 m 0,0,1
 277 72 277 72 225.5 94 c 128,-1,2
 174 116 174 116 134.5 155.5 c 128,-1,3
 95 195 95 195 73 246.5 c 128,-1,4
 51 298 51 298 51 357 c 0,5,6
 51 432 51 432 87 495.5 c 128,-1,7
 123 559 123 559 183 597 c 1,8,-1
 101 772 l 1,9,-1
 172 772 l 1,10,-1
 240 625 l 1,11,12
 287 642 287 642 336 642 c 0,13,14
 395 642 395 642 446.5 620 c 128,-1,15
 498 598 498 598 537.5 558.5 c 128,-1,16
 577 519 577 519 599 467.5 c 128,-1,17
 621 416 621 416 621 357 c 0,18,19
 621 279 621 279 582.5 214 c 128,-1,20
 544 149 544 149 481 112 c 1,21,-1
 571 -82 l 1,22,-1
 500 -82 l 1,23,-1
 422 85 l 1,24,25
 380 72 380 72 336 72 c 0,0,1
336 571 m 0,26,27
 302 571 302 571 271 561 c 1,28,-1
 450 176 l 1,29,30
 495 205 495 205 522.5 252.5 c 128,-1,31
 550 300 550 300 550 357 c 0,32,33
 550 416 550 416 521 464.5 c 128,-1,34
 492 513 492 513 443.5 542 c 128,-1,35
 395 571 395 571 336 571 c 0,26,27
336 143 m 0,36,37
 364 143 364 143 391 150 c 1,38,-1
 213 532 l 1,39,40
 172 503 172 503 147 457 c 128,-1,41
 122 411 122 411 122 357 c 0,42,43
 122 298 122 298 151 249.5 c 128,-1,44
 180 201 180 201 228.5 172 c 128,-1,45
 277 143 277 143 336 143 c 0,36,37
EndSplineSet
EndChar

StartChar: uni2365
Encoding: 9061 9061 7
Width: 672
Flags: W
LayerCount: 2
Fore
SplineSet
231 738 m 0,0,1
 210 738 210 738 195.5 752.5 c 128,-1,2
 181 767 181 767 181 788 c 0,3,4
 181 810 181 810 195.5 824 c 128,-1,5
 210 838 210 838 231 838 c 256,6,7
 252 838 252 838 266.5 824 c 128,-1,8
 281 810 281 810 281 788 c 256,9,10
 281 766 281 766 266 752 c 128,-1,11
 251 738 251 738 231 738 c 0,0,1
440 738 m 0,12,13
 419 738 419 738 404.5 752.5 c 128,-1,14
 390 767 390 767 390 788 c 0,15,16
 390 810 390 810 404.5 824 c 128,-1,17
 419 838 419 838 440 838 c 256,18,19
 461 838 461 838 475.5 824 c 128,-1,20
 490 810 490 810 490 788 c 256,21,22
 490 766 490 766 475 752 c 128,-1,23
 460 738 460 738 440 738 c 0,12,13
336 72 m 256,24,25
 277 72 277 72 225.5 94 c 128,-1,26
 174 116 174 116 134.5 155.5 c 128,-1,27
 95 195 95 195 73 246.5 c 128,-1,28
 51 298 51 298 51 357 c 256,29,30
 51 416 51 416 73 467.5 c 128,-1,31
 95 519 95 519 134.5 558.5 c 128,-1,32
 174 598 174 598 225.5 620 c 128,-1,33
 277 642 277 642 336 642 c 256,34,35
 395 642 395 642 446.5 620 c 128,-1,36
 498 598 498 598 537.5 558.5 c 128,-1,37
 577 519 577 519 599 467.5 c 128,-1,38
 621 416 621 416 621 357 c 256,39,40
 621 298 621 298 599 246.5 c 128,-1,41
 577 195 577 195 537.5 155.5 c 128,-1,42
 498 116 498 116 446.5 94 c 128,-1,43
 395 72 395 72 336 72 c 256,24,25
336 143 m 256,44,45
 395 143 395 143 443.5 172 c 128,-1,46
 492 201 492 201 521 250 c 128,-1,47
 550 299 550 299 550 357 c 0,48,49
 550 416 550 416 521 464.5 c 128,-1,50
 492 513 492 513 443.5 542 c 128,-1,51
 395 571 395 571 336 571 c 256,52,53
 277 571 277 571 228.5 542 c 128,-1,54
 180 513 180 513 151 464.5 c 128,-1,55
 122 416 122 416 122 357 c 256,56,57
 122 298 122 298 151 249.5 c 128,-1,58
 180 201 180 201 228.5 172 c 128,-1,59
 277 143 277 143 336 143 c 256,44,45
EndSplineSet
EndChar

StartChar: uni233E
Encoding: 9022 9022 8
Width: 772
Flags: W
LayerCount: 2
Fore
SplineSet
386 22 m 256,0,1
 317 22 317 22 256 48.5 c 128,-1,2
 195 75 195 75 149 121 c 128,-1,3
 103 167 103 167 77 227.5 c 128,-1,4
 51 288 51 288 51 357 c 256,5,6
 51 426 51 426 77 486.5 c 128,-1,7
 103 547 103 547 149 593 c 128,-1,8
 195 639 195 639 256 665.5 c 128,-1,9
 317 692 317 692 386 692 c 256,10,11
 455 692 455 692 515.5 666.5 c 128,-1,12
 576 641 576 641 622 595 c 128,-1,13
 668 549 668 549 694.5 488.5 c 128,-1,14
 721 428 721 428 721 357 c 0,15,16
 721 288 721 288 694.5 227.5 c 128,-1,17
 668 167 668 167 622 121 c 128,-1,18
 576 75 576 75 515.5 48.5 c 128,-1,19
 455 22 455 22 386 22 c 256,0,1
386 93 m 0,20,21
 440 93 440 93 488 114 c 128,-1,22
 536 135 536 135 572.5 171.5 c 128,-1,23
 609 208 609 208 629.5 255.5 c 128,-1,24
 650 303 650 303 650 357 c 0,25,26
 650 431 650 431 614 491 c 128,-1,27
 578 551 578 551 518 586 c 128,-1,28
 458 621 458 621 386 621 c 0,29,30
 331 621 331 621 283.5 600.5 c 128,-1,31
 236 580 236 580 199.5 543.5 c 128,-1,32
 163 507 163 507 142.5 459 c 128,-1,33
 122 411 122 411 122 357 c 256,34,35
 122 303 122 303 142.5 255.5 c 128,-1,36
 163 208 163 208 199.5 171.5 c 128,-1,37
 236 135 236 135 283.5 114 c 128,-1,38
 331 93 331 93 386 93 c 0,20,21
386 189 m 256,39,40
 340 189 340 189 301.5 212 c 128,-1,41
 263 235 263 235 240.5 273 c 128,-1,42
 218 311 218 311 218 357 c 256,43,44
 218 403 218 403 240.5 441 c 128,-1,45
 263 479 263 479 301.5 502 c 128,-1,46
 340 525 340 525 386 525 c 256,47,48
 432 525 432 525 470 502.5 c 128,-1,49
 508 480 508 480 531 442 c 128,-1,50
 554 404 554 404 554 357 c 0,51,52
 554 311 554 311 531 273 c 128,-1,53
 508 235 508 235 470 212 c 128,-1,54
 432 189 432 189 386 189 c 256,39,40
386 252 m 256,55,56
 429 252 429 252 460 282.5 c 128,-1,57
 491 313 491 313 491 357 c 256,58,59
 491 401 491 401 460 431.5 c 128,-1,60
 429 462 429 462 386 462 c 256,61,62
 343 462 343 462 312 431.5 c 128,-1,63
 281 401 281 401 281 357 c 0,64,65
 281 314 281 314 312 283 c 128,-1,66
 343 252 343 252 386 252 c 256,55,56
EndSplineSet
EndChar

StartChar: uni235F
Encoding: 9055 9055 9
Width: 772
Flags: W
LayerCount: 2
Fore
SplineSet
386 6 m 0,0,1
 317 6 317 6 256.5 32 c 128,-1,2
 196 58 196 58 149.5 104 c 128,-1,3
 103 150 103 150 77 211 c 128,-1,4
 51 272 51 272 51 341 c 256,5,6
 51 410 51 410 77 470.5 c 128,-1,7
 103 531 103 531 149.5 577.5 c 128,-1,8
 196 624 196 624 256.5 650 c 128,-1,9
 317 676 317 676 386 676 c 256,10,11
 455 676 455 676 516 650 c 128,-1,12
 577 624 577 624 623 578 c 128,-1,13
 669 532 669 532 695 471 c 128,-1,14
 721 410 721 410 721 341 c 256,15,16
 721 272 721 272 695 211 c 128,-1,17
 669 150 669 150 623 104 c 128,-1,18
 577 58 577 58 516.5 32 c 128,-1,19
 456 6 456 6 386 6 c 0,0,1
386 77 m 0,20,21
 460 77 460 77 519.5 112.5 c 128,-1,22
 579 148 579 148 614.5 208 c 128,-1,23
 650 268 650 268 650 341 c 0,24,25
 650 415 650 415 615 474.5 c 128,-1,26
 580 534 580 534 520 569.5 c 128,-1,27
 460 605 460 605 386 605 c 0,28,29
 313 605 313 605 253 569 c 128,-1,30
 193 533 193 533 157.5 473.5 c 128,-1,31
 122 414 122 414 122 341 c 256,32,33
 122 268 122 268 157.5 208 c 128,-1,34
 193 148 193 148 253 112.5 c 128,-1,35
 313 77 313 77 386 77 c 0,20,21
296 146 m 1,36,-1
 231 193 l 1,37,-1
 326 319 l 1,38,-1
 175 366 l 1,39,-1
 200 442 l 1,40,-1
 349 390 l 1,41,-1
 346 548 l 1,42,-1
 426 548 l 1,43,-1
 423 390 l 1,44,-1
 572 442 l 1,45,-1
 597 366 l 1,46,-1
 446 319 l 1,47,-1
 541 193 l 1,48,-1
 476 146 l 1,49,-1
 386 276 l 1,50,-1
 296 146 l 1,36,-1
EndSplineSet
EndChar

StartChar: uni233D
Encoding: 9021 9021 10
Width: 672
Flags: W
LayerCount: 2
Fore
SplineSet
300 -82 m 1,0,-1
 300 74 l 1,1,2
 230 83 230 83 173.5 123 c 128,-1,3
 117 163 117 163 84 224 c 128,-1,4
 51 285 51 285 51 357 c 256,5,6
 51 429 51 429 84 490 c 128,-1,7
 117 551 117 551 173.5 591 c 128,-1,8
 230 631 230 631 300 640 c 1,9,-1
 300 772 l 1,10,-1
 371 772 l 1,11,-1
 371 640 l 1,12,13
 441 631 441 631 498 591.5 c 128,-1,14
 555 552 555 552 588 491 c 128,-1,15
 621 430 621 430 621 357 c 256,16,17
 621 284 621 284 588 223 c 128,-1,18
 555 162 555 162 498 122.5 c 128,-1,19
 441 83 441 83 371 74 c 1,20,-1
 371 -82 l 1,21,-1
 300 -82 l 1,0,-1
550 357 m 256,22,23
 550 410 550 410 526.5 455 c 128,-1,24
 503 500 503 500 462.5 530 c 128,-1,25
 422 560 422 560 371 568 c 1,26,-1
 371 146 l 1,27,28
 422 154 422 154 462.5 184.5 c 128,-1,29
 503 215 503 215 526.5 259.5 c 128,-1,30
 550 304 550 304 550 357 c 256,22,23
122 357 m 256,31,32
 122 304 122 304 145.5 259.5 c 128,-1,33
 169 215 169 215 209.5 185 c 128,-1,34
 250 155 250 155 300 146 c 1,35,-1
 300 568 l 1,36,37
 250 559 250 559 209.5 529 c 128,-1,38
 169 499 169 499 145.5 454.5 c 128,-1,39
 122 410 122 410 122 357 c 256,31,32
EndSplineSet
EndChar

StartChar: uni235C
Encoding: 9052 9052 11
Width: 672
Flags: W
LayerCount: 2
Fore
SplineSet
336 72 m 256,0,1
 277 72 277 72 225.5 94 c 128,-1,2
 174 116 174 116 134.5 155.5 c 128,-1,3
 95 195 95 195 73 246.5 c 128,-1,4
 51 298 51 298 51 357 c 256,5,6
 51 416 51 416 73 467.5 c 128,-1,7
 95 519 95 519 134.5 558.5 c 128,-1,8
 174 598 174 598 225.5 620 c 128,-1,9
 277 642 277 642 336 642 c 256,10,11
 395 642 395 642 446.5 620 c 128,-1,12
 498 598 498 598 537.5 558.5 c 128,-1,13
 577 519 577 519 599 467.5 c 128,-1,14
 621 416 621 416 621 357 c 256,15,16
 621 298 621 298 599 246.5 c 128,-1,17
 577 195 577 195 537.5 155.5 c 128,-1,18
 498 116 498 116 446.5 94 c 128,-1,19
 395 72 395 72 336 72 c 256,0,1
336 143 m 256,20,21
 395 143 395 143 443.5 172 c 128,-1,22
 492 201 492 201 521 250 c 128,-1,23
 550 299 550 299 550 357 c 0,24,25
 550 416 550 416 521 464.5 c 128,-1,26
 492 513 492 513 443.5 542 c 128,-1,27
 395 571 395 571 336 571 c 256,28,29
 277 571 277 571 228.5 542 c 128,-1,30
 180 513 180 513 151 464.5 c 128,-1,31
 122 416 122 416 122 357 c 256,32,33
 122 298 122 298 151 249.5 c 128,-1,34
 180 201 180 201 228.5 172 c 128,-1,35
 277 143 277 143 336 143 c 256,20,21
51 -149 m 1,36,-1
 51 -78 l 1,37,-1
 621 -78 l 1,38,-1
 621 -149 l 1,39,-1
 51 -149 l 1,36,-1
EndSplineSet
EndChar

StartChar: uni236A
Encoding: 9066 9066 12
Width: 344
Flags: W
LayerCount: 2
Fore
SplineSet
51 358 m 1,0,-1
 51 434 l 1,1,-1
 293 434 l 1,2,-1
 293 358 l 1,3,-1
 51 358 l 1,0,-1
78 0 m 1,4,5
 94 61 94 61 106.5 122.5 c 128,-1,6
 119 184 119 184 128 245 c 1,7,-1
 222 245 l 1,8,-1
 229 234 l 1,9,10
 217 188 217 188 196 129.5 c 128,-1,11
 175 71 175 71 143 0 c 1,12,-1
 78 0 l 1,4,5
EndSplineSet
EndChar

StartChar: uni2362
Encoding: 9058 9058 13
Width: 600
Flags: W
LayerCount: 2
Fore
SplineSet
196 738 m 0,0,1
 175 738 175 738 160.5 752.5 c 128,-1,2
 146 767 146 767 146 788 c 0,3,4
 146 810 146 810 160.5 824 c 128,-1,5
 175 838 175 838 196 838 c 256,6,7
 217 838 217 838 231.5 824 c 128,-1,8
 246 810 246 810 246 788 c 256,9,10
 246 766 246 766 231 752 c 128,-1,11
 216 738 216 738 196 738 c 0,0,1
405 738 m 0,12,13
 384 738 384 738 369.5 752.5 c 128,-1,14
 355 767 355 767 355 788 c 0,15,16
 355 810 355 810 369.5 824 c 128,-1,17
 384 838 384 838 405 838 c 256,18,19
 426 838 426 838 440.5 824 c 128,-1,20
 455 810 455 810 455 788 c 256,21,22
 455 766 455 766 440 752 c 128,-1,23
 425 738 425 738 405 738 c 0,12,13
258 26 m 1,24,-1
 51 630 l 1,25,-1
 51 680 l 1,26,-1
 549 680 l 1,27,-1
 549 630 l 1,28,-1
 342 26 l 1,29,-1
 258 26 l 1,24,-1
300 99 m 1,30,31
 307 130 307 130 318.5 169.5 c 128,-1,32
 330 209 330 209 346 255 c 2,33,-1
 465 609 l 1,34,-1
 135 609 l 1,35,-1
 254 255 l 2,36,37
 270 209 270 209 281.5 169.5 c 128,-1,38
 293 130 293 130 300 99 c 1,30,31
EndSplineSet
EndChar

StartChar: uni2352
Encoding: 9042 9042 14
Width: 530
Flags: W
LayerCount: 2
Fore
SplineSet
229 -82 m 1,0,-1
 229 67 l 1,1,-1
 51 583 l 1,2,-1
 51 626 l 1,3,-1
 229 626 l 1,4,-1
 229 772 l 1,5,-1
 300 772 l 1,6,-1
 300 626 l 1,7,-1
 479 626 l 1,8,-1
 479 583 l 1,9,-1
 300 64 l 1,10,-1
 300 -82 l 1,11,-1
 229 -82 l 1,0,-1
130 559 m 1,12,-1
 229 253 l 1,13,-1
 229 559 l 1,14,-1
 130 559 l 1,12,-1
400 559 m 1,15,-1
 300 559 l 1,16,-1
 300 250 l 1,17,-1
 400 559 l 1,15,-1
EndSplineSet
EndChar

StartChar: uni234B
Encoding: 9035 9035 15
Width: 530
Flags: W
LayerCount: 2
Fore
SplineSet
51 64 m 1,0,-1
 51 107 l 1,1,-1
 229 623 l 1,2,-1
 229 772 l 1,3,-1
 300 772 l 1,4,-1
 300 626 l 1,5,-1
 479 107 l 1,6,-1
 479 64 l 1,7,-1
 300 64 l 1,8,-1
 300 -82 l 1,9,-1
 229 -82 l 1,10,-1
 229 64 l 1,11,-1
 51 64 l 1,0,-1
400 131 m 1,12,-1
 300 440 l 1,13,-1
 300 131 l 1,14,-1
 400 131 l 1,12,-1
130 131 m 1,15,-1
 229 131 l 1,16,-1
 229 437 l 1,17,-1
 130 131 l 1,15,-1
EndSplineSet
EndChar

StartChar: uni2359
Encoding: 9049 9049 16
Width: 530
Flags: W
LayerCount: 2
Fore
SplineSet
51 64 m 1,0,-1
 51 107 l 1,1,-1
 230 626 l 1,2,-1
 300 626 l 1,3,-1
 479 107 l 1,4,-1
 479 64 l 1,5,-1
 51 64 l 1,0,-1
130 131 m 1,6,-1
 400 131 l 1,7,-1
 265 533 l 1,8,-1
 130 131 l 1,6,-1
51 -149 m 1,9,-1
 51 -78 l 1,10,-1
 479 -78 l 1,11,-1
 479 -149 l 1,12,-1
 51 -149 l 1,9,-1
EndSplineSet
EndChar

StartChar: uni236B
Encoding: 9067 9067 17
Width: 756
Flags: W
LayerCount: 2
Fore
SplineSet
51 294 m 1,0,-1
 51 369 l 1,1,2
 82 396 82 396 117.5 410 c 128,-1,3
 153 424 153 424 199 427 c 1,4,-1
 129 630 l 1,5,-1
 129 680 l 1,6,-1
 627 680 l 1,7,-1
 627 630 l 1,8,-1
 536 365 l 1,9,-1
 539 365 l 2,10,11
 587 365 587 365 624 379 c 128,-1,12
 661 393 661 393 705 428 c 1,13,-1
 705 354 l 1,14,15
 669 323 669 323 627.5 308.5 c 128,-1,16
 586 294 586 294 528 294 c 0,17,18
 520 294 520 294 512 294 c 1,19,-1
 420 26 l 1,20,-1
 336 26 l 1,21,-1
 222 358 l 1,22,-1
 217 358 l 2,23,24
 169 358 169 358 132.5 344.5 c 128,-1,25
 96 331 96 331 51 294 c 1,0,-1
389 396 m 0,26,27
 407 389 407 389 425 383 c 128,-1,28
 443 377 443 377 464 373 c 1,29,-1
 543 609 l 1,30,-1
 213 609 l 1,31,-1
 275 426 l 1,32,33
 308 422 308 422 335.5 414 c 128,-1,34
 363 406 363 406 389 396 c 0,26,27
378 99 m 1,35,36
 385 130 385 130 396.5 169.5 c 128,-1,37
 408 209 408 209 424 255 c 2,38,-1
 440 303 l 1,39,40
 420 308 420 308 402 314 c 128,-1,41
 384 320 384 320 367 327 c 0,42,43
 351 334 351 334 334.5 339.5 c 128,-1,44
 318 345 318 345 300 349 c 1,45,-1
 332 255 l 2,46,47
 348 209 348 209 359.5 169.5 c 128,-1,48
 371 130 371 130 378 99 c 1,35,36
EndSplineSet
EndChar

StartChar: uni235A
Encoding: 9050 9050 18
Width: 862
Flags: W
LayerCount: 2
Fore
SplineSet
431 0 m 1,0,-1
 51 380 l 1,1,-1
 431 760 l 1,2,-1
 811 380 l 1,3,-1
 431 0 l 1,0,-1
431 102 m 1,4,-1
 709 380 l 1,5,-1
 431 658 l 1,6,-1
 153 380 l 1,7,-1
 431 102 l 1,4,-1
51 -149 m 1,8,-1
 51 -78 l 1,9,-1
 811 -78 l 1,10,-1
 811 -149 l 1,11,-1
 51 -149 l 1,8,-1
EndSplineSet
EndChar

StartChar: uni2371
Encoding: 9073 9073 19
Width: 756
Flags: W
LayerCount: 2
Fore
SplineSet
51 294 m 1,0,-1
 51 369 l 1,1,2
 100 411 100 411 163 423 c 1,3,-1
 51 599 l 1,4,-1
 130 599 l 1,5,-1
 240 428 l 1,6,7
 287 427 287 427 321.5 418 c 128,-1,8
 356 409 356 409 389 396 c 0,9,10
 410 388 410 388 432 381 c 128,-1,11
 454 374 454 374 479 370 c 1,12,-1
 626 599 l 1,13,-1
 705 599 l 1,14,-1
 556 365 l 1,15,16
 597 367 597 367 631 381.5 c 128,-1,17
 665 396 665 396 705 428 c 1,18,-1
 705 354 l 1,19,20
 669 323 669 323 627.5 308.5 c 128,-1,21
 586 294 586 294 528 294 c 0,22,23
 519 294 519 294 511 294 c 1,24,-1
 402 124 l 1,25,-1
 354 124 l 1,26,-1
 205 358 l 1,27,28
 162 356 162 356 127.5 342 c 128,-1,29
 93 328 93 328 51 294 c 1,0,-1
367 327 m 0,30,31
 348 335 348 335 329 341 c 128,-1,32
 310 347 310 347 289 351 c 1,33,-1
 378 212 l 1,34,-1
 437 304 l 1,35,36
 418 309 418 309 401 314.5 c 128,-1,37
 384 320 384 320 367 327 c 0,30,31
EndSplineSet
EndChar

StartChar: uni2366
Encoding: 9062 9062 20
Width: 682
Flags: W
LayerCount: 2
Fore
SplineSet
306 -82 m 1,0,-1
 306 61 l 1,1,2
 51 82 51 82 51 402 c 2,3,-1
 51 626 l 1,4,-1
 122 626 l 1,5,-1
 122 402 l 2,6,7
 122 153 122 153 306 133 c 1,8,-1
 306 772 l 1,9,-1
 377 772 l 1,10,-1
 377 133 l 1,11,12
 560 154 560 154 560 402 c 2,13,-1
 560 626 l 1,14,-1
 631 626 l 1,15,-1
 631 402 l 2,16,17
 631 83 631 83 377 61 c 1,18,-1
 377 -82 l 1,19,-1
 306 -82 l 1,0,-1
EndSplineSet
EndChar

StartChar: uni234E
Encoding: 9038 9038 21
Width: 756
Flags: W
LayerCount: 2
Fore
SplineSet
51 26 m 1,0,-1
 51 97 l 1,1,-1
 343 97 l 1,2,-1
 343 193 l 1,3,4
 305 201 305 201 275 224.5 c 128,-1,5
 245 248 245 248 227.5 282.5 c 128,-1,6
 210 317 210 317 210 357 c 256,7,8
 210 397 210 397 227.5 431.5 c 128,-1,9
 245 466 245 466 275 489.5 c 128,-1,10
 305 513 305 513 343 521 c 1,11,-1
 343 680 l 1,12,-1
 414 680 l 1,13,-1
 414 521 l 1,14,15
 470 509 470 509 508 463.5 c 128,-1,16
 546 418 546 418 546 357 c 0,17,18
 546 317 546 317 528.5 283 c 128,-1,19
 511 249 511 249 481.5 225 c 128,-1,20
 452 201 452 201 414 193 c 1,21,-1
 414 97 l 1,22,-1
 705 97 l 1,23,-1
 705 26 l 1,24,-1
 51 26 l 1,0,-1
273 357 m 256,25,26
 273 323 273 323 292.5 296 c 128,-1,27
 312 269 312 269 343 258 c 1,28,-1
 343 456 l 1,29,30
 312 445 312 445 292.5 418 c 128,-1,31
 273 391 273 391 273 357 c 256,25,26
483 357 m 256,32,33
 483 391 483 391 463.5 418 c 128,-1,34
 444 445 444 445 414 456 c 1,35,-1
 414 258 l 1,36,37
 444 269 444 269 463.5 296 c 128,-1,38
 483 323 483 323 483 357 c 256,32,33
EndSplineSet
EndChar

StartChar: uni234A
Encoding: 9034 9034 22
Width: 756
Flags: W
LayerCount: 2
Fore
SplineSet
51 26 m 1,0,-1
 51 97 l 1,1,-1
 343 97 l 1,2,-1
 343 680 l 1,3,-1
 414 680 l 1,4,-1
 414 97 l 1,5,-1
 705 97 l 1,6,-1
 705 26 l 1,7,-1
 51 26 l 1,0,-1
51 -123 m 1,8,-1
 51 -52 l 1,9,-1
 704 -52 l 1,10,-1
 704 -123 l 1,11,-1
 51 -123 l 1,8,-1
EndSplineSet
EndChar

StartChar: uni2356
Encoding: 9046 9046 23
Width: 699
Flags: W
LayerCount: 2
Fore
SplineSet
350 0 m 1,0,-1
 208 156 l 1,1,-1
 314 139 l 1,2,-1
 314 302 l 1,3,-1
 51 302 l 1,4,-1
 51 373 l 1,5,-1
 314 373 l 1,6,-1
 314 714 l 1,7,-1
 385 714 l 1,8,-1
 385 373 l 1,9,-1
 648 373 l 1,10,-1
 648 302 l 1,11,-1
 385 302 l 1,12,-1
 385 139 l 1,13,-1
 492 156 l 1,14,-1
 350 0 l 1,0,-1
EndSplineSet
EndChar

StartChar: uni2377
Encoding: 9079 9079 24
Width: 495
Flags: W
LayerCount: 2
Fore
SplineSet
310 -10 m 0,0,1
 188 -10 188 -10 121.5 61 c 128,-1,2
 55 132 55 132 55 265 c 0,3,4
 55 402 55 402 122 474 c 128,-1,5
 189 546 189 546 313 546 c 0,6,7
 354 546 354 546 393 538 c 128,-1,8
 432 530 432 530 461 517 c 1,9,-1
 435 445 l 1,10,11
 370 470 370 470 311 470 c 0,12,13
 234 470 234 470 194 431 c 128,-1,14
 154 392 154 392 146 312 c 1,15,-1
 409 312 l 1,16,-1
 409 240 l 1,17,-1
 145 240 l 1,18,19
 150 151 150 151 189.5 108 c 128,-1,20
 229 65 229 65 308 65 c 0,21,22
 354 65 354 65 389.5 74.5 c 128,-1,23
 425 84 425 84 453 95 c 1,24,-1
 453 19 l 1,25,26
 393 -10 393 -10 310 -10 c 0,0,1
41 -149 m 1,27,-1
 41 -78 l 1,28,-1
 482 -78 l 1,29,-1
 482 -149 l 1,30,-1
 41 -149 l 1,27,-1
EndSplineSet
EndChar

StartChar: uni2369
Encoding: 9065 9065 25
Width: 572
Flags: W
LayerCount: 2
Fore
SplineSet
181 586 m 0,0,1
 160 586 160 586 145.5 600 c 128,-1,2
 131 614 131 614 131 636 c 0,3,4
 131 657 131 657 145.5 671.5 c 128,-1,5
 160 686 160 686 181 686 c 0,6,7
 203 686 203 686 217 671.5 c 128,-1,8
 231 657 231 657 231 636 c 0,9,10
 231 614 231 614 217 600 c 128,-1,11
 203 586 203 586 181 586 c 0,0,1
391 586 m 0,12,13
 369 586 369 586 355 600 c 128,-1,14
 341 614 341 614 341 636 c 0,15,16
 341 657 341 657 355 671.5 c 128,-1,17
 369 686 369 686 391 686 c 0,18,19
 412 686 412 686 426.5 671.5 c 128,-1,20
 441 657 441 657 441 636 c 0,21,22
 441 614 441 614 426.5 600 c 128,-1,23
 412 586 412 586 391 586 c 0,12,13
51 60 m 1,24,-1
 51 138 l 1,25,-1
 417 306 l 1,26,-1
 51 474 l 1,27,-1
 51 552 l 1,28,-1
 521 331 l 1,29,-1
 521 281 l 1,30,-1
 51 60 l 1,24,-1
EndSplineSet
EndChar

StartChar: uni2373
Encoding: 9075 9075 26
Width: 346
Flags: W
LayerCount: 2
Fore
SplineSet
234 -10 m 0,0,1
 155 -10 155 -10 118.5 31 c 128,-1,2
 82 72 82 72 82 157 c 2,3,-1
 82 536 l 1,4,-1
 169 536 l 1,5,-1
 169 158 l 2,6,7
 169 109 169 109 187.5 85.5 c 128,-1,8
 206 62 206 62 246 62 c 0,9,10
 268 62 268 62 291.5 65.5 c 128,-1,11
 315 69 315 69 328 73 c 1,12,-1
 328 6 l 1,13,14
 315 0 315 0 287.5 -5 c 128,-1,15
 260 -10 260 -10 234 -10 c 0,0,1
EndSplineSet
EndChar

StartChar: uni2378
Encoding: 9080 9080 27
Width: 346
Flags: W
LayerCount: 2
Fore
SplineSet
234 -10 m 0,0,1
 155 -10 155 -10 118.5 31 c 128,-1,2
 82 72 82 72 82 157 c 2,3,-1
 82 536 l 1,4,-1
 169 536 l 1,5,-1
 169 158 l 2,6,7
 169 109 169 109 187.5 85.5 c 128,-1,8
 206 62 206 62 246 62 c 0,9,10
 268 62 268 62 291.5 65.5 c 128,-1,11
 315 69 315 69 328 73 c 1,12,-1
 328 6 l 1,13,14
 315 0 315 0 287.5 -5 c 128,-1,15
 260 -10 260 -10 234 -10 c 0,0,1
52 -149 m 1,16,-1
 52 -78 l 1,17,-1
 329 -78 l 1,18,-1
 329 -149 l 1,19,-1
 52 -149 l 1,16,-1
EndSplineSet
EndChar

StartChar: uni2364
Encoding: 9060 9060 28
Width: 438
Flags: W
LayerCount: 2
Fore
SplineSet
114 586 m 0,0,1
 93 586 93 586 78.5 600 c 128,-1,2
 64 614 64 614 64 636 c 0,3,4
 64 657 64 657 78.5 671.5 c 128,-1,5
 93 686 93 686 114 686 c 0,6,7
 136 686 136 686 150 671.5 c 128,-1,8
 164 657 164 657 164 636 c 0,9,10
 164 614 164 614 150 600 c 128,-1,11
 136 586 136 586 114 586 c 0,0,1
324 586 m 0,12,13
 302 586 302 586 288 600 c 128,-1,14
 274 614 274 614 274 636 c 0,15,16
 274 657 274 657 288 671.5 c 128,-1,17
 302 686 302 686 324 686 c 0,18,19
 345 686 345 686 359.5 671.5 c 128,-1,20
 374 657 374 657 374 636 c 0,21,22
 374 614 374 614 359.5 600 c 128,-1,23
 345 586 345 586 324 586 c 0,12,13
219 189 m 256,24,25
 173 189 173 189 134.5 212 c 128,-1,26
 96 235 96 235 73.5 273 c 128,-1,27
 51 311 51 311 51 357 c 256,28,29
 51 403 51 403 73.5 441 c 128,-1,30
 96 479 96 479 134.5 502 c 128,-1,31
 173 525 173 525 219 525 c 256,32,33
 265 525 265 525 303 502.5 c 128,-1,34
 341 480 341 480 364 442 c 128,-1,35
 387 404 387 404 387 357 c 0,36,37
 387 311 387 311 364 273 c 128,-1,38
 341 235 341 235 303 212 c 128,-1,39
 265 189 265 189 219 189 c 256,24,25
219 252 m 256,40,41
 262 252 262 252 293 282.5 c 128,-1,42
 324 313 324 313 324 357 c 256,43,44
 324 401 324 401 293 431.5 c 128,-1,45
 262 462 262 462 219 462 c 256,46,47
 176 462 176 462 145 431.5 c 128,-1,48
 114 401 114 401 114 357 c 0,49,50
 114 314 114 314 145 283 c 128,-1,51
 176 252 176 252 219 252 c 256,40,41
EndSplineSet
EndChar

StartChar: uni235B
Encoding: 9051 9051 29
Width: 440
Flags: W
LayerCount: 2
Fore
SplineSet
220 189 m 256,0,1
 174 189 174 189 135.5 212 c 128,-1,2
 97 235 97 235 74.5 273 c 128,-1,3
 52 311 52 311 52 357 c 256,4,5
 52 403 52 403 74.5 441 c 128,-1,6
 97 479 97 479 135.5 502 c 128,-1,7
 174 525 174 525 220 525 c 256,8,9
 266 525 266 525 304 502.5 c 128,-1,10
 342 480 342 480 365 442 c 128,-1,11
 388 404 388 404 388 357 c 0,12,13
 388 311 388 311 365 273 c 128,-1,14
 342 235 342 235 304 212 c 128,-1,15
 266 189 266 189 220 189 c 256,0,1
220 252 m 256,16,17
 263 252 263 252 294 282.5 c 128,-1,18
 325 313 325 313 325 357 c 256,19,20
 325 401 325 401 294 431.5 c 128,-1,21
 263 462 263 462 220 462 c 256,22,23
 177 462 177 462 146 431.5 c 128,-1,24
 115 401 115 401 115 357 c 0,25,26
 115 314 115 314 146 283 c 128,-1,27
 177 252 177 252 220 252 c 256,16,17
51 -149 m 1,28,-1
 51 -78 l 1,29,-1
 389 -78 l 1,30,-1
 389 -149 l 1,31,-1
 51 -149 l 1,28,-1
EndSplineSet
EndChar

StartChar: uni2367
Encoding: 9063 9063 30
Width: 668
Flags: W
LayerCount: 2
Fore
SplineSet
354 -82 m 1,0,-1
 354 56 l 1,1,2
 51 73 51 73 51 345 c 256,3,4
 51 617 51 617 354 634 c 1,5,-1
 354 772 l 1,6,-1
 425 772 l 1,7,-1
 425 635 l 1,8,-1
 617 635 l 1,9,-1
 617 564 l 1,10,-1
 425 564 l 1,11,-1
 425 126 l 1,12,-1
 617 126 l 1,13,-1
 617 55 l 1,14,-1
 425 55 l 1,15,-1
 425 -82 l 1,16,-1
 354 -82 l 1,0,-1
122 345 m 256,17,18
 122 142 122 142 354 127 c 1,19,-1
 354 563 l 1,20,21
 122 548 122 548 122 345 c 256,17,18
EndSplineSet
EndChar

StartChar: uni2345
Encoding: 9029 9029 31
Width: 704
Flags: W
LayerCount: 2
Fore
SplineSet
341 0 m 1,0,-1
 341 324 l 1,1,-1
 190 324 l 1,2,-1
 207 217 l 1,3,-1
 51 357 l 1,4,-1
 207 497 l 1,5,-1
 190 391 l 1,6,-1
 341 391 l 1,7,-1
 341 714 l 1,8,-1
 412 714 l 1,9,-1
 412 391 l 1,10,-1
 653 391 l 1,11,-1
 653 324 l 1,12,-1
 412 324 l 1,13,-1
 412 0 l 1,14,-1
 341 0 l 1,0,-1
EndSplineSet
EndChar

StartChar: uni2375
Encoding: 9077 9077 32
Width: 782
Flags: W
LayerCount: 2
Fore
SplineSet
247 -10 m 0,0,1
 158 -10 158 -10 107 62.5 c 128,-1,2
 56 135 56 135 56 260 c 0,3,4
 56 339 56 339 70.5 403.5 c 128,-1,5
 85 468 85 468 115 536 c 1,6,-1
 205 536 l 1,7,8
 173 463 173 463 158.5 399.5 c 128,-1,9
 144 336 144 336 144 259 c 0,10,11
 144 166 144 166 172.5 114.5 c 128,-1,12
 201 63 201 63 253 63 c 0,13,14
 299 63 299 63 324 97.5 c 128,-1,15
 349 132 349 132 349 193 c 2,16,-1
 349 344 l 1,17,-1
 433 344 l 1,18,-1
 433 193 l 2,19,20
 433 130 433 130 457.5 96.5 c 128,-1,21
 482 63 482 63 528 63 c 0,22,23
 579 63 579 63 608.5 112.5 c 128,-1,24
 638 162 638 162 638 259 c 0,25,26
 638 336 638 336 623.5 400 c 128,-1,27
 609 464 609 464 577 536 c 1,28,-1
 667 536 l 1,29,30
 699 461 699 461 712.5 398 c 128,-1,31
 726 335 726 335 726 260 c 0,32,33
 726 133 726 133 675 61.5 c 128,-1,34
 624 -10 624 -10 535 -10 c 0,35,36
 428 -10 428 -10 393 80 c 1,37,-1
 388 80 l 1,38,39
 357 -10 357 -10 247 -10 c 0,0,1
EndSplineSet
EndChar

StartChar: uni2379
Encoding: 9081 9081 33
Width: 782
Flags: W
LayerCount: 2
Fore
SplineSet
247 -10 m 0,0,1
 158 -10 158 -10 107 62.5 c 128,-1,2
 56 135 56 135 56 260 c 0,3,4
 56 339 56 339 70.5 403.5 c 128,-1,5
 85 468 85 468 115 536 c 1,6,-1
 205 536 l 1,7,8
 173 463 173 463 158.5 399.5 c 128,-1,9
 144 336 144 336 144 259 c 0,10,11
 144 166 144 166 172.5 114.5 c 128,-1,12
 201 63 201 63 253 63 c 0,13,14
 299 63 299 63 324 97.5 c 128,-1,15
 349 132 349 132 349 193 c 2,16,-1
 349 344 l 1,17,-1
 433 344 l 1,18,-1
 433 193 l 2,19,20
 433 130 433 130 457.5 96.5 c 128,-1,21
 482 63 482 63 528 63 c 0,22,23
 579 63 579 63 608.5 112.5 c 128,-1,24
 638 162 638 162 638 259 c 0,25,26
 638 336 638 336 623.5 400 c 128,-1,27
 609 464 609 464 577 536 c 1,28,-1
 667 536 l 1,29,30
 699 461 699 461 712.5 398 c 128,-1,31
 726 335 726 335 726 260 c 0,32,33
 726 133 726 133 675 61.5 c 128,-1,34
 624 -10 624 -10 535 -10 c 0,35,36
 428 -10 428 -10 393 80 c 1,37,-1
 388 80 l 1,38,39
 357 -10 357 -10 247 -10 c 0,0,1
41 -149 m 1,40,-1
 41 -78 l 1,41,-1
 741 -78 l 1,42,-1
 741 -149 l 1,43,-1
 41 -149 l 1,40,-1
EndSplineSet
EndChar

StartChar: uni2395
Encoding: 9109 9109 34
Width: 728
Flags: W
LayerCount: 2
Fore
SplineSet
79 -102 m 1,0,-1
 79 816 l 1,1,-1
 649 816 l 1,2,-1
 649 -102 l 1,3,-1
 79 -102 l 1,0,-1
150 -31 m 1,4,-1
 578 -31 l 1,5,-1
 578 745 l 1,6,-1
 150 745 l 1,7,-1
 150 -31 l 1,4,-1
EndSplineSet
EndChar

StartChar: uni2342
Encoding: 9026 9026 35
Width: 728
Flags: W
LayerCount: 2
Fore
SplineSet
79 -102 m 1,0,-1
 79 816 l 1,1,-1
 649 816 l 1,2,-1
 649 -102 l 1,3,-1
 79 -102 l 1,0,-1
578 745 m 1,4,-1
 183 745 l 1,5,-1
 578 56 l 1,6,-1
 578 745 l 1,4,-1
150 -31 m 1,7,-1
 545 -31 l 1,8,-1
 150 658 l 1,9,-1
 150 -31 l 1,7,-1
EndSplineSet
EndChar

StartChar: uni233C
Encoding: 9020 9020 36
Width: 728
Flags: W
LayerCount: 2
Fore
SplineSet
79 -102 m 1,0,-1
 79 816 l 1,1,-1
 649 816 l 1,2,-1
 649 -102 l 1,3,-1
 79 -102 l 1,0,-1
364 642 m 256,4,5
 428 642 428 642 483.5 616 c 128,-1,6
 539 590 539 590 578 545 c 1,7,-1
 578 745 l 1,8,-1
 150 745 l 1,9,-1
 150 545 l 1,10,11
 189 590 189 590 244.5 616 c 128,-1,12
 300 642 300 642 364 642 c 256,4,5
364 143 m 256,13,14
 423 143 423 143 471.5 172 c 128,-1,15
 520 201 520 201 549 250 c 128,-1,16
 578 299 578 299 578 357 c 0,17,18
 578 416 578 416 549 464.5 c 128,-1,19
 520 513 520 513 471.5 542 c 128,-1,20
 423 571 423 571 364 571 c 256,21,22
 305 571 305 571 256.5 542 c 128,-1,23
 208 513 208 513 179 464.5 c 128,-1,24
 150 416 150 416 150 357 c 256,25,26
 150 298 150 298 179 249.5 c 128,-1,27
 208 201 208 201 256.5 172 c 128,-1,28
 305 143 305 143 364 143 c 256,13,14
150 -31 m 1,29,-1
 578 -31 l 1,30,-1
 578 169 l 1,31,32
 539 124 539 124 483.5 98 c 128,-1,33
 428 72 428 72 364 72 c 256,34,35
 300 72 300 72 244.5 98 c 128,-1,36
 189 124 189 124 150 169 c 1,37,-1
 150 -31 l 1,29,-1
EndSplineSet
EndChar

StartChar: uni2360
Encoding: 9056 9056 37
Width: 728
Flags: W
LayerCount: 2
Fore
SplineSet
79 -102 m 1,0,-1
 79 816 l 1,1,-1
 649 816 l 1,2,-1
 649 -102 l 1,3,-1
 79 -102 l 1,0,-1
150 -31 m 1,4,-1
 578 -31 l 1,5,-1
 578 745 l 1,6,-1
 150 745 l 1,7,-1
 150 -31 l 1,4,-1
364 449 m 256,8,9
 339 449 339 449 320.5 467 c 128,-1,10
 302 485 302 485 302 511 c 256,11,12
 302 537 302 537 320.5 555 c 128,-1,13
 339 573 339 573 364 573 c 256,14,15
 389 573 389 573 407.5 555 c 128,-1,16
 426 537 426 537 426 511 c 256,17,18
 426 485 426 485 407.5 467 c 128,-1,19
 389 449 389 449 364 449 c 256,8,9
364 141 m 256,20,21
 339 141 339 141 320.5 159.5 c 128,-1,22
 302 178 302 178 302 203 c 256,23,24
 302 228 302 228 320.5 246.5 c 128,-1,25
 339 265 339 265 364 265 c 256,26,27
 389 265 389 265 407.5 246.5 c 128,-1,28
 426 228 426 228 426 203 c 256,29,30
 426 178 426 178 407.5 159.5 c 128,-1,31
 389 141 389 141 364 141 c 256,20,21
EndSplineSet
EndChar

StartChar: uni2354
Encoding: 9044 9044 38
Width: 728
Flags: W
LayerCount: 2
Fore
SplineSet
79 -102 m 1,0,-1
 79 816 l 1,1,-1
 649 816 l 1,2,-1
 649 -102 l 1,3,-1
 79 -102 l 1,0,-1
150 745 m 1,4,-1
 150 626 l 1,5,-1
 578 626 l 1,6,-1
 578 745 l 1,7,-1
 150 745 l 1,4,-1
364 157 m 1,8,-1
 499 559 l 1,9,-1
 229 559 l 1,10,-1
 364 157 l 1,8,-1
150 -31 m 1,11,-1
 578 -31 l 1,12,-1
 578 583 l 1,13,-1
 399 64 l 1,14,-1
 329 64 l 1,15,-1
 150 583 l 1,16,-1
 150 -31 l 1,11,-1
EndSplineSet
EndChar

StartChar: uni234D
Encoding: 9037 9037 39
Width: 728
Flags: W
LayerCount: 2
Fore
SplineSet
79 -102 m 1,0,-1
 79 816 l 1,1,-1
 649 816 l 1,2,-1
 649 -102 l 1,3,-1
 79 -102 l 1,0,-1
578 745 m 1,4,-1
 150 745 l 1,5,-1
 150 107 l 1,6,-1
 329 626 l 1,7,-1
 399 626 l 1,8,-1
 578 107 l 1,9,-1
 578 745 l 1,4,-1
229 131 m 1,10,-1
 499 131 l 1,11,-1
 364 533 l 1,12,-1
 229 131 l 1,10,-1
150 -31 m 1,13,-1
 578 -31 l 1,14,-1
 578 64 l 1,15,-1
 150 64 l 1,16,-1
 150 -31 l 1,13,-1
EndSplineSet
EndChar

StartChar: uni233A
Encoding: 9018 9018 40
Width: 728
Flags: W
LayerCount: 2
Fore
SplineSet
79 -102 m 1,0,-1
 79 816 l 1,1,-1
 649 816 l 1,2,-1
 649 -102 l 1,3,-1
 79 -102 l 1,0,-1
150 -31 m 1,4,-1
 578 -31 l 1,5,-1
 578 745 l 1,6,-1
 150 745 l 1,7,-1
 150 -31 l 1,4,-1
364 146 m 1,8,-1
 153 357 l 1,9,-1
 364 568 l 1,10,-1
 575 357 l 1,11,-1
 364 146 l 1,8,-1
364 224 m 1,12,-1
 497 357 l 1,13,-1
 364 490 l 1,14,-1
 231 357 l 1,15,-1
 364 224 l 1,12,-1
EndSplineSet
EndChar

StartChar: uni2339
Encoding: 9017 9017 41
Width: 728
Flags: W
LayerCount: 2
Fore
SplineSet
79 -102 m 1,0,-1
 79 816 l 1,1,-1
 649 816 l 1,2,-1
 649 -102 l 1,3,-1
 79 -102 l 1,0,-1
150 -31 m 1,4,-1
 578 -31 l 1,5,-1
 578 745 l 1,6,-1
 150 745 l 1,7,-1
 150 -31 l 1,4,-1
364 455 m 256,8,9
 338 455 338 455 323 471.5 c 128,-1,10
 308 488 308 488 308 516 c 0,11,12
 308 576 308 576 364 576 c 0,13,14
 419 576 419 576 419 516 c 0,15,16
 419 488 419 488 404.5 471.5 c 128,-1,17
 390 455 390 455 364 455 c 256,8,9
167 322 m 1,18,-1
 167 393 l 1,19,-1
 561 393 l 1,20,-1
 561 322 l 1,21,-1
 167 322 l 1,18,-1
364 139 m 256,22,23
 338 139 338 139 323 155.5 c 128,-1,24
 308 172 308 172 308 200 c 0,25,26
 308 260 308 260 364 260 c 0,27,28
 419 260 419 260 419 200 c 0,29,30
 419 172 419 172 404.5 155.5 c 128,-1,31
 390 139 390 139 364 139 c 256,22,23
EndSplineSet
EndChar

StartChar: uni2357
Encoding: 9047 9047 42
Width: 728
Flags: W
LayerCount: 2
Fore
SplineSet
79 -102 m 1,0,-1
 79 816 l 1,1,-1
 649 816 l 1,2,-1
 649 -102 l 1,3,-1
 79 -102 l 1,0,-1
150 -31 m 1,4,-1
 578 -31 l 1,5,-1
 578 745 l 1,6,-1
 400 745 l 1,7,-1
 400 124 l 1,8,-1
 525 144 l 1,9,-1
 365 -30 l 1,10,-1
 205 144 l 1,11,-1
 329 124 l 1,12,-1
 329 745 l 1,13,-1
 150 745 l 1,14,-1
 150 -31 l 1,4,-1
EndSplineSet
EndChar

StartChar: uni234C
Encoding: 9036 9036 43
Width: 728
Flags: W
LayerCount: 2
Fore
SplineSet
79 -102 m 1,0,-1
 79 816 l 1,1,-1
 649 816 l 1,2,-1
 649 -102 l 1,3,-1
 79 -102 l 1,0,-1
150 745 m 1,4,-1
 150 540 l 1,5,-1
 364 207 l 1,6,-1
 578 540 l 1,7,-1
 578 745 l 1,8,-1
 150 745 l 1,4,-1
150 -31 m 1,9,-1
 578 -31 l 1,10,-1
 578 418 l 1,11,-1
 388 119 l 1,12,-1
 340 119 l 1,13,-1
 150 418 l 1,14,-1
 150 -31 l 1,9,-1
EndSplineSet
EndChar

StartChar: uni2338
Encoding: 9016 9016 44
Width: 728
Flags: W
LayerCount: 2
Fore
SplineSet
79 -102 m 1,0,-1
 79 816 l 1,1,-1
 649 816 l 1,2,-1
 649 -102 l 1,3,-1
 79 -102 l 1,0,-1
150 -31 m 1,4,-1
 578 -31 l 1,5,-1
 578 745 l 1,6,-1
 150 745 l 1,7,-1
 150 -31 l 1,4,-1
167 422 m 1,8,-1
 167 493 l 1,9,-1
 561 493 l 1,10,-1
 561 422 l 1,11,-1
 167 422 l 1,8,-1
167 221 m 1,12,-1
 167 292 l 1,13,-1
 561 292 l 1,14,-1
 561 221 l 1,15,-1
 167 221 l 1,12,-1
EndSplineSet
EndChar

StartChar: uni2344
Encoding: 9028 9028 45
Width: 728
Flags: W
LayerCount: 2
Fore
SplineSet
79 -102 m 1,0,-1
 79 816 l 1,1,-1
 649 816 l 1,2,-1
 649 -102 l 1,3,-1
 79 -102 l 1,0,-1
150 745 m 1,4,-1
 150 552 l 1,5,-1
 578 381 l 1,6,-1
 578 745 l 1,7,-1
 150 745 l 1,4,-1
460 357 m 1,8,-1
 150 475 l 1,9,-1
 150 239 l 1,10,-1
 460 357 l 1,8,-1
150 -31 m 1,11,-1
 578 -31 l 1,12,-1
 578 333 l 1,13,-1
 150 162 l 1,14,-1
 150 -31 l 1,11,-1
EndSplineSet
EndChar

StartChar: uni233B
Encoding: 9019 9019 46
Width: 728
Flags: W
LayerCount: 2
Fore
SplineSet
79 -102 m 1,0,-1
 79 816 l 1,1,-1
 649 816 l 1,2,-1
 649 -102 l 1,3,-1
 79 -102 l 1,0,-1
150 -31 m 1,4,-1
 578 -31 l 1,5,-1
 578 745 l 1,6,-1
 150 745 l 1,7,-1
 150 -31 l 1,4,-1
364 189 m 256,8,9
 318 189 318 189 279.5 212 c 128,-1,10
 241 235 241 235 218.5 273 c 128,-1,11
 196 311 196 311 196 357 c 256,12,13
 196 403 196 403 218.5 441 c 128,-1,14
 241 479 241 479 279.5 502 c 128,-1,15
 318 525 318 525 364 525 c 256,16,17
 410 525 410 525 448 502.5 c 128,-1,18
 486 480 486 480 509 442 c 128,-1,19
 532 404 532 404 532 357 c 0,20,21
 532 311 532 311 509 273 c 128,-1,22
 486 235 486 235 448 212 c 128,-1,23
 410 189 410 189 364 189 c 256,8,9
364 252 m 256,24,25
 407 252 407 252 438 282.5 c 128,-1,26
 469 313 469 313 469 357 c 256,27,28
 469 401 469 401 438 431.5 c 128,-1,29
 407 462 407 462 364 462 c 256,30,31
 321 462 321 462 290 431.5 c 128,-1,32
 259 401 259 401 259 357 c 0,33,34
 259 314 259 314 290 283 c 128,-1,35
 321 252 321 252 364 252 c 256,24,25
EndSplineSet
EndChar

StartChar: uni2347
Encoding: 9031 9031 47
Width: 728
Flags: W
LayerCount: 2
Fore
SplineSet
79 -102 m 1,0,-1
 79 816 l 1,1,-1
 649 816 l 1,2,-1
 649 -102 l 1,3,-1
 79 -102 l 1,0,-1
150 -31 m 1,4,-1
 578 -31 l 1,5,-1
 578 322 l 1,6,-1
 305 322 l 1,7,-1
 325 197 l 1,8,-1
 151 357 l 1,9,-1
 325 517 l 1,10,-1
 305 393 l 1,11,-1
 578 393 l 1,12,-1
 578 745 l 1,13,-1
 150 745 l 1,14,-1
 150 -31 l 1,4,-1
EndSplineSet
EndChar

StartChar: uni2343
Encoding: 9027 9027 48
Width: 728
Flags: W
LayerCount: 2
Fore
SplineSet
79 -102 m 1,0,-1
 79 816 l 1,1,-1
 649 816 l 1,2,-1
 649 -102 l 1,3,-1
 79 -102 l 1,0,-1
150 745 m 1,4,-1
 150 381 l 1,5,-1
 578 552 l 1,6,-1
 578 745 l 1,7,-1
 150 745 l 1,4,-1
268 357 m 1,8,-1
 578 239 l 1,9,-1
 578 475 l 1,10,-1
 268 357 l 1,8,-1
150 -31 m 1,11,-1
 578 -31 l 1,12,-1
 578 162 l 1,13,-1
 150 333 l 1,14,-1
 150 -31 l 1,11,-1
EndSplineSet
EndChar

StartChar: uni236F
Encoding: 9071 9071 49
Width: 728
Flags: W
LayerCount: 2
Fore
SplineSet
79 -102 m 1,0,-1
 79 816 l 1,1,-1
 649 816 l 1,2,-1
 649 -102 l 1,3,-1
 79 -102 l 1,0,-1
150 -31 m 1,4,-1
 578 -31 l 1,5,-1
 578 745 l 1,6,-1
 150 745 l 1,7,-1
 150 -31 l 1,4,-1
178 222 m 1,8,-1
 178 293 l 1,9,-1
 298 293 l 1,10,-1
 347 421 l 1,11,-1
 178 421 l 1,12,-1
 178 492 l 1,13,-1
 374 492 l 1,14,-1
 422 617 l 1,15,-1
 483 591 l 1,16,-1
 445 492 l 1,17,-1
 550 492 l 1,18,-1
 550 421 l 1,19,-1
 418 421 l 1,20,-1
 369 293 l 1,21,-1
 550 293 l 1,22,-1
 550 222 l 1,23,-1
 341 222 l 1,24,-1
 296 104 l 1,25,-1
 235 130 l 1,26,-1
 270 222 l 1,27,-1
 178 222 l 1,8,-1
EndSplineSet
EndChar

StartChar: uni2370
Encoding: 9072 9072 50
Width: 728
Flags: W
LayerCount: 2
Fore
SplineSet
79 -102 m 1,0,-1
 79 816 l 1,1,-1
 649 816 l 1,2,-1
 649 -102 l 1,3,-1
 79 -102 l 1,0,-1
150 -31 m 1,4,-1
 578 -31 l 1,5,-1
 578 745 l 1,6,-1
 150 745 l 1,7,-1
 150 -31 l 1,4,-1
308 247 m 1,8,-1
 308 266 l 2,9,10
 308 304 308 304 321 330 c 128,-1,11
 334 356 334 356 355 375 c 128,-1,12
 376 394 376 394 399 412 c 0,13,14
 435 439 435 439 435 485 c 0,15,16
 435 514 435 514 413 531 c 128,-1,17
 391 548 391 548 351 548 c 0,18,19
 317 548 317 548 291 539.5 c 128,-1,20
 265 531 265 531 242 520 c 1,21,-1
 220 573 l 1,22,23
 282 607 282 607 356 607 c 0,24,25
 422 607 422 607 462 574 c 128,-1,26
 502 541 502 541 502 487 c 0,27,28
 502 452 502 452 488 425 c 128,-1,29
 474 398 474 398 435 366 c 0,30,31
 409 344 409 344 393.5 328.5 c 128,-1,32
 378 313 378 313 372 297.5 c 128,-1,33
 366 282 366 282 366 259 c 2,34,-1
 366 247 l 1,35,-1
 308 247 l 1,8,-1
343 99 m 0,36,37
 324 99 324 99 312 109.5 c 128,-1,38
 300 120 300 120 300 145 c 0,39,40
 300 192 300 192 343 192 c 0,41,42
 384 192 384 192 384 145 c 0,43,44
 384 120 384 120 372 109.5 c 128,-1,45
 360 99 360 99 343 99 c 0,36,37
EndSplineSet
EndChar

StartChar: uni2348
Encoding: 9032 9032 51
Width: 728
Flags: W
LayerCount: 2
Fore
SplineSet
79 -102 m 1,0,-1
 79 816 l 1,1,-1
 649 816 l 1,2,-1
 649 -102 l 1,3,-1
 79 -102 l 1,0,-1
150 -31 m 1,4,-1
 578 -31 l 1,5,-1
 578 745 l 1,6,-1
 150 745 l 1,7,-1
 150 393 l 1,8,-1
 423 393 l 1,9,-1
 403 517 l 1,10,-1
 577 357 l 1,11,-1
 403 197 l 1,12,-1
 423 322 l 1,13,-1
 150 322 l 1,14,-1
 150 -31 l 1,4,-1
EndSplineSet
EndChar

StartChar: uni2341
Encoding: 9025 9025 52
Width: 728
Flags: W
LayerCount: 2
Fore
SplineSet
79 -102 m 1,0,-1
 79 816 l 1,1,-1
 649 816 l 1,2,-1
 649 -102 l 1,3,-1
 79 -102 l 1,0,-1
150 745 m 1,4,-1
 150 56 l 1,5,-1
 545 745 l 1,6,-1
 150 745 l 1,4,-1
578 -31 m 1,7,-1
 578 658 l 1,8,-1
 183 -31 l 1,9,-1
 578 -31 l 1,7,-1
EndSplineSet
EndChar

StartChar: uni2350
Encoding: 9040 9040 53
Width: 728
Flags: W
LayerCount: 2
Fore
SplineSet
79 -102 m 1,0,-1
 79 816 l 1,1,-1
 649 816 l 1,2,-1
 649 -102 l 1,3,-1
 79 -102 l 1,0,-1
150 -31 m 1,4,-1
 329 -31 l 1,5,-1
 329 590 l 1,6,-1
 205 570 l 1,7,-1
 365 744 l 1,8,-1
 525 570 l 1,9,-1
 400 590 l 1,10,-1
 400 -31 l 1,11,-1
 578 -31 l 1,12,-1
 578 745 l 1,13,-1
 150 745 l 1,14,-1
 150 -31 l 1,4,-1
EndSplineSet
EndChar

StartChar: uni2353
Encoding: 9043 9043 54
Width: 728
Flags: W
LayerCount: 2
Fore
SplineSet
79 -102 m 1,0,-1
 79 816 l 1,1,-1
 649 816 l 1,2,-1
 649 -102 l 1,3,-1
 79 -102 l 1,0,-1
388 595 m 1,4,-1
 578 296 l 1,5,-1
 578 745 l 1,6,-1
 150 745 l 1,7,-1
 150 296 l 1,8,-1
 340 595 l 1,9,-1
 388 595 l 1,4,-1
150 -31 m 1,10,-1
 578 -31 l 1,11,-1
 578 174 l 1,12,-1
 364 507 l 1,13,-1
 150 174 l 1,14,-1
 150 -31 l 1,10,-1
EndSplineSet
EndChar

StartChar: uni235E
Encoding: 9054 9054 55
Width: 728
Flags: W
LayerCount: 2
Fore
SplineSet
79 -102 m 1,0,-1
 79 816 l 1,1,-1
 649 816 l 1,2,-1
 649 -102 l 1,3,-1
 79 -102 l 1,0,-1
150 -31 m 1,4,-1
 578 -31 l 1,5,-1
 578 745 l 1,6,-1
 150 745 l 1,7,-1
 150 -31 l 1,4,-1
337 447 m 1,8,-1
 317 705 l 1,9,-1
 412 705 l 1,10,-1
 392 447 l 1,11,-1
 337 447 l 1,8,-1
EndSplineSet
EndChar

StartChar: uni2358
Encoding: 9048 9048 56
Width: 440
Flags: W
LayerCount: 2
Fore
SplineSet
193 456 m 1,0,-1
 173 714 l 1,1,-1
 268 714 l 1,2,-1
 248 456 l 1,3,-1
 193 456 l 1,0,-1
51 -149 m 1,4,-1
 51 -78 l 1,5,-1
 389 -78 l 1,6,-1
 389 -149 l 1,7,-1
 51 -149 l 1,4,-1
EndSplineSet
EndChar

StartChar: uni2374
Encoding: 9076 9076 57
Width: 605
Flags: W
LayerCount: 2
Fore
SplineSet
79 -240 m 1,0,-1
 79 275 l 2,1,2
 79 404 79 404 141 475 c 128,-1,3
 203 546 203 546 318 546 c 0,4,5
 389 546 389 546 441 512.5 c 128,-1,6
 493 479 493 479 521.5 416.5 c 128,-1,7
 550 354 550 354 550 268 c 0,8,9
 550 135 550 135 488 62.5 c 128,-1,10
 426 -10 426 -10 313 -10 c 0,11,12
 228 -10 228 -10 168 35 c 1,13,-1
 163 35 l 1,14,15
 166 19 166 19 167 -14.5 c 128,-1,16
 168 -48 168 -48 168 -98 c 2,17,-1
 168 -240 l 1,18,-1
 79 -240 l 1,0,-1
312 63 m 0,19,20
 389 63 389 63 424.5 114 c 128,-1,21
 460 165 460 165 460 268 c 256,22,23
 460 371 460 371 425.5 421.5 c 128,-1,24
 391 472 391 472 314 472 c 0,25,26
 239 472 239 472 203.5 422.5 c 128,-1,27
 168 373 168 373 168 274 c 2,28,-1
 168 112 l 1,29,30
 224 63 224 63 312 63 c 0,19,20
EndSplineSet
EndChar

StartChar: uni2346
Encoding: 9030 9030 58
Width: 704
Flags: W
LayerCount: 2
Fore
SplineSet
292 0 m 1,0,-1
 292 324 l 1,1,-1
 51 324 l 1,2,-1
 51 391 l 1,3,-1
 292 391 l 1,4,-1
 292 714 l 1,5,-1
 363 714 l 1,6,-1
 363 391 l 1,7,-1
 514 391 l 1,8,-1
 497 497 l 1,9,-1
 653 357 l 1,10,-1
 497 217 l 1,11,-1
 514 324 l 1,12,-1
 363 324 l 1,13,-1
 363 0 l 1,14,-1
 292 0 l 1,0,-1
EndSplineSet
EndChar

StartChar: uni236E
Encoding: 9070 9070 59
Width: 440
Flags: W
LayerCount: 2
Fore
SplineSet
244 377 m 0,0,1
 217 377 217 377 198.5 393.5 c 128,-1,2
 180 410 180 410 180 446 c 0,3,4
 180 481 180 481 198 498 c 128,-1,5
 216 515 216 515 244 515 c 0,6,7
 270 515 270 515 288.5 498 c 128,-1,8
 307 481 307 481 307 446 c 0,9,10
 307 410 307 410 288.5 393.5 c 128,-1,11
 270 377 270 377 244 377 c 0,0,1
153 0 m 1,12,13
 164 47 164 47 174.5 100 c 128,-1,14
 185 153 185 153 193 212 c 1,15,-1
 287 212 l 1,16,-1
 294 201 l 1,17,18
 287 175 287 175 278.5 148.5 c 128,-1,19
 270 122 270 122 256.5 87 c 128,-1,20
 243 52 243 52 219 0 c 1,21,-1
 153 0 l 1,12,13
51 -149 m 1,22,-1
 51 -78 l 1,23,-1
 389 -78 l 1,24,-1
 389 -149 l 1,25,-1
 51 -149 l 1,22,-1
EndSplineSet
EndChar

StartChar: uni233F
Encoding: 9023 9023 60
Width: 539
Flags: W
LayerCount: 2
Fore
SplineSet
73 -110 m 1,0,-1
 219 268 l 1,1,-1
 51 268 l 1,2,-1
 51 335 l 1,3,-1
 245 335 l 1,4,-1
 391 713 l 1,5,-1
 466 713 l 1,6,-1
 320 335 l 1,7,-1
 488 335 l 1,8,-1
 488 268 l 1,9,-1
 294 268 l 1,10,-1
 148 -110 l 1,11,-1
 73 -110 l 1,0,-1
EndSplineSet
EndChar

StartChar: uni2337
Encoding: 9015 9015 61
Width: 504
Flags: W
LayerCount: 2
Fore
SplineSet
79 -102 m 1,0,-1
 79 816 l 1,1,-1
 425 816 l 1,2,-1
 425 -102 l 1,3,-1
 79 -102 l 1,0,-1
150 -31 m 1,4,-1
 354 -31 l 1,5,-1
 354 745 l 1,6,-1
 150 745 l 1,7,-1
 150 -31 l 1,4,-1
EndSplineSet
EndChar

StartChar: uni2363
Encoding: 9059 9059 62
Width: 524
Flags: W
LayerCount: 2
Fore
SplineSet
157 586 m 0,0,1
 136 586 136 586 121.5 600 c 128,-1,2
 107 614 107 614 107 636 c 0,3,4
 107 657 107 657 121.5 671.5 c 128,-1,5
 136 686 136 686 157 686 c 0,6,7
 179 686 179 686 193 671.5 c 128,-1,8
 207 657 207 657 207 636 c 0,9,10
 207 614 207 614 193 600 c 128,-1,11
 179 586 179 586 157 586 c 0,0,1
367 586 m 0,12,13
 345 586 345 586 331 600 c 128,-1,14
 317 614 317 614 317 636 c 0,15,16
 317 657 317 657 331 671.5 c 128,-1,17
 345 686 345 686 367 686 c 0,18,19
 388 686 388 686 402.5 671.5 c 128,-1,20
 417 657 417 657 417 636 c 0,21,22
 417 614 417 614 402.5 600 c 128,-1,23
 388 586 388 586 367 586 c 0,12,13
172 151 m 1,24,-1
 107 198 l 1,25,-1
 202 324 l 1,26,-1
 51 371 l 1,27,-1
 76 447 l 1,28,-1
 225 395 l 1,29,-1
 222 553 l 1,30,-1
 302 553 l 1,31,-1
 299 395 l 1,32,-1
 448 447 l 1,33,-1
 473 371 l 1,34,-1
 322 324 l 1,35,-1
 417 198 l 1,36,-1
 352 151 l 1,37,-1
 262 281 l 1,38,-1
 172 151 l 1,24,-1
EndSplineSet
EndChar

StartChar: uni236D
Encoding: 9069 9069 63
Width: 756
Flags: W
LayerCount: 2
Fore
SplineSet
51 294 m 1,0,-1
 51 369 l 1,1,2
 87 400 87 400 129 414 c 128,-1,3
 171 428 171 428 228 428 c 0,4,5
 263 428 263 428 291 423.5 c 128,-1,6
 319 419 319 419 343 412 c 1,7,-1
 343 772 l 1,8,-1
 414 772 l 1,9,-1
 414 387 l 1,10,11
 441 377 441 377 471 371 c 128,-1,12
 501 365 501 365 539 365 c 0,13,14
 587 365 587 365 624 379 c 128,-1,15
 661 393 661 393 705 428 c 1,16,-1
 705 354 l 1,17,18
 669 323 669 323 627.5 308.5 c 128,-1,19
 586 294 586 294 528 294 c 0,20,21
 493 294 493 294 465.5 298.5 c 128,-1,22
 438 303 438 303 414 310 c 1,23,-1
 414 -82 l 1,24,-1
 343 -82 l 1,25,-1
 343 336 l 1,26,27
 315 346 315 346 285.5 352 c 128,-1,28
 256 358 256 358 217 358 c 0,29,30
 169 358 169 358 132.5 344.5 c 128,-1,31
 96 331 96 331 51 294 c 1,0,-1
EndSplineSet
EndChar

StartChar: uni2368
Encoding: 9064 9064 64
Width: 756
Flags: W
LayerCount: 2
Fore
SplineSet
273 586 m 0,0,1
 252 586 252 586 237.5 600 c 128,-1,2
 223 614 223 614 223 636 c 0,3,4
 223 657 223 657 237.5 671.5 c 128,-1,5
 252 686 252 686 273 686 c 0,6,7
 295 686 295 686 309 671.5 c 128,-1,8
 323 657 323 657 323 636 c 0,9,10
 323 614 323 614 309 600 c 128,-1,11
 295 586 295 586 273 586 c 0,0,1
483 586 m 0,12,13
 461 586 461 586 447 600 c 128,-1,14
 433 614 433 614 433 636 c 0,15,16
 433 657 433 657 447 671.5 c 128,-1,17
 461 686 461 686 483 686 c 0,18,19
 504 686 504 686 518.5 671.5 c 128,-1,20
 533 657 533 657 533 636 c 0,21,22
 533 614 533 614 518.5 600 c 128,-1,23
 504 586 504 586 483 586 c 0,12,13
51 294 m 1,24,-1
 51 369 l 1,25,26
 87 400 87 400 129 414 c 128,-1,27
 171 428 171 428 228 428 c 0,28,29
 281 428 281 428 318 419 c 128,-1,30
 355 410 355 410 389 396 c 0,31,32
 422 383 422 383 457 374 c 128,-1,33
 492 365 492 365 539 365 c 0,34,35
 587 365 587 365 624 379 c 128,-1,36
 661 393 661 393 705 428 c 1,37,-1
 705 354 l 1,38,39
 669 323 669 323 627.5 308.5 c 128,-1,40
 586 294 586 294 528 294 c 0,41,42
 476 294 476 294 438.5 304 c 128,-1,43
 401 314 401 314 367 327 c 0,44,45
 333 341 333 341 298.5 349.5 c 128,-1,46
 264 358 264 358 217 358 c 0,47,48
 169 358 169 358 132.5 344.5 c 128,-1,49
 96 331 96 331 51 294 c 1,24,-1
EndSplineSet
EndChar

StartChar: uni2372
Encoding: 9074 9074 65
Width: 756
Flags: W
LayerCount: 2
Fore
SplineSet
51 124 m 1,0,-1
 200 358 l 1,1,2
 159 356 159 356 125.5 341.5 c 128,-1,3
 92 327 92 327 51 294 c 1,4,-1
 51 369 l 1,5,6
 87 400 87 400 129 414 c 128,-1,7
 171 428 171 428 228 428 c 0,8,9
 237 428 237 428 245 428 c 1,10,-1
 354 599 l 1,11,-1
 402 599 l 1,12,-1
 551 365 l 1,13,14
 594 367 594 367 629 381 c 128,-1,15
 664 395 664 395 705 428 c 1,16,-1
 705 354 l 1,17,18
 680 333 680 333 653 319.5 c 128,-1,19
 626 306 626 306 593 300 c 1,20,-1
 705 124 l 1,21,-1
 626 124 l 1,22,-1
 517 294 l 1,23,24
 469 295 469 295 434 304.5 c 128,-1,25
 399 314 399 314 367 327 c 0,26,27
 345 336 345 336 323.5 342.5 c 128,-1,28
 302 349 302 349 277 353 c 1,29,-1
 130 124 l 1,30,-1
 51 124 l 1,0,-1
389 396 m 0,31,32
 408 389 408 389 427 382.5 c 128,-1,33
 446 376 446 376 467 372 c 1,34,-1
 378 511 l 1,35,-1
 319 418 l 1,36,37
 338 414 338 414 355 408.5 c 128,-1,38
 372 403 372 403 389 396 c 0,31,32
EndSplineSet
EndChar

StartChar: uni235D
Encoding: 9053 9053 66
Width: 696
Flags: W
LayerCount: 2
Fore
SplineSet
51 0 m 1,0,-1
 51 434 l 2,1,2
 51 576 51 576 127 650.5 c 128,-1,3
 203 725 203 725 348 725 c 256,4,5
 493 725 493 725 569 650.5 c 128,-1,6
 645 576 645 576 645 434 c 2,7,-1
 645 0 l 1,8,-1
 574 0 l 1,9,-1
 574 434 l 2,10,11
 574 653 574 653 348 653 c 256,12,13
 122 653 122 653 122 434 c 2,14,-1
 122 0 l 1,15,-1
 51 0 l 1,0,-1
348 266 m 0,16,17
 304 266 304 266 267 288 c 128,-1,18
 230 310 230 310 208.5 346.5 c 128,-1,19
 187 383 187 383 187 427 c 0,20,21
 187 472 187 472 208.5 508.5 c 128,-1,22
 230 545 230 545 267 566.5 c 128,-1,23
 304 588 304 588 348 588 c 256,24,25
 392 588 392 588 428.5 566.5 c 128,-1,26
 465 545 465 545 487 508.5 c 128,-1,27
 509 472 509 472 509 427 c 0,28,29
 509 383 509 383 487.5 346.5 c 128,-1,30
 466 310 466 310 429.5 288 c 128,-1,31
 393 266 393 266 348 266 c 0,16,17
348 327 m 256,32,33
 390 327 390 327 419 357 c 128,-1,34
 448 387 448 387 448 427 c 256,35,36
 448 467 448 467 419 497 c 128,-1,37
 390 527 390 527 348 527 c 0,38,39
 307 527 307 527 277.5 497.5 c 128,-1,40
 248 468 248 468 248 427 c 256,41,42
 248 386 248 386 277 356.5 c 128,-1,43
 306 327 306 327 348 327 c 256,32,33
EndSplineSet
EndChar

StartChar: uni2361
Encoding: 9057 9057 67
Width: 756
Flags: W
LayerCount: 2
Fore
SplineSet
273 738 m 0,0,1
 252 738 252 738 237.5 752.5 c 128,-1,2
 223 767 223 767 223 788 c 0,3,4
 223 810 223 810 237.5 824 c 128,-1,5
 252 838 252 838 273 838 c 256,6,7
 294 838 294 838 308.5 824 c 128,-1,8
 323 810 323 810 323 788 c 256,9,10
 323 766 323 766 308 752 c 128,-1,11
 293 738 293 738 273 738 c 0,0,1
482 738 m 0,12,13
 461 738 461 738 446.5 752.5 c 128,-1,14
 432 767 432 767 432 788 c 0,15,16
 432 810 432 810 446.5 824 c 128,-1,17
 461 838 461 838 482 838 c 256,18,19
 503 838 503 838 517.5 824 c 128,-1,20
 532 810 532 810 532 788 c 256,21,22
 532 766 532 766 517 752 c 128,-1,23
 502 738 502 738 482 738 c 0,12,13
343 26 m 1,24,-1
 343 609 l 1,25,-1
 51 609 l 1,26,-1
 51 680 l 1,27,-1
 705 680 l 1,28,-1
 705 609 l 1,29,-1
 414 609 l 1,30,-1
 414 26 l 1,31,-1
 343 26 l 1,24,-1
EndSplineSet
EndChar

StartChar: uni2355
Encoding: 9045 9045 68
Width: 756
Flags: W
LayerCount: 2
Fore
SplineSet
343 26 m 1,0,-1
 343 193 l 1,1,2
 305 201 305 201 275 224.5 c 128,-1,3
 245 248 245 248 227.5 282.5 c 128,-1,4
 210 317 210 317 210 357 c 256,5,6
 210 397 210 397 227.5 431.5 c 128,-1,7
 245 466 245 466 275 489.5 c 128,-1,8
 305 513 305 513 343 521 c 1,9,-1
 343 609 l 1,10,-1
 51 609 l 1,11,-1
 51 680 l 1,12,-1
 705 680 l 1,13,-1
 705 609 l 1,14,-1
 414 609 l 1,15,-1
 414 521 l 1,16,17
 470 509 470 509 508 463.5 c 128,-1,18
 546 418 546 418 546 357 c 0,19,20
 546 317 546 317 528.5 283 c 128,-1,21
 511 249 511 249 481.5 225 c 128,-1,22
 452 201 452 201 414 193 c 1,23,-1
 414 26 l 1,24,-1
 343 26 l 1,0,-1
273 357 m 256,25,26
 273 323 273 323 292.5 296 c 128,-1,27
 312 269 312 269 343 258 c 1,28,-1
 343 456 l 1,29,30
 312 445 312 445 292.5 418 c 128,-1,31
 273 391 273 391 273 357 c 256,25,26
483 357 m 256,32,33
 483 391 483 391 463.5 418 c 128,-1,34
 444 445 444 445 414 456 c 1,35,-1
 414 258 l 1,36,37
 444 269 444 269 463.5 296 c 128,-1,38
 483 323 483 323 483 357 c 256,32,33
EndSplineSet
EndChar

StartChar: uni2351
Encoding: 9041 9041 69
Width: 756
Flags: W
LayerCount: 2
Fore
SplineSet
51 758 m 1,0,-1
 51 829 l 1,1,-1
 704 829 l 1,2,-1
 704 758 l 1,3,-1
 51 758 l 1,0,-1
343 26 m 1,4,-1
 343 609 l 1,5,-1
 51 609 l 1,6,-1
 51 680 l 1,7,-1
 705 680 l 1,8,-1
 705 609 l 1,9,-1
 414 609 l 1,10,-1
 414 26 l 1,11,-1
 343 26 l 1,4,-1
EndSplineSet
EndChar

StartChar: uni234F
Encoding: 9039 9039 70
Width: 699
Flags: W
LayerCount: 2
Fore
SplineSet
314 0 m 1,0,-1
 314 341 l 1,1,-1
 51 341 l 1,2,-1
 51 412 l 1,3,-1
 314 412 l 1,4,-1
 314 575 l 1,5,-1
 208 558 l 1,6,-1
 350 714 l 1,7,-1
 492 558 l 1,8,-1
 385 575 l 1,9,-1
 385 412 l 1,10,-1
 648 412 l 1,11,-1
 648 341 l 1,12,-1
 385 341 l 1,13,-1
 385 0 l 1,14,-1
 314 0 l 1,0,-1
EndSplineSet
EndChar

StartChar: uni236C
Encoding: 9068 9068 71
Width: 756
Flags: W
LayerCount: 2
Fore
SplineSet
51 294 m 1,0,-1
 51 369 l 1,1,2
 93 405 93 405 144 418 c 1,3,4
 153 570 153 570 212.5 648 c 128,-1,5
 272 726 272 726 378 726 c 0,6,7
 491 726 491 726 551 637 c 128,-1,8
 611 548 611 548 614 375 c 1,9,10
 656 389 656 389 705 428 c 1,11,-1
 705 354 l 1,12,13
 662 318 662 318 613 304 c 1,14,15
 604 150 604 150 544.5 70 c 128,-1,16
 485 -10 485 -10 378 -10 c 0,17,18
 264 -10 264 -10 204 81 c 128,-1,19
 144 172 144 172 142 348 c 1,20,21
 100 334 100 334 51 294 c 1,0,-1
389 396 m 0,22,23
 420 384 420 384 452 375.5 c 128,-1,24
 484 367 484 367 526 365 c 1,25,26
 525 515 525 515 489.5 583 c 128,-1,27
 454 651 454 651 378 651 c 0,28,29
 310 651 310 651 274.5 597.5 c 128,-1,30
 239 544 239 544 232 428 c 1,31,32
 283 428 283 428 319 418.5 c 128,-1,33
 355 409 355 409 389 396 c 0,22,23
378 65 m 0,34,35
 447 65 447 65 482.5 119.5 c 128,-1,36
 518 174 518 174 524 294 c 1,37,38
 473 294 473 294 436.5 304 c 128,-1,39
 400 314 400 314 367 327 c 0,40,41
 336 340 336 340 304 348.5 c 128,-1,42
 272 357 272 357 230 358 c 1,43,44
 230 204 230 204 265.5 134.5 c 128,-1,45
 301 65 301 65 378 65 c 0,34,35
EndSplineSet
EndChar

StartChar: u1D400
Encoding: 119808 119808 72
Width: 650
Flags: W
LayerCount: 2
Fore
SplineSet
-13 0 m 1,0,-1
 -13 27 l 1,1,2
 16 27 16 27 35 45 c 128,-1,3
 54 63 54 63 73 111 c 2,4,-1
 307 694 l 1,5,-1
 334 693 l 1,6,-1
 572 129 l 2,7,8
 595 75 595 75 612 51 c 128,-1,9
 629 27 629 27 660 27 c 1,10,-1
 660 0 l 1,11,-1
 341 0 l 1,12,-1
 341 27 l 1,13,14
 422 27 422 27 422 68 c 0,15,16
 422 82 422 82 406 121 c 2,17,-1
 376 197 l 1,18,-1
 154 197 l 1,19,-1
 117 105 l 2,20,21
 114 98 114 98 112.5 87.5 c 128,-1,22
 111 77 111 77 111 72 c 0,23,24
 111 27 111 27 184 27 c 2,25,-1
 190 27 l 1,26,-1
 190 0 l 1,27,-1
 -13 0 l 1,0,-1
169 239 m 1,28,-1
 360 239 l 1,29,-1
 263 475 l 1,30,-1
 169 239 l 1,28,-1
EndSplineSet
EndChar

StartChar: u1D468
Encoding: 119912 119912 73
Width: 625
Flags: W
LayerCount: 2
Fore
SplineSet
-101 0 m 1,0,-1
 -101 25 l 1,1,2
 -57 25 -57 25 -19 71 c 2,3,-1
 481 687 l 1,4,-1
 509 687 l 1,5,-1
 486 132 l 1,6,-1
 486 118 l 2,7,8
 486 28 486 28 578 25 c 1,9,-1
 578 0 l 1,10,-1
 265 0 l 1,11,-1
 265 25 l 1,12,13
 318 29 318 29 335 57.5 c 128,-1,14
 352 86 352 86 353 129 c 2,15,-1
 355 209 l 1,16,-1
 144 209 l 1,17,-1
 73 120 l 2,18,19
 57 99 57 99 49 83.5 c 128,-1,20
 41 68 41 68 41 60 c 0,21,22
 41 31 41 31 106 25 c 1,23,-1
 106 0 l 1,24,-1
 -101 0 l 1,0,-1
177 250 m 1,25,-1
 357 250 l 1,26,-1
 368 488 l 1,27,-1
 177 250 l 1,25,-1
EndSplineSet
EndChar

StartChar: u1D4D0
Encoding: 120016 120016 74
Width: 736
Flags: W
LayerCount: 2
Fore
SplineSet
76 -22 m 0,0,1
 20 -22 20 -22 -11 6.5 c 128,-1,2
 -42 35 -42 35 -42 83 c 0,3,4
 -42 125 -42 125 -14 153.5 c 128,-1,5
 14 182 14 182 57 182 c 0,6,7
 89 182 89 182 108 167 c 128,-1,8
 127 152 127 152 127 129 c 0,9,10
 127 112 127 112 114.5 98 c 128,-1,11
 102 84 102 84 88 80 c 0,12,13
 78 78 78 78 65 74 c 128,-1,14
 52 70 52 70 44 66 c 0,15,16
 35 62 35 62 30 56.5 c 128,-1,17
 25 51 25 51 25 41 c 0,18,19
 25 27 25 27 39.5 15 c 128,-1,20
 54 3 54 3 79 3 c 0,21,22
 165 3 165 3 299 140 c 1,23,24
 250 195 250 195 250 254 c 0,25,26
 250 298 250 298 280 327.5 c 128,-1,27
 310 357 310 357 357 357 c 0,28,29
 412 357 412 357 455 317 c 1,30,31
 520 388 520 388 582 446.5 c 128,-1,32
 644 505 644 505 702 551 c 0,33,34
 817 642 817 642 868 642 c 0,35,36
 886 642 886 642 886 632 c 1,37,-1
 851 568 l 2,38,39
 792 460 792 460 730 333 c 128,-1,40
 668 206 668 206 607 59 c 1,41,42
 661 72 661 72 729 140 c 2,43,-1
 774 186 l 2,44,45
 858 271 858 271 889 271 c 0,46,47
 903 271 903 271 911 267 c 1,48,49
 892 255 892 255 867 235.5 c 128,-1,50
 842 216 842 216 816 187 c 0,51,52
 790 159 790 159 764 132.5 c 128,-1,53
 738 106 738 106 711 84 c 256,54,55
 684 62 684 62 655.5 47.5 c 128,-1,56
 627 33 627 33 593 29 c 1,57,-1
 585 11 l 1,58,-1
 429 -9 l 1,59,-1
 450 43 l 1,60,61
 380 67 380 67 323 115 c 1,62,63
 255 46 255 46 198 12 c 128,-1,64
 141 -22 141 -22 76 -22 c 0,0,1
521 165 m 1,65,66
 637 356 637 356 800 585 c 1,67,68
 692 521 692 521 480 290 c 1,69,70
 521 223 521 223 521 167 c 2,71,-1
 521 165 l 1,65,66
324 171 m 1,72,-1
 430 288 l 1,73,74
 410 305 410 305 395 305 c 0,75,76
 375 305 375 305 357 291 c 128,-1,77
 339 277 339 277 327.5 256 c 128,-1,78
 316 235 316 235 316 212 c 0,79,80
 316 190 316 190 324 171 c 1,72,-1
460 71 m 1,81,82
 475 119 475 119 475 164 c 0,83,84
 475 223 475 223 453 260 c 1,85,-1
 347 142 l 1,86,87
 408 87 408 87 460 71 c 1,81,82
EndSplineSet
EndChar

StartChar: u1D538
Encoding: 120120 120120 75
Width: 694
Flags: W
LayerCount: 2
Fore
SplineSet
0 0 m 1,0,-1
 270 714 l 1,1,-1
 438 714 l 1,2,-1
 694 1 l 1,3,-1
 638 1 l 1,4,-1
 556 226 l 1,5,-1
 270 226 l 1,6,-1
 185 0 l 1,7,-1
 0 0 l 1,0,-1
77 53 m 1,8,-1
 148 53 l 1,9,-1
 378 661 l 1,10,-1
 307 661 l 1,11,-1
 77 53 l 1,8,-1
290 279 m 1,12,-1
 537 279 l 1,13,-1
 416 614 l 1,14,-1
 290 279 l 1,12,-1
EndSplineSet
EndChar

StartChar: u1D434
Encoding: 119860 119860 76
Width: 690
Flags: W
LayerCount: 2
Fore
SplineSet
-126 0 m 1,0,-1
 -122 19 l 1,1,2
 -55 19 -55 19 0 83 c 0,3,4
 28 115 28 115 160 270.5 c 128,-1,5
 292 426 292 426 530 707 c 1,6,-1
 550 707 l 1,7,-1
 525 86 l 2,8,9
 524 50 524 50 544.5 35.5 c 128,-1,10
 565 21 565 21 612 19 c 1,11,-1
 609 0 l 1,12,-1
 329 0 l 1,13,-1
 333 19 l 1,14,-1
 341 19 l 2,15,16
 389 19 389 19 406 39 c 128,-1,17
 423 59 423 59 425 116 c 2,18,-1
 429 235 l 1,19,-1
 198 235 l 2,20,21
 183 235 183 235 172 223 c 2,22,-1
 97 134 l 2,23,24
 47 73 47 73 47 53 c 256,25,26
 47 33 47 33 63.5 26 c 128,-1,27
 80 19 80 19 117 19 c 1,28,-1
 112 0 l 1,29,-1
 -126 0 l 1,0,-1
213 272 m 1,30,-1
 431 272 l 1,31,-1
 443 546 l 1,32,-1
 213 272 l 1,30,-1
EndSplineSet
EndChar

StartChar: u1D49C
Encoding: 119964 119964 77
Width: 716
Flags: W
LayerCount: 2
Fore
SplineSet
54 -22 m 0,0,1
 3 -22 3 -22 -24.5 5.5 c 128,-1,2
 -52 33 -52 33 -52 79 c 0,3,4
 -52 120 -52 120 -28 147.5 c 128,-1,5
 -4 175 -4 175 34 175 c 0,6,7
 60 175 60 175 75.5 161 c 128,-1,8
 91 147 91 147 91 126 c 0,9,10
 91 100 91 100 71.5 87.5 c 128,-1,11
 52 75 52 75 20 69 c 256,12,13
 -12 63 -12 63 -12 37 c 0,14,15
 -12 20 -12 20 6.5 6.5 c 128,-1,16
 25 -7 25 -7 57 -7 c 0,17,18
 153 -7 153 -7 293 138 c 1,19,20
 244 196 244 196 244 253 c 0,21,22
 244 295 244 295 270.5 324 c 128,-1,23
 297 353 297 353 339 353 c 0,24,25
 392 353 392 353 439 303 c 1,26,27
 506 378 506 378 569.5 439 c 128,-1,28
 633 500 633 500 692 547 c 0,29,30
 813 642 813 642 858 642 c 0,31,32
 862 642 862 642 862 637 c 0,33,34
 862 634 862 634 856 623 c 0,35,36
 853 617 853 617 849 609.5 c 128,-1,37
 845 602 845 602 840 592 c 0,38,39
 710 369 710 369 576 48 c 1,40,41
 634 51 634 51 695 113 c 0,42,43
 725 144 725 144 752.5 171 c 128,-1,44
 780 198 780 198 807 222 c 0,45,46
 860 269 860 269 878 269 c 2,47,-1
 888 267 l 1,48,49
 843 244 843 244 797 192 c 0,50,51
 766 157 766 157 730.5 121 c 128,-1,52
 695 85 695 85 654.5 59.5 c 128,-1,53
 614 34 614 34 567 28 c 1,54,-1
 559 10 l 1,55,-1
 428 -7 l 1,56,-1
 448 41 l 1,57,58
 375 64 375 64 305 125 c 1,59,60
 235 53 235 53 175.5 15.5 c 128,-1,61
 116 -22 116 -22 54 -22 c 0,0,1
488 110 m 1,62,63
 560 232 560 232 642.5 357.5 c 128,-1,64
 725 483 725 483 819 613 c 1,65,66
 743 580 743 580 654.5 497 c 128,-1,67
 566 414 566 414 451 289 c 1,68,69
 492 225 492 225 492 165 c 0,70,71
 492 152 492 152 491 138 c 128,-1,72
 490 124 490 124 488 110 c 1,62,63
305 154 m 1,73,74
 337 186 337 186 367 220 c 128,-1,75
 397 254 397 254 427 288 c 1,76,77
 405 310 405 310 378 310 c 0,78,79
 355 310 355 310 333 295.5 c 128,-1,80
 311 281 311 281 297 258.5 c 128,-1,81
 283 236 283 236 283 210 c 0,82,83
 283 178 283 178 305 154 c 1,73,74
455 58 m 1,84,85
 473 114 473 114 473 162 c 0,86,87
 473 229 473 229 439 275 c 1,88,-1
 316 139 l 1,89,90
 390 73 390 73 455 58 c 1,84,85
EndSplineSet
EndChar

StartChar: u1D505
Encoding: 120069 120069 78
Width: 824
Flags: W
LayerCount: 2
Fore
SplineSet
404 -23 m 0,0,1
 377 -23 377 -23 354 -6 c 0,2,3
 344 1 344 1 322.5 16 c 128,-1,4
 301 31 301 31 273.5 49 c 128,-1,5
 246 67 246 67 217 83.5 c 128,-1,6
 188 100 188 100 163 111 c 128,-1,7
 138 122 138 122 123 122 c 0,8,9
 99 122 99 122 82.5 108 c 128,-1,10
 66 94 66 94 66 73 c 0,11,12
 66 63 66 63 74 41 c 1,13,-1
 56 30 l 1,14,15
 44 51 44 51 44 73 c 0,16,17
 44 114 44 114 75 142.5 c 128,-1,18
 106 171 106 171 157 178 c 0,19,20
 191 183 191 183 227.5 197.5 c 128,-1,21
 264 212 264 212 295 236 c 128,-1,22
 326 260 326 260 343 292 c 0,23,24
 369 341 369 341 369 412 c 0,25,26
 369 525 369 525 321 587 c 128,-1,27
 273 649 273 649 194 649 c 0,28,29
 158 649 158 649 128 631 c 128,-1,30
 98 613 98 613 79.5 581.5 c 128,-1,31
 61 550 61 550 61 509 c 0,32,33
 61 463 61 463 83 424.5 c 128,-1,34
 105 386 105 386 142 361.5 c 128,-1,35
 179 337 179 337 224 334 c 1,36,-1
 217 311 l 1,37,38
 163 318 163 318 122.5 346 c 128,-1,39
 82 374 82 374 59.5 418 c 128,-1,40
 37 462 37 462 37 516 c 0,41,42
 37 577 37 577 62.5 624 c 128,-1,43
 88 671 88 671 131.5 698 c 128,-1,44
 175 725 175 725 229 725 c 0,45,46
 345 725 345 725 412 612 c 1,47,48
 438 626 438 626 465 640 c 128,-1,49
 492 654 492 654 519 667 c 0,50,51
 572 694 572 694 624 727 c 1,52,-1
 638 711 l 1,53,54
 624 700 624 700 624 690 c 0,55,56
 624 682 624 682 634.5 660.5 c 128,-1,57
 645 639 645 639 660.5 614.5 c 128,-1,58
 676 590 676 590 690 573 c 0,59,60
 710 547 710 547 721 547 c 0,61,62
 730 547 730 547 743 554 c 1,63,-1
 753 537 l 1,64,-1
 597 442 l 1,65,66
 685 424 685 424 733.5 369 c 128,-1,67
 782 314 782 314 782 236 c 0,68,69
 782 163 782 163 738.5 103.5 c 128,-1,70
 695 44 695 44 598 11 c 0,71,72
 549 -5 549 -5 501 -14 c 128,-1,73
 453 -23 453 -23 404 -23 c 0,0,1
452 388 m 1,74,75
 640 488 640 488 640 499 c 0,76,77
 640 503 640 503 630.5 519 c 128,-1,78
 621 535 621 535 607 555.5 c 128,-1,79
 593 576 593 576 577.5 596 c 128,-1,80
 562 616 562 616 550.5 629.5 c 128,-1,81
 539 643 539 643 535 643 c 0,82,83
 514 643 514 643 422 590 c 1,84,85
 455 512 455 512 455 438 c 1,86,-1
 452 388 l 1,74,75
530 23 m 0,87,88
 580 23 580 23 619.5 45.5 c 128,-1,89
 659 68 659 68 682 107 c 128,-1,90
 705 146 705 146 705 195 c 0,91,92
 705 249 705 249 679 289.5 c 128,-1,93
 653 330 653 330 607.5 353 c 128,-1,94
 562 376 562 376 504 376 c 0,95,96
 475 376 475 376 448 366 c 1,97,98
 439 314 439 314 420 283.5 c 128,-1,99
 401 253 401 253 368 232 c 0,100,101
 351 222 351 222 314 207 c 128,-1,102
 277 192 277 192 220 173 c 1,103,104
 273 152 273 152 326 114 c 256,105,106
 379 76 379 76 428.5 49.5 c 128,-1,107
 478 23 478 23 530 23 c 0,87,88
EndSplineSet
EndChar

StartChar: u1D56D
Encoding: 120173 120173 79
Width: 855
Flags: W
LayerCount: 2
Fore
SplineSet
407 -22 m 0,0,1
 364 -22 364 -22 325 -1 c 2,2,-1
 174 79 l 2,3,4
 162 85 162 85 152 88.5 c 128,-1,5
 142 92 142 92 134 92 c 0,6,7
 99 92 99 92 99 59 c 0,8,9
 99 44 99 44 111 20 c 1,10,-1
 75 3 l 1,11,12
 37 56 37 56 37 100 c 0,13,14
 37 140 37 140 70 168 c 128,-1,15
 103 196 103 196 155 203 c 0,16,17
 207 211 207 211 260 238.5 c 128,-1,18
 313 266 313 266 344 318 c 0,19,20
 374 369 374 369 374 446 c 0,21,22
 374 498 374 498 354 539.5 c 128,-1,23
 334 581 334 581 299 606 c 128,-1,24
 264 631 264 631 218 631 c 0,25,26
 182 631 182 631 151.5 614.5 c 128,-1,27
 121 598 121 598 102.5 569 c 128,-1,28
 84 540 84 540 84 502 c 0,29,30
 84 373 84 373 253 345 c 1,31,-1
 245 305 l 1,32,33
 145 319 145 319 92.5 375.5 c 128,-1,34
 40 432 40 432 40 522 c 0,35,36
 40 587 40 587 66.5 637.5 c 128,-1,37
 93 688 93 688 140 717 c 128,-1,38
 187 746 187 746 249 746 c 0,39,40
 306 746 306 746 356.5 718 c 128,-1,41
 407 690 407 690 441 639 c 1,42,43
 467 652 467 652 494 665.5 c 128,-1,44
 521 679 521 679 550 693 c 256,45,46
 579 707 579 707 606 721 c 128,-1,47
 633 735 633 735 657 751 c 1,48,-1
 677 716 l 1,49,50
 663 705 663 705 663 695 c 0,51,52
 663 691 663 691 672 668 c 0,53,54
 678 653 678 653 691 632.5 c 128,-1,55
 704 612 704 612 718 594.5 c 128,-1,56
 732 577 732 577 739 572 c 0,57,58
 750 564 750 564 757 564 c 256,59,60
 764 564 764 564 779 572 c 1,61,-1
 801 538 l 1,62,-1
 665 457 l 1,63,64
 733 435 733 435 773 380.5 c 128,-1,65
 813 326 813 326 813 255 c 0,66,67
 813 175 813 175 756.5 114.5 c 128,-1,68
 700 54 700 54 594 16 c 0,69,70
 486 -22 486 -22 407 -22 c 0,0,1
483 412 m 1,71,72
 531 437 531 437 558.5 451.5 c 128,-1,73
 586 466 586 466 603 476 c 0,74,75
 638 497 638 497 638 501 c 0,76,77
 638 510 638 510 626.5 533 c 128,-1,78
 615 556 615 556 598.5 581 c 128,-1,79
 582 606 582 606 566.5 624.5 c 128,-1,80
 551 643 551 643 544 643 c 0,81,82
 533 643 533 643 462 602 c 1,83,84
 489 542 489 542 489 476 c 0,85,86
 489 442 489 442 483 412 c 1,71,72
562 61 m 0,87,88
 594 61 594 61 619 80.5 c 128,-1,89
 644 100 644 100 658.5 133.5 c 128,-1,90
 673 167 673 167 673 207 c 0,91,92
 673 255 673 255 652 292 c 128,-1,93
 631 329 631 329 596.5 350 c 128,-1,94
 562 371 562 371 519 371 c 0,95,96
 488 371 488 371 468 360 c 1,97,98
 455 317 455 317 437.5 292.5 c 128,-1,99
 420 268 420 268 394 251 c 0,100,101
 380 242 380 242 347 227.5 c 128,-1,102
 314 213 314 213 261 193 c 1,103,104
 283 186 283 186 318.5 168.5 c 128,-1,105
 354 151 354 151 403 121 c 0,106,107
 502 61 502 61 562 61 c 0,87,88
EndSplineSet
EndChar

StartChar: u1D401
Encoding: 119809 119809 80
Width: 659
Flags: W
LayerCount: 2
Fore
SplineSet
24 0 m 1,0,-1
 24 26 l 1,1,2
 75 28 75 28 93 48 c 128,-1,3
 111 68 111 68 111 122 c 2,4,-1
 111 549 l 2,5,6
 111 592 111 592 103 614 c 128,-1,7
 95 636 95 636 76 644.5 c 128,-1,8
 57 653 57 653 23 653 c 1,9,-1
 23 678 l 1,10,-1
 328 678 l 2,11,12
 590 678 590 678 590 522 c 0,13,14
 590 399 590 399 427 368 c 1,15,16
 623 331 623 331 623 196 c 0,17,18
 623 103 623 103 552.5 51.5 c 128,-1,19
 482 0 482 0 354 0 c 2,20,-1
 24 0 l 1,0,-1
271 375 m 1,21,-1
 280 375 l 2,22,23
 360 375 360 375 392 405.5 c 128,-1,24
 424 436 424 436 424 514 c 0,25,26
 424 582 424 582 401 614 c 128,-1,27
 378 646 378 646 322 646 c 0,28,29
 288 646 288 646 279.5 632.5 c 128,-1,30
 271 619 271 619 271 582 c 2,31,-1
 271 375 l 1,21,-1
330 36 m 0,32,33
 395 36 395 36 421.5 73 c 128,-1,34
 448 110 448 110 448 191 c 0,35,36
 448 274 448 274 412.5 309 c 128,-1,37
 377 344 377 344 294 344 c 2,38,-1
 271 344 l 1,39,-1
 271 97 l 2,40,41
 271 63 271 63 283.5 49.5 c 128,-1,42
 296 36 296 36 330 36 c 0,32,33
EndSplineSet
EndChar

StartChar: u1D469
Encoding: 119913 119913 81
Width: 641
Flags: W
LayerCount: 2
Fore
SplineSet
-50 0 m 1,0,-1
 -50 23 l 1,1,2
 -19 23 -19 23 0.5 30.5 c 128,-1,3
 20 38 20 38 33 60.5 c 128,-1,4
 46 83 46 83 58 127 c 2,5,-1
 171 549 l 2,6,7
 175 563 175 563 177 575.5 c 128,-1,8
 179 588 179 588 179 601 c 0,9,10
 179 625 179 625 162.5 634.5 c 128,-1,11
 146 644 146 644 109 647 c 1,12,-1
 109 671 l 1,13,-1
 330 671 l 2,14,15
 484 671 484 671 551 636 c 0,16,17
 616 601 616 601 616 525 c 0,18,19
 616 398 616 398 430 357 c 1,20,21
 563 315 563 315 563 208 c 0,22,23
 563 154 563 154 534.5 106.5 c 128,-1,24
 506 59 506 59 439 29.5 c 128,-1,25
 372 0 372 0 255 0 c 2,26,-1
 -50 0 l 1,0,-1
299 369 m 0,27,28
 383 370 383 370 426 416.5 c 128,-1,29
 469 463 469 463 469 542 c 0,30,31
 469 638 469 638 376 638 c 0,32,33
 340 638 340 638 331 604 c 2,34,-1
 270 371 l 1,35,36
 281 370 281 370 286.5 369.5 c 128,-1,37
 292 369 292 369 299 369 c 0,27,28
247 33 m 0,38,39
 321 33 321 33 366 85 c 128,-1,40
 411 137 411 137 411 222 c 0,41,42
 411 338 411 338 279 338 c 2,43,-1
 262 338 l 1,44,-1
 200 111 l 2,45,46
 192 84 192 84 192 66 c 0,47,48
 192 33 192 33 247 33 c 0,38,39
EndSplineSet
EndChar

StartChar: u1D4D1
Encoding: 120017 120017 82
Width: 860
Flags: W
LayerCount: 2
Fore
SplineSet
612 -7 m 0,0,1
 575 -7 575 -7 553.5 11 c 128,-1,2
 532 29 532 29 532 61 c 0,3,4
 532 81 532 81 544 100.5 c 128,-1,5
 556 120 556 120 573 137 c 128,-1,6
 590 154 590 154 606.5 164 c 128,-1,7
 623 174 623 174 633 174 c 256,8,9
 643 174 643 174 643 165 c 0,10,11
 643 161 643 161 619 144 c 0,12,13
 594 128 594 128 578.5 105.5 c 128,-1,14
 563 83 563 83 563 62 c 0,15,16
 563 25 563 25 588 25 c 0,17,18
 606 25 606 25 629 45.5 c 128,-1,19
 652 66 652 66 674 99 c 128,-1,20
 696 132 696 132 710 170 c 128,-1,21
 724 208 724 208 724 243 c 0,22,23
 724 268 724 268 717 283 c 256,24,25
 710 298 710 298 704 298 c 2,26,-1
 660 294 l 2,27,28
 651 293 651 293 645 300 c 128,-1,29
 639 307 639 307 639 314 c 0,30,31
 639 322 639 322 646 327.5 c 128,-1,32
 653 333 653 333 662 332 c 2,33,-1
 705 327 l 2,34,35
 728 327 728 327 752.5 350 c 128,-1,36
 777 373 777 373 794.5 409 c 128,-1,37
 812 445 812 445 812 484 c 0,38,39
 812 544 812 544 779 566 c 1,40,41
 748 553 748 553 724 527.5 c 128,-1,42
 700 502 700 502 677.5 455.5 c 128,-1,43
 655 409 655 409 626 333 c 0,44,45
 540 104 540 104 392 36 c 0,46,47
 320 2 320 2 226 2 c 0,48,49
 146 2 146 2 100.5 34.5 c 128,-1,50
 55 67 55 67 55 118 c 0,51,52
 55 158 55 158 83.5 184.5 c 128,-1,53
 112 211 112 211 154 211 c 0,54,55
 186 211 186 211 205.5 195.5 c 128,-1,56
 225 180 225 180 225 157 c 256,57,58
 225 134 225 134 209.5 120.5 c 128,-1,59
 194 107 194 107 177 105 c 0,60,61
 169 104 169 104 161 103.5 c 128,-1,62
 153 103 153 103 146 101 c 0,63,64
 127 98 127 98 127 79 c 0,65,66
 127 59 127 59 152 43.5 c 128,-1,67
 177 28 177 28 219 28 c 0,68,69
 259 28 259 28 295.5 51 c 128,-1,70
 332 74 332 74 365 125 c 256,71,72
 398 176 398 176 452 275 c 0,73,74
 506 373 506 373 553 430.5 c 128,-1,75
 600 488 600 488 651 528 c 0,76,77
 677 548 677 548 701.5 562 c 128,-1,78
 726 576 726 576 751 584 c 1,79,80
 703 602 703 602 620 602 c 0,81,82
 558 602 558 602 493 585 c 128,-1,83
 428 568 428 568 370 539 c 128,-1,84
 312 510 312 510 271 473 c 0,85,86
 209 417 209 417 209 363 c 0,87,88
 209 305 209 305 272 305 c 0,89,90
 299 305 299 305 333 323.5 c 128,-1,91
 367 342 367 342 399 371.5 c 128,-1,92
 431 401 431 401 454 435 c 128,-1,93
 477 469 477 469 482 501 c 0,94,95
 485 522 485 522 490 522 c 0,96,97
 506 522 506 522 506 477 c 0,98,99
 506 418 506 418 476 369 c 128,-1,100
 446 320 446 320 397 291.5 c 128,-1,101
 348 263 348 263 290 263 c 0,102,103
 236 263 236 263 207.5 292.5 c 128,-1,104
 179 322 179 322 179 366 c 0,105,106
 179 404 179 404 208.5 445 c 128,-1,107
 238 486 238 486 292.5 523.5 c 128,-1,108
 347 561 347 561 421 587 c 0,109,110
 532 626 532 626 633 626 c 0,111,112
 728 626 728 626 797 597 c 1,113,114
 844 609 844 609 861 609 c 0,115,116
 877 609 877 609 877 600 c 0,117,118
 877 594 877 594 860 589 c 2,119,-1
 830 580 l 1,120,121
 868 565 868 565 896.5 535 c 128,-1,122
 925 505 925 505 925 464 c 0,123,124
 925 420 925 420 878.5 379 c 128,-1,125
 832 338 832 338 741 312 c 1,126,127
 841 276 841 276 841 188 c 0,128,129
 841 153 841 153 821.5 118.5 c 128,-1,130
 802 84 802 84 769.5 55.5 c 128,-1,131
 737 27 737 27 696 10 c 128,-1,132
 655 -7 655 -7 612 -7 c 0,0,1
EndSplineSet
EndChar

StartChar: u1D539
Encoding: 120121 120121 83
Width: 672
Flags: W
LayerCount: 2
Fore
SplineSet
77 0 m 1,0,-1
 77 714 l 1,1,-1
 400 714 l 2,2,3
 514 714 514 714 565.5 669 c 128,-1,4
 617 624 617 624 617 529 c 0,5,6
 617 396 617 396 507 374 c 1,7,8
 617 340 617 340 617 203 c 0,9,10
 617 0 617 0 400 0 c 2,11,-1
 77 0 l 1,0,-1
130 53 m 1,12,-1
 197 53 l 1,13,-1
 197 661 l 1,14,-1
 130 661 l 1,15,-1
 130 53 l 1,12,-1
250 399 m 1,16,-1
 417 399 l 1,17,-1
 417 661 l 1,18,-1
 250 661 l 1,19,-1
 250 399 l 1,16,-1
470 401 m 1,20,21
 510 409 510 409 537 439 c 128,-1,22
 564 469 564 469 564 529 c 0,23,24
 564 582 564 582 543.5 615.5 c 128,-1,25
 523 649 523 649 470 658 c 1,26,-1
 470 401 l 1,20,21
250 53 m 1,27,-1
 417 53 l 1,28,-1
 417 348 l 1,29,-1
 250 348 l 1,30,-1
 250 53 l 1,27,-1
470 58 m 1,31,32
 519 67 519 67 541.5 106.5 c 128,-1,33
 564 146 564 146 564 202 c 0,34,35
 564 325 564 325 470 346 c 1,36,-1
 470 58 l 1,31,32
EndSplineSet
EndChar

StartChar: u1D435
Encoding: 119861 119861 84
Width: 653
Flags: W
LayerCount: 2
Fore
SplineSet
-50 0 m 1,0,-1
 -45 20 l 1,1,-1
 -40 20 l 2,2,3
 7 20 7 20 28.5 39.5 c 128,-1,4
 50 59 50 59 63 108 c 2,5,-1
 187 573 l 2,6,7
 196 605 196 605 196 625 c 0,8,9
 196 650 196 650 178.5 660 c 128,-1,10
 161 670 161 670 121 672 c 1,11,-1
 126 692 l 1,12,-1
 381 692 l 2,13,14
 611 692 611 692 611 543 c 0,15,16
 611 422 611 422 442 374 c 1,17,18
 560 334 560 334 560 216 c 0,19,20
 560 150 560 150 522 101.5 c 128,-1,21
 484 53 484 53 415.5 26.5 c 128,-1,22
 347 0 347 0 255 0 c 2,23,-1
 -50 0 l 1,0,-1
287 385 m 0,24,25
 396 385 396 385 451 428 c 128,-1,26
 506 471 506 471 506 549 c 0,27,28
 506 658 506 658 379 658 c 0,29,30
 347 658 347 658 332.5 654.5 c 128,-1,31
 318 651 318 651 312 641 c 128,-1,32
 306 631 306 631 299 611 c 0,33,34
 294 596 294 596 280 543.5 c 128,-1,35
 266 491 266 491 243 401 c 0,36,37
 243 391 243 391 253 388 c 0,38,39
 262 385 262 385 287 385 c 0,24,25
228 31 m 0,40,41
 335 31 335 31 391.5 83 c 128,-1,42
 448 135 448 135 448 226 c 0,43,44
 448 292 448 292 408.5 322.5 c 128,-1,45
 369 353 369 353 289 353 c 0,46,47
 258 353 258 353 243 350.5 c 128,-1,48
 228 348 228 348 223 331 c 2,49,-1
 163 108 l 2,50,51
 161 98 161 98 158.5 86 c 128,-1,52
 156 74 156 74 156 66 c 0,53,54
 156 44 156 44 173 37.5 c 128,-1,55
 190 31 190 31 228 31 c 0,40,41
EndSplineSet
EndChar

StartChar: u1D402
Encoding: 119810 119810 86
Width: 697
Flags: W
LayerCount: 2
Fore
SplineSet
382 -16 m 0,0,1
 282 -16 282 -16 204.5 29.5 c 128,-1,2
 127 75 127 75 83 155.5 c 128,-1,3
 39 236 39 236 39 340 c 0,4,5
 39 443 39 443 83.5 522.5 c 128,-1,6
 128 602 128 602 206.5 647.5 c 128,-1,7
 285 693 285 693 386 693 c 0,8,9
 454 693 454 693 547 655 c 0,10,11
 562 648 562 648 577 648 c 0,12,13
 614 648 614 648 624 693 c 1,14,-1
 650 693 l 1,15,-1
 650 459 l 1,16,-1
 625 459 l 1,17,18
 591 552 591 552 530.5 606 c 128,-1,19
 470 660 470 660 395 660 c 0,20,21
 214 660 214 660 214 337 c 0,22,23
 214 35 214 35 414 35 c 0,24,25
 474 35 474 35 533 66.5 c 128,-1,26
 592 98 592 98 638 158 c 1,27,-1
 666 132 l 1,28,29
 563 -16 563 -16 382 -16 c 0,0,1
EndSplineSet
EndChar

StartChar: u1D46A
Encoding: 119914 119914 87
Width: 655
Flags: W
LayerCount: 2
Fore
SplineSet
301 -17 m 0,0,1
 216 -17 216 -17 155.5 15 c 128,-1,2
 95 47 95 47 62.5 106 c 128,-1,3
 30 165 30 165 30 245 c 0,4,5
 30 319 30 319 54.5 390.5 c 128,-1,6
 79 462 79 462 124 523.5 c 128,-1,7
 169 585 169 585 229 626 c 0,8,9
 322 689 322 689 427 689 c 0,10,11
 492 689 492 689 573 667 c 0,12,13
 580 666 580 666 591 663.5 c 128,-1,14
 602 661 602 661 606 661 c 0,15,16
 629 661 629 661 642 689 c 1,17,-1
 669 689 l 1,18,-1
 626 459 l 1,19,-1
 597 461 l 1,20,21
 597 556 597 556 561.5 605 c 128,-1,22
 526 654 526 654 460 654 c 0,23,24
 390 654 390 654 330 597 c 128,-1,25
 270 540 270 540 226 427 c 0,26,27
 182 313 182 313 182 212 c 0,28,29
 182 127 182 127 225 78.5 c 128,-1,30
 268 30 268 30 341 30 c 0,31,32
 460 30 460 30 548 157 c 1,33,-1
 576 135 l 1,34,35
 471 -17 471 -17 301 -17 c 0,0,1
EndSplineSet
EndChar

StartChar: u1D4D2
Encoding: 120018 120018 88
Width: 697
Flags: W
LayerCount: 2
Fore
SplineSet
442 -6 m 0,0,1
 383 -6 383 -6 337 15.5 c 128,-1,2
 291 37 291 37 264.5 74.5 c 128,-1,3
 238 112 238 112 238 160 c 0,4,5
 238 193 238 193 255 239 c 1,6,7
 134 259 134 259 134 373 c 0,8,9
 134 435 134 435 180 493.5 c 128,-1,10
 226 552 226 552 304 589 c 0,11,12
 381 626 381 626 465 626 c 0,13,14
 524 626 524 626 524 610 c 0,15,16
 524 597 524 597 492 597 c 0,17,18
 437 597 437 597 384.5 572 c 128,-1,19
 332 547 332 547 290 508 c 128,-1,20
 248 469 248 469 223 425 c 128,-1,21
 198 381 198 381 198 342 c 0,22,23
 198 273 198 273 266 262 c 1,24,25
 292 314 292 314 334.5 365.5 c 128,-1,26
 377 417 377 417 428 463.5 c 128,-1,27
 479 510 479 510 532.5 546 c 128,-1,28
 586 582 586 582 637 602.5 c 128,-1,29
 688 623 688 623 728 623 c 0,30,31
 773 623 773 623 797.5 603.5 c 128,-1,32
 822 584 822 584 822 549 c 0,33,34
 822 521 822 521 799.5 486 c 128,-1,35
 777 451 777 451 738 413.5 c 128,-1,36
 699 376 699 376 647 342.5 c 128,-1,37
 595 309 595 309 535 284 c 128,-1,38
 475 259 475 259 412 249 c 1,39,40
 360 160 360 160 360 105 c 0,41,42
 360 20 360 20 444 20 c 0,43,44
 483 20 483 20 520 33.5 c 128,-1,45
 557 47 557 47 587.5 69 c 128,-1,46
 618 91 618 91 636 118 c 128,-1,47
 654 145 654 145 654 171 c 0,48,49
 654 206 654 206 635.5 221.5 c 128,-1,50
 617 237 617 237 591 237 c 0,51,52
 563 237 563 237 538.5 221.5 c 128,-1,53
 514 206 514 206 500 182 c 0,54,55
 493 170 493 170 489 155.5 c 128,-1,56
 485 141 485 141 483 125 c 0,57,58
 479 91 479 91 466 91 c 0,59,60
 456 91 456 91 447.5 101 c 128,-1,61
 439 111 439 111 439 131 c 0,62,63
 439 170 439 170 459 199.5 c 128,-1,64
 479 229 479 229 512.5 246 c 128,-1,65
 546 263 546 263 588 263 c 0,66,67
 632 263 632 263 657.5 239 c 128,-1,68
 683 215 683 215 683 173 c 0,69,70
 683 138 683 138 661.5 105.5 c 128,-1,71
 640 73 640 73 604.5 48 c 128,-1,72
 569 23 569 23 526.5 8.5 c 128,-1,73
 484 -6 484 -6 442 -6 c 0,0,1
430 277 m 1,74,75
 473 285 473 285 519 309.5 c 128,-1,76
 565 334 565 334 607.5 367.5 c 128,-1,77
 650 401 650 401 684 438.5 c 128,-1,78
 718 476 718 476 738 511.5 c 128,-1,79
 758 547 758 547 758 574 c 0,80,81
 758 600 758 600 735 600 c 0,82,83
 695 600 695 600 605 508 c 0,84,85
 516 416 516 416 430 277 c 1,74,75
EndSplineSet
EndChar

StartChar: u1D436
Encoding: 119862 119862 89
Width: 701
Flags: W
LayerCount: 2
Fore
SplineSet
325 -15 m 256,0,1
 238 -15 238 -15 173.5 19 c 128,-1,2
 109 53 109 53 73.5 116.5 c 128,-1,3
 38 180 38 180 38 266 c 0,4,5
 38 339 38 339 68.5 410.5 c 128,-1,6
 99 482 99 482 151.5 543 c 128,-1,7
 204 604 204 604 270 645 c 0,8,9
 371 707 371 707 478 707 c 0,10,11
 536 707 536 707 613 681 c 0,12,13
 629 675 629 675 641 675 c 0,14,15
 662 675 662 675 675 700 c 1,16,-1
 695 700 l 1,17,-1
 654 495 l 1,18,-1
 633 495 l 1,19,20
 634 503 634 503 634 511 c 128,-1,21
 634 519 634 519 634 526 c 0,22,23
 633 597 633 597 596 635.5 c 128,-1,24
 559 674 559 674 488 674 c 0,25,26
 426 674 426 674 366.5 641 c 128,-1,27
 307 608 307 608 259.5 550.5 c 128,-1,28
 212 493 212 493 184 418 c 128,-1,29
 156 343 156 343 156 260 c 0,30,31
 156 151 156 151 209 89.5 c 128,-1,32
 262 28 262 28 352 28 c 0,33,34
 485 28 485 28 594 153 c 1,35,-1
 613 136 l 1,36,37
 551 59 551 59 481.5 22 c 128,-1,38
 412 -15 412 -15 325 -15 c 256,0,1
EndSplineSet
EndChar

StartChar: u1D49E
Encoding: 119966 119966 90
Width: 685
Flags: W
LayerCount: 2
Fore
SplineSet
433 -6 m 0,0,1
 375 -6 375 -6 331.5 16 c 128,-1,2
 288 38 288 38 264 75.5 c 128,-1,3
 240 113 240 113 240 158 c 0,4,5
 240 191 240 191 258 242 c 1,6,7
 198 248 198 248 166 282.5 c 128,-1,8
 134 317 134 317 134 374 c 0,9,10
 134 436 134 436 179.5 494.5 c 128,-1,11
 225 553 225 553 300 590 c 0,12,13
 375 626 375 626 456 626 c 0,14,15
 502 626 502 626 502 615 c 0,16,17
 502 607 502 607 479 607 c 0,18,19
 409 607 409 607 339.5 566 c 128,-1,20
 270 525 270 525 220 459 c 0,21,22
 171 395 171 395 171 342 c 0,23,24
 171 264 171 264 264 255 c 1,25,26
 292 309 292 309 335 362 c 128,-1,27
 378 415 378 415 429.5 462 c 128,-1,28
 481 509 481 509 534.5 545.5 c 128,-1,29
 588 582 588 582 637 602.5 c 128,-1,30
 686 623 686 623 724 623 c 0,31,32
 763 623 763 623 784 604.5 c 128,-1,33
 805 586 805 586 805 553 c 0,34,35
 805 524 805 524 782.5 488 c 128,-1,36
 760 452 760 452 720 414.5 c 128,-1,37
 680 377 680 377 627.5 343.5 c 128,-1,38
 575 310 575 310 514.5 285.5 c 128,-1,39
 454 261 454 261 392 252 c 1,40,41
 336 161 336 161 336 100 c 0,42,43
 336 8 336 8 435 8 c 0,44,45
 472 8 472 8 510.5 22 c 128,-1,46
 549 36 549 36 582 60 c 128,-1,47
 615 84 615 84 635 115 c 128,-1,48
 655 146 655 146 655 180 c 0,49,50
 655 211 655 211 636.5 229 c 128,-1,51
 618 247 618 247 591 247 c 0,52,53
 553 247 553 247 525.5 222.5 c 128,-1,54
 498 198 498 198 483 158 c 0,55,56
 476 138 476 138 471.5 125 c 128,-1,57
 467 112 467 112 466 106 c 0,58,59
 466 94 466 94 456 94 c 0,60,61
 447 94 447 94 447 112 c 0,62,63
 447 155 447 155 464.5 189 c 128,-1,64
 482 223 482 223 512.5 243 c 128,-1,65
 543 263 543 263 581 263 c 0,66,67
 623 263 623 263 647 240.5 c 128,-1,68
 671 218 671 218 671 177 c 0,69,70
 671 135 671 135 637 91 c 128,-1,71
 603 47 603 47 547 21 c 0,72,73
 520 8 520 8 491.5 1 c 128,-1,74
 463 -6 463 -6 433 -6 c 0,0,1
402 268 m 1,75,76
 467 277 467 277 530 309.5 c 128,-1,77
 593 342 593 342 654 400 c 0,78,79
 716 459 716 459 742 504 c 0,80,81
 768 550 768 550 768 572 c 0,82,83
 768 610 768 610 731 610 c 0,84,85
 689 610 689 610 592 515 c 0,86,87
 544 468 544 468 496.5 406.5 c 128,-1,88
 449 345 449 345 402 268 c 1,75,76
EndSplineSet
EndChar

StartChar: u1D507
Encoding: 120071 120071 91
Width: 808
Flags: W
LayerCount: 2
Fore
SplineSet
458 -23 m 0,0,1
 410 -23 410 -23 337 26 c 2,2,-1
 230 99 l 2,3,4
 189 127 189 127 156 127 c 0,5,6
 121 127 121 127 75 92 c 1,7,-1
 63 106 l 1,8,9
 143 186 143 186 213 188 c 0,10,11
 230 188 230 188 245 185 c 1,12,13
 337 223 337 223 337 257 c 0,14,15
 337 268 337 268 325.5 294 c 128,-1,16
 314 320 314 320 288 357 c 2,17,-1
 261 396 l 2,18,19
 239 428 239 428 228 449 c 128,-1,20
 217 470 217 470 217 484 c 0,21,22
 217 514 217 514 247 541.5 c 128,-1,23
 277 569 277 569 331 589 c 128,-1,24
 385 609 385 609 456 616 c 1,25,26
 339 678 339 678 229 678 c 0,27,28
 175 678 175 678 134 656 c 128,-1,29
 93 634 93 634 70 595.5 c 128,-1,30
 47 557 47 557 47 507 c 0,31,32
 47 413 47 413 138 379 c 1,33,-1
 130 358 l 1,34,35
 24 398 24 398 24 513 c 0,36,37
 24 582 24 582 57.5 636 c 128,-1,38
 91 690 91 690 149.5 721.5 c 128,-1,39
 208 753 208 753 283 753 c 0,40,41
 364 753 364 753 439.5 725 c 128,-1,42
 515 697 515 697 579 644.5 c 128,-1,43
 643 592 643 592 688 518 c 0,44,45
 757 407 757 407 757 292 c 0,46,47
 757 198 757 198 714.5 129.5 c 128,-1,48
 672 61 672 61 593 19 c 0,49,50
 515 -23 515 -23 458 -23 c 0,0,1
527 40 m 0,51,52
 578 40 578 40 620 66 c 128,-1,53
 662 92 662 92 687.5 135 c 128,-1,54
 713 178 713 178 713 229 c 0,55,56
 713 326 713 326 656 423 c 128,-1,57
 599 520 599 520 486 597 c 1,58,59
 406 593 406 593 352 567 c 0,60,61
 299 542 299 542 299 513 c 0,62,63
 299 494 299 494 318 466 c 2,64,-1
 367 392 l 2,65,66
 422 310 422 310 422 278 c 0,67,68
 422 247 422 247 338 204 c 2,69,-1
 274 171 l 1,70,71
 292 161 292 161 309.5 150 c 128,-1,72
 327 139 327 139 345 126 c 0,73,74
 365 112 365 112 381 101 c 128,-1,75
 397 90 397 90 410 81 c 0,76,77
 443 60 443 60 469 50 c 128,-1,78
 495 40 495 40 527 40 c 0,51,52
EndSplineSet
EndChar

StartChar: u1D403
Encoding: 119811 119811 92
Width: 738
Flags: W
LayerCount: 2
Fore
SplineSet
30 0 m 1,0,-1
 30 26 l 1,1,2
 77 28 77 28 93.5 44 c 128,-1,3
 110 60 110 60 110 111 c 2,4,-1
 110 557 l 2,5,6
 110 616 110 616 90.5 634.5 c 128,-1,7
 71 653 71 653 22 653 c 1,8,-1
 22 678 l 1,9,-1
 330 678 l 2,10,11
 510 678 510 678 603.5 590 c 128,-1,12
 697 502 697 502 697 339 c 0,13,14
 697 0 697 0 340 0 c 2,15,-1
 30 0 l 1,0,-1
331 36 m 0,16,17
 429 36 429 36 475.5 111.5 c 128,-1,18
 522 187 522 187 522 341 c 0,19,20
 522 645 522 645 332 645 c 0,21,22
 294 645 294 645 282.5 630.5 c 128,-1,23
 271 616 271 616 271 573 c 2,24,-1
 271 107 l 2,25,26
 271 65 271 65 282.5 50.5 c 128,-1,27
 294 36 294 36 331 36 c 0,16,17
EndSplineSet
EndChar

StartChar: u1D46B
Encoding: 119915 119915 93
Width: 720
Flags: W
LayerCount: 2
Fore
SplineSet
-50 0 m 1,0,-1
 -50 23 l 1,1,2
 -19 23 -19 23 0.5 30.5 c 128,-1,3
 20 38 20 38 33 60.5 c 128,-1,4
 46 83 46 83 58 127 c 2,5,-1
 171 549 l 2,6,7
 179 578 179 578 179 597 c 0,8,9
 179 624 179 624 163 634 c 128,-1,10
 147 644 147 644 109 647 c 1,11,-1
 109 671 l 1,12,-1
 376 671 l 2,13,14
 691 671 691 671 691 392 c 0,15,16
 691 311 691 311 658.5 237 c 128,-1,17
 626 163 626 163 563 106 c 0,18,19
 521 68 521 68 476 44.5 c 128,-1,20
 431 21 431 21 372.5 10.5 c 128,-1,21
 314 0 314 0 231 0 c 2,22,-1
 -50 0 l 1,0,-1
252 31 m 0,23,24
 318 31 318 31 372 64.5 c 128,-1,25
 426 98 426 98 464.5 156 c 128,-1,26
 503 214 503 214 524 288.5 c 128,-1,27
 545 363 545 363 545 444 c 0,28,29
 545 641 545 641 390 641 c 0,30,31
 356 641 356 641 343.5 628 c 128,-1,32
 331 615 331 615 323 586 c 2,33,-1
 198 116 l 2,34,35
 196 107 196 107 193.5 92.5 c 128,-1,36
 191 78 191 78 191 73 c 0,37,38
 191 50 191 50 204.5 40.5 c 128,-1,39
 218 31 218 31 252 31 c 0,23,24
EndSplineSet
EndChar

StartChar: u1D4D3
Encoding: 120019 120019 94
Width: 750
Flags: W
LayerCount: 2
Fore
SplineSet
228 -7 m 0,0,1
 160 -7 160 -7 130 11 c 256,2,3
 100 29 100 29 100 55 c 0,4,5
 100 78 100 78 120.5 93 c 128,-1,6
 141 108 141 108 184 108 c 0,7,8
 251 108 251 108 341 77 c 1,9,10
 382 118 382 118 440 233 c 2,11,-1
 484 320 l 2,12,13
 519 388 519 388 563.5 443.5 c 128,-1,14
 608 499 608 499 660 541 c 1,15,16
 599 599 599 599 486 599 c 0,17,18
 413 599 413 599 344.5 558.5 c 128,-1,19
 276 518 276 518 229 443 c 0,20,21
 182 367 182 367 182 306 c 0,22,23
 182 274 182 274 201 253 c 128,-1,24
 220 232 220 232 252 232 c 0,25,26
 282 232 282 232 314 248.5 c 128,-1,27
 346 265 346 265 375 294 c 128,-1,28
 404 323 404 323 424 360 c 0,29,30
 454 414 454 414 454 469 c 0,31,32
 454 473 454 473 453.5 477 c 128,-1,33
 453 481 453 481 453 485 c 0,34,35
 453 507 453 507 468 507 c 0,36,37
 486 507 486 507 486 483 c 0,38,39
 486 413 486 413 453 347.5 c 128,-1,40
 420 282 420 282 365 244 c 256,41,42
 310 206 310 206 249 206 c 0,43,44
 206 206 206 206 171.5 224.5 c 128,-1,45
 137 243 137 243 116.5 274.5 c 128,-1,46
 96 306 96 306 96 346 c 0,47,48
 96 393 96 393 123.5 439.5 c 128,-1,49
 151 486 151 486 198 525 c 128,-1,50
 245 564 245 564 302 588 c 0,51,52
 345 606 345 606 389 615.5 c 128,-1,53
 433 625 433 625 478 625 c 0,54,55
 611 625 611 625 688 558 c 1,56,57
 724 582 724 582 749 582 c 0,58,59
 756 582 756 582 762 579 c 128,-1,60
 768 576 768 576 768 573 c 0,61,62
 768 569 768 569 742 553 c 2,63,-1
 711 534 l 1,64,65
 774 464 774 464 774 351 c 0,66,67
 774 293 774 293 756.5 234 c 128,-1,68
 739 175 739 175 706.5 125 c 128,-1,69
 674 75 674 75 629 43 c 0,70,71
 562 -4 562 -4 489 -4 c 0,72,73
 423 -4 423 -4 367 23 c 1,74,75
 298 -7 298 -7 228 -7 c 0,0,1
499 30 m 0,76,77
 563 30 563 30 618 72 c 128,-1,78
 673 114 673 114 706 194 c 0,79,80
 739 275 739 275 739 349 c 0,81,82
 739 463 739 463 689 511 c 1,83,84
 656 462 656 462 624 339 c 0,85,86
 603 256 603 256 576 203 c 128,-1,87
 549 150 549 150 512.5 114.5 c 128,-1,88
 476 79 476 79 426 50 c 1,89,90
 468 30 468 30 499 30 c 0,76,77
220 19 m 0,91,92
 274 19 274 19 315 50 c 1,93,94
 241 84 241 84 193 84 c 0,95,96
 133 84 133 84 133 55 c 0,97,98
 133 42 133 42 146.5 34 c 128,-1,99
 160 26 160 26 180.5 22.5 c 128,-1,100
 201 19 201 19 220 19 c 0,91,92
EndSplineSet
EndChar

StartChar: u1D53B
Encoding: 120123 120123 95
Width: 732
Flags: W
LayerCount: 2
Fore
SplineSet
77 0 m 1,0,-1
 77 714 l 1,1,-1
 330 714 l 2,2,3
 441 714 441 714 519.5 671.5 c 128,-1,4
 598 629 598 629 640 548.5 c 128,-1,5
 682 468 682 468 682 355 c 0,6,7
 682 185 682 185 593 92.5 c 128,-1,8
 504 0 504 0 338 0 c 2,9,-1
 77 0 l 1,0,-1
130 53 m 1,10,-1
 197 53 l 1,11,-1
 197 661 l 1,12,-1
 130 661 l 1,13,-1
 130 53 l 1,10,-1
250 53 m 1,14,-1
 334 53 l 2,15,16
 430 53 430 53 485 83 c 1,17,-1
 485 626 l 1,18,19
 429 661 429 661 334 661 c 2,20,-1
 250 661 l 1,21,-1
 250 53 l 1,14,-1
538 112 m 1,22,23
 591 163 591 163 610 223 c 128,-1,24
 629 283 629 283 629 356 c 0,25,26
 629 430 629 430 609 489 c 128,-1,27
 589 548 589 548 538 602 c 1,28,-1
 538 112 l 1,22,23
EndSplineSet
EndChar

StartChar: uni2B3F
Encoding: 11071 11071 96
Width: 854
Flags: W
LayerCount: 2
Fore
SplineSet
719 418 m 2,0,-1
 803 333 l 1,1,-1
 764 296 l 1,2,-1
 678 383 l 2,3,4
 650 411 650 411 633.5 420 c 128,-1,5
 617 429 617 429 596 429 c 0,6,7
 579 429 579 429 561 421 c 128,-1,8
 543 413 543 413 506 383 c 0,9,10
 472 355 472 355 447 341 c 128,-1,11
 422 327 422 327 396.5 322.5 c 128,-1,12
 371 318 371 318 334 318 c 2,13,-1
 189 318 l 1,14,15
 207 298 207 298 225 267.5 c 128,-1,16
 243 237 243 237 262 197 c 1,17,-1
 218 197 l 1,18,19
 138 290 138 290 51 334 c 1,20,-1
 51 356 l 1,21,22
 138 400 138 400 218 493 c 1,23,-1
 262 493 l 1,24,25
 243 453 243 453 225 422.5 c 128,-1,26
 207 392 207 392 189 372 c 1,27,-1
 338 372 l 2,28,29
 368 372 368 372 388 375.5 c 128,-1,30
 408 379 408 379 425.5 389 c 128,-1,31
 443 399 443 399 466 418 c 0,32,33
 504 450 504 450 531.5 466.5 c 128,-1,34
 559 483 559 483 596 483 c 0,35,36
 629 483 629 483 657 468 c 128,-1,37
 685 453 685 453 719 418 c 2,0,-1
EndSplineSet
EndChar

StartChar: u1D437
Encoding: 119863 119863 97
Width: 755
Flags: W
LayerCount: 2
Fore
SplineSet
-53 0 m 1,0,-1
 -47 20 l 1,1,-1
 -42 20 l 2,2,3
 5 20 5 20 26.5 38 c 128,-1,4
 48 56 48 56 62 108 c 2,5,-1
 187 573 l 2,6,7
 196 608 196 608 196 624 c 0,8,9
 196 649 196 649 178 659.5 c 128,-1,10
 160 670 160 670 120 672 c 1,11,-1
 126 692 l 1,12,-1
 391 692 l 2,13,14
 491 692 491 692 563 657.5 c 128,-1,15
 635 623 635 623 674 558.5 c 128,-1,16
 713 494 713 494 713 405 c 0,17,18
 713 324 713 324 680 251 c 128,-1,19
 647 178 647 178 585.5 121.5 c 128,-1,20
 524 65 524 65 438.5 32.5 c 128,-1,21
 353 0 353 0 248 0 c 2,22,-1
 -53 0 l 1,0,-1
253 33 m 0,23,24
 338 33 338 33 402 65.5 c 128,-1,25
 466 98 466 98 509.5 154 c 128,-1,26
 553 210 553 210 575 281 c 128,-1,27
 597 352 597 352 597 428 c 0,28,29
 597 541 597 541 541.5 600 c 128,-1,30
 486 659 486 659 378 659 c 0,31,32
 346 659 346 659 330 653.5 c 128,-1,33
 314 648 314 648 305.5 630 c 128,-1,34
 297 612 297 612 287 576 c 2,35,-1
 168 133 l 2,36,37
 156 90 156 90 156 73 c 0,38,39
 156 50 156 50 179 42 c 0,40,41
 190 38 190 38 209 35.5 c 128,-1,42
 228 33 228 33 253 33 c 0,23,24
EndSplineSet
EndChar

StartChar: u1D49F
Encoding: 119967 119967 98
Width: 743
Flags: W
LayerCount: 2
Fore
SplineSet
221 -7 m 0,0,1
 160 -7 160 -7 128 10 c 256,2,3
 96 27 96 27 96 51 c 0,4,5
 96 72 96 72 120 86 c 128,-1,6
 144 100 144 100 192 100 c 0,7,8
 243 100 243 100 342 65 c 1,9,10
 370 94 370 94 399 137.5 c 128,-1,11
 428 181 428 181 456 241 c 0,12,13
 495 321 495 321 529.5 376.5 c 128,-1,14
 564 432 564 432 598 470.5 c 128,-1,15
 632 509 632 509 668 537 c 1,16,17
 601 609 601 609 483 609 c 0,18,19
 401 609 401 609 330 568 c 128,-1,20
 259 527 259 527 209 447 c 0,21,22
 160 367 160 367 160 306 c 0,23,24
 160 271 160 271 183 248.5 c 128,-1,25
 206 226 206 226 245 226 c 256,26,27
 284 226 284 226 321.5 247 c 128,-1,28
 359 268 359 268 388 303 c 256,29,30
 417 338 417 338 435 382.5 c 128,-1,31
 453 427 453 427 453 474 c 0,32,33
 453 477 453 477 452.5 479.5 c 128,-1,34
 452 482 452 482 452 485 c 0,35,36
 452 505 452 505 460 505 c 0,37,38
 470 505 470 505 470 486 c 0,39,40
 470 416 470 416 437 350.5 c 128,-1,41
 404 285 404 285 351 247 c 0,42,43
 296 209 296 209 242 209 c 0,44,45
 203 209 203 209 171 227 c 128,-1,46
 139 245 139 245 120 276.5 c 128,-1,47
 101 308 101 308 101 347 c 0,48,49
 101 394 101 394 127.5 438.5 c 128,-1,50
 154 483 154 483 200 521 c 128,-1,51
 246 559 246 559 304 585 c 0,52,53
 390 625 390 625 475 625 c 0,54,55
 604 625 604 625 683 549 c 1,56,57
 733 581 733 581 750 581 c 0,58,59
 756 581 756 581 756 577 c 0,60,61
 756 572 756 572 733 561 c 0,62,63
 709 549 709 549 696 536 c 1,64,65
 764 453 764 453 764 352 c 0,66,67
 764 294 764 294 745.5 235 c 128,-1,68
 727 176 727 176 694 126 c 128,-1,69
 661 76 661 76 619 44 c 0,70,71
 555 -4 555 -4 486 -4 c 0,72,73
 428 -4 428 -4 362 26 c 1,74,75
 290 -7 290 -7 221 -7 c 0,0,1
496 20 m 0,76,77
 563 20 563 20 618.5 67 c 128,-1,78
 674 114 674 114 708 193 c 0,79,80
 725 233 725 233 733 272.5 c 128,-1,81
 741 312 741 312 741 350 c 0,82,83
 741 444 741 444 684 523 c 1,84,85
 646 474 646 474 613 348 c 0,86,87
 591 263 591 263 562 206 c 128,-1,88
 533 149 533 149 495.5 112 c 128,-1,89
 458 75 458 75 408 46 c 1,90,91
 463 20 463 20 496 20 c 0,76,77
213 9 m 0,92,93
 277 9 277 9 323 46 c 1,94,95
 249 84 249 84 178 84 c 0,96,97
 116 84 116 84 116 51 c 0,98,99
 116 37 116 37 142 22 c 0,100,101
 155 15 155 15 173 12 c 128,-1,102
 191 9 191 9 213 9 c 0,92,93
EndSplineSet
EndChar

StartChar: u1D508
Encoding: 120072 120072 99
Width: 644
Flags: W
LayerCount: 2
Fore
SplineSet
348 138 m 0,0,1
 259 138 259 138 226 239 c 1,2,-1
 249 247 l 1,3,4
 246 257 246 257 243 268 c 1,5,-1
 268 254 l 1,6,-1
 249 247 l 1,7,8
 262 207 262 207 286.5 184 c 128,-1,9
 311 161 311 161 348 161 c 0,10,11
 389 161 389 161 408.5 185.5 c 128,-1,12
 428 210 428 210 428 243 c 0,13,14
 428 275 428 275 408.5 318 c 128,-1,15
 389 361 389 361 345 418 c 0,16,17
 312 460 312 460 296 482 c 128,-1,18
 280 504 280 504 274.5 514.5 c 128,-1,19
 269 525 269 525 269 531 c 0,20,21
 269 539 269 539 275 550 c 128,-1,22
 281 561 281 561 295 579 c 0,23,24
 303 589 303 589 316 604.5 c 128,-1,25
 329 620 329 620 343 636 c 1,26,27
 333 668 333 668 309.5 685.5 c 128,-1,28
 286 703 286 703 256 703 c 0,29,30
 197 703 197 703 157.5 634.5 c 128,-1,31
 118 566 118 566 118 436 c 0,32,33
 118 259 118 259 195.5 163 c 128,-1,34
 273 67 273 67 412 67 c 0,35,36
 465 67 465 67 513.5 80 c 128,-1,37
 562 93 562 93 605 120 c 1,38,-1
 618 103 l 1,39,-1
 470 -19 l 1,40,41
 456 -21 456 -21 436.5 -22.5 c 128,-1,42
 417 -24 417 -24 394 -24 c 0,43,44
 288 -24 288 -24 209.5 26.5 c 128,-1,45
 131 77 131 77 88.5 170.5 c 128,-1,46
 46 264 46 264 46 392 c 0,47,48
 46 494 46 494 71.5 569 c 128,-1,49
 97 644 97 644 143.5 685 c 128,-1,50
 190 726 190 726 254 726 c 0,51,52
 290 726 290 726 320 706.5 c 128,-1,53
 350 687 350 687 359 655 c 1,54,55
 371 668 371 668 381 679.5 c 128,-1,56
 391 691 391 691 397 698 c 0,57,58
 411 714 411 714 418.5 720 c 128,-1,59
 426 726 426 726 431 726 c 0,60,61
 435 726 435 726 446.5 722.5 c 128,-1,62
 458 719 458 719 470 715 c 128,-1,63
 482 711 482 711 486 709 c 0,64,65
 505 703 505 703 519 697.5 c 128,-1,66
 533 692 533 692 548 692 c 0,67,68
 565 692 565 692 581 714 c 1,69,-1
 598 704 l 1,70,71
 585 684 585 684 575.5 665 c 128,-1,72
 566 646 566 646 558 632 c 0,73,74
 551 620 551 620 545 615.5 c 128,-1,75
 539 611 539 611 532 611 c 0,76,77
 524 611 524 611 503 618 c 128,-1,78
 482 625 482 625 453 638 c 0,79,80
 419 653 419 653 403 653 c 0,81,82
 384 653 384 653 363 626 c 0,83,84
 349 608 349 608 345 598.5 c 128,-1,85
 341 589 341 589 341 579 c 0,86,87
 341 573 341 573 346.5 561.5 c 128,-1,88
 352 550 352 550 367 528 c 128,-1,89
 382 506 382 506 410 467 c 0,90,91
 423 450 423 450 433 435 c 1,92,-1
 458 455 l 2,93,94
 482 475 482 475 494 489.5 c 128,-1,95
 506 504 506 504 513 520 c 1,96,-1
 532 520 l 1,97,98
 545 500 545 500 558.5 486.5 c 128,-1,99
 572 473 572 473 600 463 c 1,100,-1
 600 444 l 1,101,102
 568 422 568 422 553 391 c 1,103,-1
 534 391 l 1,104,105
 524 408 524 408 512.5 418.5 c 128,-1,106
 501 429 501 429 476 441 c 1,107,-1
 446 417 l 1,108,109
 472 379 472 379 483.5 359 c 128,-1,110
 495 339 495 339 495 332 c 0,111,112
 495 328 495 328 492 321.5 c 128,-1,113
 489 315 489 315 480 304 c 0,114,115
 468 289 468 289 463 276 c 128,-1,116
 458 263 458 263 456 243 c 0,117,118
 453 220 453 220 446 201 c 128,-1,119
 439 182 439 182 425 168 c 0,120,121
 395 138 395 138 348 138 c 0,0,1
219 263 m 1,122,123
 222 250 222 250 226 239 c 1,124,-1
 205 231 l 1,125,-1
 219 263 l 1,122,123
EndSplineSet
EndChar

StartChar: u1D404
Encoding: 119812 119812 100
Width: 658
Flags: W
LayerCount: 2
Fore
SplineSet
21 0 m 1,0,-1
 21 25 l 1,1,2
 74 25 74 25 93 44 c 128,-1,3
 112 63 112 63 112 116 c 2,4,-1
 112 549 l 2,5,6
 112 614 112 614 92.5 633.5 c 128,-1,7
 73 653 73 653 24 653 c 1,8,-1
 24 678 l 1,9,-1
 594 678 l 1,10,-1
 594 476 l 1,11,-1
 571 476 l 1,12,13
 559 569 559 569 506.5 605 c 128,-1,14
 454 641 454 641 345 641 c 0,15,16
 313 641 313 641 297.5 637.5 c 128,-1,17
 282 634 282 634 277 620.5 c 128,-1,18
 272 607 272 607 272 578 c 2,19,-1
 272 366 l 1,20,-1
 288 366 l 2,21,22
 355 366 355 366 386 400.5 c 128,-1,23
 417 435 417 435 429 514 c 1,24,-1
 453 514 l 1,25,-1
 453 176 l 1,26,-1
 428 176 l 1,27,28
 423 236 423 236 406.5 270 c 128,-1,29
 390 304 390 304 358.5 317.5 c 128,-1,30
 327 331 327 331 276 331 c 2,31,-1
 272 331 l 1,32,-1
 272 100 l 2,33,34
 272 63 272 63 286 52 c 128,-1,35
 300 41 300 41 343 41 c 0,36,37
 416 41 416 41 466.5 57.5 c 128,-1,38
 517 74 517 74 552 111.5 c 128,-1,39
 587 149 587 149 612 213 c 1,40,-1
 640 213 l 1,41,-1
 599 0 l 1,42,-1
 21 0 l 1,0,-1
EndSplineSet
EndChar

StartChar: u1D46C
Encoding: 119916 119916 101
Width: 656
Flags: W
LayerCount: 2
Fore
SplineSet
-50 0 m 1,0,-1
 -50 23 l 1,1,2
 -19 23 -19 23 0.5 30.5 c 128,-1,3
 20 38 20 38 33 60.5 c 128,-1,4
 46 83 46 83 58 127 c 2,5,-1
 171 549 l 2,6,7
 175 564 175 564 177 576 c 128,-1,8
 179 588 179 588 179 597 c 0,9,10
 179 624 179 624 163 634 c 128,-1,11
 147 644 147 644 109 647 c 1,12,-1
 109 671 l 1,13,-1
 643 671 l 1,14,-1
 606 483 l 1,15,-1
 578 483 l 1,16,-1
 578 492 l 2,17,18
 578 572 578 572 535.5 605.5 c 128,-1,19
 493 639 493 639 401 639 c 0,20,21
 374 639 374 639 360.5 635.5 c 128,-1,22
 347 632 347 632 340.5 622 c 128,-1,23
 334 612 334 612 328 592 c 2,24,-1
 270 373 l 1,25,-1
 298 373 l 2,26,27
 351 373 351 373 383 383 c 128,-1,28
 415 393 415 393 436.5 416.5 c 128,-1,29
 458 440 458 440 476 479 c 1,30,-1
 501 479 l 1,31,-1
 430 203 l 1,32,-1
 408 203 l 1,33,34
 409 213 409 213 409 222.5 c 128,-1,35
 409 232 409 232 409 242 c 0,36,37
 409 296 409 296 381 317.5 c 128,-1,38
 353 339 353 339 289 339 c 0,39,40
 282 339 282 339 275 339 c 128,-1,41
 268 339 268 339 261 338 c 1,42,-1
 199 109 l 2,43,44
 197 99 197 99 193.5 84 c 128,-1,45
 190 69 190 69 190 65 c 0,46,47
 190 49 190 49 204 41 c 0,48,49
 217 34 217 34 257 34 c 0,50,51
 329 34 329 34 381 49.5 c 128,-1,52
 433 65 433 65 474.5 102 c 128,-1,53
 516 139 516 139 554 203 c 1,54,-1
 579 203 l 1,55,-1
 521 0 l 1,56,-1
 -50 0 l 1,0,-1
EndSplineSet
EndChar

StartChar: u1D4D4
Encoding: 120020 120020 102
Width: 556
Flags: W
LayerCount: 2
Fore
SplineSet
307 -7 m 0,0,1
 241 -7 241 -7 191 15.5 c 128,-1,2
 141 38 141 38 113 76 c 128,-1,3
 85 114 85 114 85 162 c 0,4,5
 85 240 85 240 149 295 c 128,-1,6
 213 350 213 350 340 372 c 1,7,8
 291 412 291 412 291 468 c 0,9,10
 291 509 291 509 322 545 c 128,-1,11
 353 581 353 581 404.5 603.5 c 128,-1,12
 456 626 456 626 517 626 c 0,13,14
 593 626 593 626 637 592.5 c 128,-1,15
 681 559 681 559 681 505 c 0,16,17
 681 472 681 472 664.5 446 c 128,-1,18
 648 420 648 420 622 405 c 128,-1,19
 596 390 596 390 565 390 c 0,20,21
 531 390 531 390 509 410 c 128,-1,22
 487 430 487 430 487 459 c 0,23,24
 487 481 487 481 501 500 c 128,-1,25
 515 519 515 519 535 531.5 c 128,-1,26
 555 544 555 544 571 544 c 0,27,28
 579 544 579 544 586 541 c 128,-1,29
 593 538 593 538 593 533 c 0,30,31
 593 526 593 526 585 523 c 0,32,33
 543 499 543 499 543 455 c 0,34,35
 543 415 543 415 571 415 c 0,36,37
 603 415 603 415 627.5 441 c 128,-1,38
 652 467 652 467 652 504 c 256,39,40
 652 541 652 541 622 568 c 128,-1,41
 592 595 592 595 549 595 c 0,42,43
 508 595 508 595 474.5 571.5 c 128,-1,44
 441 548 441 548 422 508 c 128,-1,45
 403 468 403 468 403 417 c 0,46,47
 403 398 403 398 407 383 c 1,48,49
 422 386 422 386 438 386 c 0,50,51
 489 386 489 386 508 371 c 0,52,53
 529 356 529 356 529 341 c 0,54,55
 529 331 529 331 515 321.5 c 128,-1,56
 501 312 501 312 479 312 c 0,57,58
 426 312 426 312 376 345 c 1,59,60
 332 329 332 329 295 293 c 128,-1,61
 258 257 258 257 236 210.5 c 128,-1,62
 214 164 214 164 214 115 c 0,63,64
 214 20 214 20 312 20 c 0,65,66
 368 20 368 20 416.5 42.5 c 128,-1,67
 465 65 465 65 494.5 100.5 c 128,-1,68
 524 136 524 136 524 174 c 0,69,70
 524 200 524 200 507.5 217 c 128,-1,71
 491 234 491 234 464 234 c 0,72,73
 429 234 429 234 400 203 c 128,-1,74
 371 172 371 172 367 124 c 256,75,76
 363 76 363 76 342 76 c 0,77,78
 332 76 332 76 327.5 93.5 c 128,-1,79
 323 111 323 111 323 121 c 0,80,81
 323 186 323 186 361.5 225.5 c 128,-1,82
 400 265 400 265 457 265 c 0,83,84
 553 265 553 265 553 172 c 0,85,86
 553 139 553 139 533 107 c 128,-1,87
 513 75 513 75 479 49 c 128,-1,88
 445 23 445 23 400.5 8 c 128,-1,89
 356 -7 356 -7 307 -7 c 0,0,1
467 335 m 0,90,91
 475 335 475 335 483 337.5 c 128,-1,92
 491 340 491 340 491 343 c 0,93,94
 491 362 491 362 447 362 c 0,95,96
 439 362 439 362 430.5 361 c 128,-1,97
 422 360 422 360 414 358 c 1,98,99
 432 335 432 335 467 335 c 0,90,91
EndSplineSet
EndChar

StartChar: u1D53C
Encoding: 120124 120124 103
Width: 561
Flags: W
LayerCount: 2
Fore
SplineSet
77 0 m 1,0,-1
 77 714 l 1,1,-1
 511 714 l 1,2,-1
 511 661 l 1,3,-1
 250 661 l 1,4,-1
 250 400 l 1,5,-1
 471 400 l 1,6,-1
 471 347 l 1,7,-1
 250 347 l 1,8,-1
 250 53 l 1,9,-1
 511 53 l 1,10,-1
 511 0 l 1,11,-1
 77 0 l 1,0,-1
130 53 m 1,12,-1
 197 53 l 1,13,-1
 197 661 l 1,14,-1
 130 661 l 1,15,-1
 130 53 l 1,12,-1
EndSplineSet
EndChar

StartChar: u1D438
Encoding: 119864 119864 104
Width: 676
Flags: W
LayerCount: 2
Fore
SplineSet
-50 0 m 1,0,-1
 -45 20 l 1,1,-1
 -41 20 l 2,2,3
 6 20 6 20 27 37.5 c 128,-1,4
 48 55 48 55 62 109 c 2,5,-1
 187 573 l 2,6,7
 196 608 196 608 196 624 c 0,8,9
 196 649 196 649 178.5 659.5 c 128,-1,10
 161 670 161 670 121 672 c 1,11,-1
 126 692 l 1,12,-1
 655 692 l 1,13,-1
 626 542 l 1,14,-1
 609 542 l 1,15,-1
 609 546 l 2,16,17
 609 592 609 592 598 616 c 128,-1,18
 587 640 587 640 555 649 c 128,-1,19
 523 658 523 658 460 658 c 2,20,-1
 375 658 l 2,21,22
 345 658 345 658 330 653.5 c 128,-1,23
 315 649 315 649 307.5 634.5 c 128,-1,24
 300 620 300 620 292 590 c 2,25,-1
 237 387 l 1,26,-1
 321 387 l 2,27,28
 396 387 396 387 430 410 c 128,-1,29
 464 433 464 433 478 485 c 1,30,-1
 497 485 l 1,31,-1
 427 240 l 1,32,-1
 409 240 l 1,33,34
 412 260 412 260 412 279 c 0,35,36
 412 311 412 311 404.5 327 c 128,-1,37
 397 343 397 343 376.5 348 c 128,-1,38
 356 353 356 353 318 353 c 2,39,-1
 229 353 l 1,40,-1
 167 124 l 2,41,42
 163 107 163 107 159.5 92.5 c 128,-1,43
 156 78 156 78 156 70 c 0,44,45
 156 50 156 50 173 42 c 0,46,47
 188 35 188 35 228 35 c 2,48,-1
 297 35 l 2,49,50
 368 35 368 35 419 50.5 c 128,-1,51
 470 66 470 66 507.5 100.5 c 128,-1,52
 545 135 545 135 575 190 c 1,53,-1
 595 190 l 1,54,-1
 523 0 l 1,55,-1
 -50 0 l 1,0,-1
EndSplineSet
EndChar

StartChar: u1D509
Encoding: 120073 120073 105
Width: 553
Flags: W
LayerCount: 2
Fore
SplineSet
277 -192 m 0,0,1
 219 -192 219 -192 173 -169.5 c 128,-1,2
 127 -147 127 -147 100 -109 c 128,-1,3
 73 -71 73 -71 73 -23 c 0,4,5
 73 12 73 12 91.5 47 c 128,-1,6
 110 82 110 82 139 110 c 256,7,8
 168 138 168 138 168 166 c 0,9,10
 168 186 168 186 155 199 c 128,-1,11
 142 212 142 212 121 212 c 0,12,13
 87 212 87 212 69 173 c 1,14,-1
 48 182 l 1,15,16
 75 235 75 235 121 235 c 0,17,18
 155 235 155 235 178 210 c 128,-1,19
 201 185 201 185 201 147 c 0,20,21
 201 112 201 112 181 77.5 c 128,-1,22
 161 43 161 43 138 11 c 0,23,24
 127 -4 127 -4 121.5 -20.5 c 128,-1,25
 116 -37 116 -37 116 -52 c 0,26,27
 116 -83 116 -83 136.5 -109.5 c 128,-1,28
 157 -136 157 -136 193 -152 c 128,-1,29
 229 -168 229 -168 275 -168 c 0,30,31
 338 -168 338 -168 378.5 -130.5 c 128,-1,32
 419 -93 419 -93 419 -26 c 0,33,34
 419 18 419 18 397.5 63 c 128,-1,35
 376 108 376 108 340.5 156 c 128,-1,36
 305 204 305 204 261 257 c 0,37,38
 228 298 228 298 212.5 332 c 128,-1,39
 197 366 197 366 197 394 c 0,40,41
 197 439 197 439 235 501 c 128,-1,42
 273 563 273 563 351 629 c 1,43,44
 254 670 254 670 180 670 c 0,45,46
 110 670 110 670 65 629 c 128,-1,47
 20 588 20 588 20 525 c 0,48,49
 20 449 20 449 103 416 c 1,50,-1
 95 394 l 1,51,52
 -4 435 -4 435 -4 529 c 0,53,54
 -4 586 -4 586 27.5 632.5 c 128,-1,55
 59 679 59 679 113.5 706 c 128,-1,56
 168 733 168 733 235 733 c 0,57,58
 353 733 353 733 497 655 c 0,59,60
 510 648 510 648 519.5 644 c 128,-1,61
 529 640 529 640 535 640 c 0,62,63
 547 640 547 640 566 662 c 1,64,-1
 580 647 l 1,65,-1
 499 566 l 2,66,67
 494 561 494 561 490.5 559 c 128,-1,68
 487 557 487 557 485 556 c 0,69,70
 481 558 481 558 478 559.5 c 128,-1,71
 475 561 475 561 472 562 c 0,72,73
 408 603 408 603 373 619 c 1,74,75
 262 526 262 526 262 446 c 0,76,77
 262 395 262 395 318 324 c 1,78,79
 385 370 385 370 406 407 c 1,80,-1
 425 407 l 1,81,82
 443 376 443 376 492 370 c 1,83,-1
 492 347 l 1,84,85
 463 337 463 337 443 297 c 1,86,-1
 422 297 l 1,87,88
 398 328 398 328 373 328 c 0,89,90
 361 328 361 328 333 306 c 1,91,92
 406 215 406 215 431 178 c 0,93,94
 457 140 457 140 472.5 103 c 128,-1,95
 488 66 488 66 488 25 c 0,96,97
 488 -39 488 -39 461.5 -88 c 128,-1,98
 435 -137 435 -137 387.5 -164.5 c 128,-1,99
 340 -192 340 -192 277 -192 c 0,0,1
EndSplineSet
EndChar

StartChar: u1D405
Encoding: 119813 119813 106
Width: 602
Flags: W
LayerCount: 2
Fore
SplineSet
23 0 m 1,0,-1
 23 26 l 1,1,2
 75 30 75 30 93 50 c 128,-1,3
 111 70 111 70 111 125 c 2,4,-1
 111 558 l 2,5,6
 111 612 111 612 91.5 630 c 128,-1,7
 72 648 72 648 21 653 c 1,8,-1
 21 678 l 1,9,-1
 586 678 l 1,10,-1
 586 476 l 1,11,-1
 562 476 l 1,12,13
 552 538 552 538 529 574 c 128,-1,14
 506 610 506 610 461.5 626 c 128,-1,15
 417 642 417 642 342 642 c 0,16,17
 313 642 313 642 297.5 639.5 c 128,-1,18
 282 637 282 637 276.5 627 c 128,-1,19
 271 617 271 617 271 593 c 2,20,-1
 271 368 l 1,21,-1
 283 368 l 2,22,23
 349 368 349 368 381 402.5 c 128,-1,24
 413 437 413 437 423 516 c 1,25,-1
 450 516 l 1,26,-1
 450 176 l 1,27,-1
 424 176 l 1,28,29
 414 264 414 264 382 298.5 c 128,-1,30
 350 333 350 333 281 333 c 2,31,-1
 271 333 l 1,32,-1
 271 120 l 2,33,34
 271 84 271 84 279.5 63.5 c 128,-1,35
 288 43 288 43 312 35 c 128,-1,36
 336 27 336 27 382 26 c 1,37,-1
 382 0 l 1,38,-1
 23 0 l 1,0,-1
EndSplineSet
EndChar

StartChar: u1D46D
Encoding: 119917 119917 107
Width: 611
Flags: W
LayerCount: 2
Fore
SplineSet
-50 0 m 1,0,-1
 -50 23 l 1,1,2
 -19 23 -19 23 0.5 30.5 c 128,-1,3
 20 38 20 38 33 60.5 c 128,-1,4
 46 83 46 83 58 127 c 2,5,-1
 171 549 l 2,6,7
 175 563 175 563 177 575.5 c 128,-1,8
 179 588 179 588 179 601 c 0,9,10
 179 624 179 624 162 635 c 128,-1,11
 145 646 145 646 109 647 c 1,12,-1
 109 671 l 1,13,-1
 635 671 l 1,14,-1
 596 481 l 1,15,-1
 568 481 l 1,16,-1
 568 495 l 2,17,18
 568 570 568 570 526 604 c 128,-1,19
 484 638 484 638 390 638 c 0,20,21
 359 638 359 638 348 628 c 128,-1,22
 337 618 337 618 329 590 c 2,23,-1
 270 369 l 1,24,25
 278 368 278 368 285 368 c 128,-1,26
 292 368 292 368 299 368 c 0,27,28
 365 368 365 368 405.5 394 c 128,-1,29
 446 420 446 420 466 476 c 1,30,-1
 491 476 l 1,31,-1
 421 201 l 1,32,-1
 400 201 l 1,33,34
 401 210 401 210 401 218.5 c 128,-1,35
 401 227 401 227 401 236 c 0,36,37
 401 278 401 278 388 300 c 128,-1,38
 375 322 375 322 344.5 329.5 c 128,-1,39
 314 337 314 337 260 337 c 1,40,-1
 202 122 l 2,41,42
 193 88 193 88 193 70 c 0,43,44
 193 47 193 47 209 36 c 128,-1,45
 225 25 225 25 263 23 c 1,46,-1
 263 0 l 1,47,-1
 -50 0 l 1,0,-1
EndSplineSet
EndChar

StartChar: u1D4D5
Encoding: 120021 120021 108
Width: 733
Flags: W
LayerCount: 2
Fore
SplineSet
346 258 m 0,0,1
 296 258 296 258 269.5 284.5 c 128,-1,2
 243 311 243 311 243 357 c 0,3,4
 243 416 243 416 293.5 477 c 128,-1,5
 344 538 344 538 432 582 c 0,6,7
 522 626 522 626 611 626 c 0,8,9
 634 626 634 626 664 620.5 c 128,-1,10
 694 615 694 615 731 605 c 0,11,12
 769 595 769 595 795.5 590 c 128,-1,13
 822 585 822 585 838 585 c 0,14,15
 857 585 857 585 870 588 c 128,-1,16
 883 591 883 591 898 598 c 0,17,18
 903 600 903 600 910 604 c 0,19,20
 914 606 914 606 917 606 c 0,21,22
 923 606 923 606 923 595 c 0,23,24
 923 588 923 588 910.5 575.5 c 128,-1,25
 898 563 898 563 878.5 549.5 c 128,-1,26
 859 536 859 536 836.5 526.5 c 128,-1,27
 814 517 814 517 793 517 c 0,28,29
 750 517 750 517 665 549 c 0,30,31
 622 565 622 565 589.5 573 c 128,-1,32
 557 581 557 581 533 581 c 0,33,34
 488 581 488 581 442 560 c 128,-1,35
 396 539 396 539 357.5 505.5 c 128,-1,36
 319 472 319 472 295.5 432.5 c 128,-1,37
 272 393 272 393 272 357 c 0,38,39
 272 328 272 328 286.5 310 c 128,-1,40
 301 292 301 292 323 292 c 256,41,42
 345 292 345 292 370 309 c 128,-1,43
 395 326 395 326 417 354.5 c 128,-1,44
 439 383 439 383 453 420.5 c 128,-1,45
 467 458 467 458 467 498 c 0,46,47
 467 502 467 502 466 511.5 c 128,-1,48
 465 521 465 521 465 525 c 0,49,50
 465 537 465 537 485 537 c 0,51,52
 497 537 497 537 511 514 c 256,53,54
 525 491 525 491 525 451 c 0,55,56
 525 397 525 397 501.5 353 c 128,-1,57
 478 309 478 309 437.5 283.5 c 128,-1,58
 397 258 397 258 346 258 c 0,0,1
273 -7 m 0,59,60
 185 -7 185 -7 137.5 24.5 c 128,-1,61
 90 56 90 56 90 108 c 0,62,63
 90 145 90 145 116.5 170 c 128,-1,64
 143 195 143 195 183 195 c 0,65,66
 218 195 218 195 237.5 180.5 c 128,-1,67
 257 166 257 166 257 140 c 0,68,69
 257 117 257 117 236.5 106.5 c 128,-1,70
 216 96 216 96 189 92 c 0,71,72
 163 89 163 89 163 67 c 0,73,74
 163 52 163 52 189 37 c 0,75,76
 216 21 216 21 269 21 c 0,77,78
 338 21 338 21 391.5 74 c 128,-1,79
 445 127 445 127 489 233 c 1,80,81
 424 224 424 224 354 172 c 0,82,83
 339 162 339 162 335 162 c 0,84,85
 324 162 324 162 324 171 c 0,86,87
 324 184 324 184 380 216 c 0,88,89
 408 232 408 232 438 244.5 c 128,-1,90
 468 257 468 257 501 264 c 1,91,92
 519 315 519 315 548 360.5 c 128,-1,93
 577 406 577 406 608.5 441 c 128,-1,94
 640 476 640 476 666 496 c 128,-1,95
 692 516 692 516 704 516 c 0,96,97
 719 516 719 516 719 504 c 1,98,99
 707 492 707 492 694 458 c 128,-1,100
 681 424 681 424 670.5 378 c 128,-1,101
 660 332 660 332 653 283 c 1,102,-1
 693 286 l 1,103,104
 711 335 711 335 729.5 359 c 128,-1,105
 748 383 748 383 774 383 c 0,106,107
 809 383 809 383 809 352 c 0,108,109
 809 330 809 330 784 303.5 c 128,-1,110
 759 277 759 277 724 265 c 1,111,112
 723 255 723 255 721.5 242.5 c 128,-1,113
 720 230 720 230 717 218 c 2,114,-1
 707 174 l 1,115,-1
 634 158 l 1,116,117
 645 186 645 186 656.5 211.5 c 128,-1,118
 668 237 668 237 680 260 c 1,119,120
 649 260 649 260 643 257 c 1,121,122
 604 127 604 127 510 60 c 128,-1,123
 416 -7 416 -7 273 -7 c 0,59,60
726 289 m 1,124,125
 748 300 748 300 764.5 317.5 c 128,-1,126
 781 335 781 335 781 351 c 0,127,128
 781 359 781 359 771 359 c 0,129,130
 754 359 754 359 742.5 337.5 c 128,-1,131
 731 316 731 316 726 289 c 1,124,125
EndSplineSet
EndChar

StartChar: u1D53D
Encoding: 120125 120125 109
Width: 526
Flags: W
LayerCount: 2
Fore
SplineSet
77 0 m 1,0,-1
 77 714 l 1,1,-1
 511 714 l 1,2,-1
 511 661 l 1,3,-1
 250 661 l 1,4,-1
 250 400 l 1,5,-1
 451 400 l 1,6,-1
 451 347 l 1,7,-1
 250 347 l 1,8,-1
 250 0 l 1,9,-1
 77 0 l 1,0,-1
130 53 m 1,10,-1
 197 53 l 1,11,-1
 197 661 l 1,12,-1
 130 661 l 1,13,-1
 130 53 l 1,10,-1
EndSplineSet
EndChar

StartChar: u1D439
Encoding: 119865 119865 110
Width: 604
Flags: W
LayerCount: 2
Fore
SplineSet
-46 0 m 1,0,-1
 -40 20 l 1,1,-1
 -36 20 l 2,2,3
 -4 20 -4 20 14.5 27 c 128,-1,4
 33 34 33 34 45 53.5 c 128,-1,5
 57 73 57 73 67 109 c 2,6,-1
 192 573 l 2,7,8
 201 608 201 608 201 624 c 0,9,10
 201 649 201 649 183 659.5 c 128,-1,11
 165 670 165 670 125 672 c 1,12,-1
 131 692 l 1,13,-1
 627 692 l 1,14,-1
 596 528 l 1,15,-1
 576 528 l 1,16,17
 577 532 577 532 577 537.5 c 128,-1,18
 577 543 577 543 577 547 c 0,19,20
 577 609 577 609 549.5 633 c 128,-1,21
 522 657 522 657 457 657 c 2,22,-1
 378 657 l 2,23,24
 337 657 337 657 325 648 c 256,25,26
 313 639 313 639 308 623 c 0,27,28
 306 616 306 616 290.5 556 c 128,-1,29
 275 496 275 496 246 384 c 1,30,-1
 302 384 l 2,31,32
 353 384 353 384 384 392.5 c 128,-1,33
 415 401 415 401 435 423 c 128,-1,34
 455 445 455 445 471 484 c 1,35,-1
 491 484 l 1,36,-1
 425 233 l 1,37,-1
 404 233 l 1,38,39
 406 245 406 245 407 257.5 c 128,-1,40
 408 270 408 270 408 283 c 0,41,42
 407 323 407 323 390 336.5 c 128,-1,43
 373 350 373 350 316 350 c 2,44,-1
 237 350 l 1,45,-1
 173 103 l 2,46,47
 171 95 171 95 169 83.5 c 128,-1,48
 167 72 167 72 167 66 c 0,49,50
 167 38 167 38 186.5 29 c 128,-1,51
 206 20 206 20 252 18 c 1,52,-1
 250 0 l 1,53,-1
 -46 0 l 1,0,-1
EndSplineSet
EndChar

StartChar: u1D50A
Encoding: 120074 120074 111
Width: 755
Flags: W
LayerCount: 2
Fore
SplineSet
415 -23 m 0,0,1
 303 -23 303 -23 220 26 c 128,-1,2
 137 75 137 75 91.5 164 c 128,-1,3
 46 253 46 253 46 373 c 0,4,5
 46 477 46 477 79 556.5 c 128,-1,6
 112 636 112 636 169.5 680.5 c 128,-1,7
 227 725 227 725 301 725 c 0,8,9
 339 725 339 725 371 712 c 1,10,-1
 406 741 l 1,11,-1
 419 728 l 1,12,13
 412 723 412 723 406 716 c 128,-1,14
 400 709 400 709 395 701 c 1,15,16
 428 684 428 684 451 665 c 1,17,-1
 437 646 l 1,18,19
 415 668 415 668 381 682 c 1,20,21
 365 658 365 658 365 640 c 0,22,23
 365 616 365 616 396 557 c 0,24,25
 427 499 427 499 427 466 c 0,26,27
 427 440 427 440 388 372 c 1,28,29
 417 395 417 395 449 406 c 0,30,31
 464 411 464 411 482 418 c 128,-1,32
 500 425 500 425 517 434 c 0,33,34
 537 445 537 445 555.5 457.5 c 128,-1,35
 574 470 574 470 586 486 c 0,36,37
 610 516 610 516 610 542 c 0,38,39
 610 565 610 565 589 584 c 2,40,-1
 533 637 l 2,41,42
 518 651 518 651 518 657 c 0,43,44
 518 665 518 665 534 682 c 0,45,46
 548 698 548 698 578 729 c 1,47,-1
 592 718 l 1,48,-1
 586 706 l 1,49,50
 586 694 586 694 637 643 c 2,51,-1
 664 616 l 2,52,53
 673 607 673 607 681 607 c 0,54,55
 684 607 684 607 687 607.5 c 128,-1,56
 690 608 690 608 693 609 c 2,57,-1
 702 598 l 1,58,59
 671 573 671 573 636 519 c 0,60,61
 618 491 618 491 601.5 471.5 c 128,-1,62
 585 452 585 452 571 439 c 1,63,64
 637 409 637 409 673 356.5 c 128,-1,65
 709 304 709 304 709 239 c 0,66,67
 709 161 709 161 672.5 102 c 128,-1,68
 636 43 636 43 570 10 c 128,-1,69
 504 -23 504 -23 415 -23 c 0,0,1
269 331 m 0,70,71
 304 331 304 331 326.5 351.5 c 128,-1,72
 349 372 349 372 349 410 c 0,73,74
 349 447 349 447 319 511 c 0,75,76
 288 578 288 578 288 590 c 0,77,78
 288 624 288 624 353 694 c 1,79,80
 331 700 331 700 309 700 c 0,81,82
 133 700 133 700 131 422 c 1,83,84
 210 331 210 331 269 331 c 0,70,71
426 -1 m 0,85,86
 486 -1 486 -1 532 23.5 c 128,-1,87
 578 48 578 48 604.5 90.5 c 128,-1,88
 631 133 631 133 631 187 c 0,89,90
 631 243 631 243 608.5 286 c 128,-1,91
 586 329 586 329 549.5 354 c 128,-1,92
 513 379 513 379 469 379 c 0,93,94
 453 379 453 379 438 375.5 c 128,-1,95
 423 372 423 372 408 361 c 0,96,97
 379 342 379 342 346.5 324 c 128,-1,98
 314 306 314 306 277 306 c 0,99,100
 207 306 207 306 132 387 c 1,101,102
 152 196 152 196 228.5 97.5 c 128,-1,103
 305 -1 305 -1 426 -1 c 0,85,86
EndSplineSet
EndChar

StartChar: u1D406
Encoding: 119814 119814 112
Width: 756
Flags: W
LayerCount: 2
Fore
SplineSet
399 -15 m 0,0,1
 291 -15 291 -15 210.5 29 c 128,-1,2
 130 73 130 73 85.5 153 c 128,-1,3
 41 233 41 233 41 341 c 0,4,5
 41 445 41 445 85.5 524 c 128,-1,6
 130 603 130 603 207.5 648 c 128,-1,7
 285 693 285 693 383 693 c 0,8,9
 461 693 461 693 550 656 c 0,10,11
 565 649 565 649 577 649 c 0,12,13
 594 649 594 649 604 659.5 c 128,-1,14
 614 670 614 670 624 693 c 1,15,-1
 651 693 l 1,16,-1
 651 458 l 1,17,-1
 625 458 l 1,18,19
 604 519 604 519 569 564 c 128,-1,20
 534 609 534 609 490 634.5 c 128,-1,21
 446 660 446 660 398 660 c 0,22,23
 217 660 217 660 217 339 c 0,24,25
 217 182 217 182 268 100.5 c 128,-1,26
 319 19 319 19 410 19 c 0,27,28
 467 19 467 19 488.5 40.5 c 128,-1,29
 510 62 510 62 510 106 c 2,30,-1
 510 190 l 2,31,32
 510 237 510 237 490 253.5 c 128,-1,33
 470 270 470 270 410 271 c 1,34,-1
 410 295 l 1,35,-1
 745 295 l 1,36,-1
 745 271 l 1,37,38
 696 270 696 270 680 254 c 128,-1,39
 664 238 664 238 664 191 c 2,40,-1
 664 43 l 1,41,42
 533 -15 533 -15 399 -15 c 0,0,1
EndSplineSet
EndChar

StartChar: u1D46E
Encoding: 119918 119918 113
Width: 743
Flags: W
LayerCount: 2
Fore
SplineSet
329 -17 m 0,0,1
 187 -17 187 -17 109 58 c 128,-1,2
 31 133 31 133 31 261 c 0,3,4
 31 335 31 335 56.5 404 c 128,-1,5
 82 473 82 473 129.5 531.5 c 128,-1,6
 177 590 177 590 243 629 c 0,7,8
 293 658 293 658 345.5 673.5 c 128,-1,9
 398 689 398 689 455 689 c 0,10,11
 485 689 485 689 520 683.5 c 128,-1,12
 555 678 555 678 595 666 c 0,13,14
 610 661 610 661 623 661 c 0,15,16
 643 661 643 661 656 689 c 1,17,-1
 681 689 l 1,18,-1
 638 472 l 1,19,-1
 610 472 l 1,20,21
 609 561 609 561 569 607 c 128,-1,22
 529 653 529 653 459 653 c 0,23,24
 392 653 392 653 330.5 595.5 c 128,-1,25
 269 538 269 538 224 427 c 0,26,27
 179 315 179 315 179 215 c 0,28,29
 179 121 179 121 225 71 c 128,-1,30
 271 21 271 21 354 21 c 0,31,32
 405 21 405 21 428.5 42.5 c 128,-1,33
 452 64 452 64 464 110 c 2,34,-1
 491 215 l 2,35,36
 500 251 500 251 500 266 c 0,37,38
 500 291 500 291 483.5 299 c 128,-1,39
 467 307 467 307 426 308 c 1,40,-1
 426 332 l 1,41,-1
 707 332 l 1,42,-1
 707 307 l 1,43,-1
 699 307 l 2,44,45
 667 307 667 307 655.5 285 c 128,-1,46
 644 263 644 263 633 223 c 2,47,-1
 588 46 l 1,48,49
 468 -17 468 -17 329 -17 c 0,0,1
EndSplineSet
EndChar

StartChar: u1D4D6
Encoding: 120022 120022 114
Width: 678
Flags: W
LayerCount: 2
Fore
SplineSet
396 -9 m 0,0,1
 302 -9 302 -9 252 23 c 128,-1,2
 202 55 202 55 202 109 c 0,3,4
 202 147 202 147 229.5 170.5 c 128,-1,5
 257 194 257 194 295 194 c 0,6,7
 327 194 327 194 345.5 179 c 128,-1,8
 364 164 364 164 364 142 c 0,9,10
 364 100 364 100 298 86 c 0,11,12
 276 82 276 82 276 62 c 0,13,14
 276 43 276 43 304 31 c 128,-1,15
 332 19 332 19 366 19 c 0,16,17
 420 19 420 19 465.5 71 c 128,-1,18
 511 123 511 123 564 219 c 1,19,20
 526 196 526 196 477 196 c 0,21,22
 400 196 400 196 351 251 c 1,23,24
 344 250 344 250 337 250 c 128,-1,25
 330 250 330 250 323 250 c 0,26,27
 268 250 268 250 225.5 270 c 128,-1,28
 183 290 183 290 159.5 325 c 128,-1,29
 136 360 136 360 136 404 c 0,30,31
 136 454 136 454 167.5 500.5 c 128,-1,32
 199 547 199 547 257 580 c 0,33,34
 316 614 316 614 364 615 c 0,35,36
 380 615 380 615 380 609 c 256,37,38
 380 603 380 603 354 591 c 256,39,40
 328 579 328 579 294.5 547.5 c 128,-1,41
 261 516 261 516 232 469 c 0,42,43
 204 423 204 423 204 378 c 0,44,45
 204 331 204 331 236 302 c 128,-1,46
 268 273 268 273 318 273 c 0,47,48
 323 273 323 273 327.5 273 c 128,-1,49
 332 273 332 273 336 274 c 1,50,51
 318 318 318 318 318 354 c 0,52,53
 318 398 318 398 339 438.5 c 128,-1,54
 360 479 360 479 395 513 c 128,-1,55
 430 547 430 547 472.5 572.5 c 128,-1,56
 515 598 515 598 558 612 c 128,-1,57
 601 626 601 626 638 626 c 0,58,59
 683 626 683 626 710 604 c 128,-1,60
 737 582 737 582 737 547 c 0,61,62
 737 518 737 518 715.5 479 c 128,-1,63
 694 440 694 440 655 399.5 c 128,-1,64
 616 359 616 359 565 324 c 0,65,66
 490 272 490 272 410 257 c 1,67,68
 424 221 424 221 479 221 c 0,69,70
 543 221 543 221 624 275 c 256,71,72
 705 329 705 329 716 329 c 256,73,74
 727 329 727 329 727 324 c 0,75,76
 727 321 727 321 723 315 c 0,77,78
 693 284 693 284 682 232 c 0,79,80
 670 178 670 178 649.5 130 c 128,-1,81
 629 82 629 82 594 53 c 0,82,83
 559 23 559 23 509 7 c 128,-1,84
 459 -9 459 -9 396 -9 c 0,0,1
409 283 m 1,85,86
 474 300 474 300 529 333 c 128,-1,87
 584 366 584 366 624 406 c 128,-1,88
 664 446 664 446 686 483 c 128,-1,89
 708 520 708 520 708 545 c 0,90,91
 708 571 708 571 695 585.5 c 128,-1,92
 682 600 682 600 667 600 c 0,93,94
 642 600 642 600 611 580 c 128,-1,95
 580 560 580 560 547.5 526.5 c 128,-1,96
 515 493 515 493 486.5 451.5 c 128,-1,97
 458 410 458 410 437 366.5 c 128,-1,98
 416 323 416 323 409 283 c 1,85,86
EndSplineSet
EndChar

StartChar: u1D53E
Encoding: 120126 120126 115
Width: 707
Flags: W
LayerCount: 2
Fore
SplineSet
403 -10 m 0,0,1
 226 -10 226 -10 138 86.5 c 128,-1,2
 50 183 50 183 50 358 c 0,3,4
 50 469 50 469 95 551.5 c 128,-1,5
 140 634 140 634 220.5 679.5 c 128,-1,6
 301 725 301 725 409 725 c 0,7,8
 533 725 533 725 633 683 c 1,9,-1
 611 634 l 1,10,11
 516 674 516 674 407 674 c 0,12,13
 312 674 312 674 242 636 c 1,14,-1
 242 74 l 1,15,16
 308 41 308 41 402 41 c 0,17,18
 415 41 415 41 432 42 c 128,-1,19
 449 43 449 43 470 46 c 1,20,-1
 470 324 l 1,21,-1
 366 324 l 1,22,-1
 366 377 l 1,23,-1
 643 377 l 1,24,-1
 643 28 l 1,25,26
 538 -10 538 -10 403 -10 c 0,0,1
189 112 m 1,27,-1
 189 596 l 1,28,29
 106 513 106 513 106 355 c 0,30,31
 106 193 106 193 189 112 c 1,27,-1
523 54 m 1,32,33
 563 60 563 60 590 69 c 1,34,-1
 590 324 l 1,35,-1
 523 324 l 1,36,-1
 523 54 l 1,32,33
EndSplineSet
EndChar

StartChar: u1D43A
Encoding: 119866 119866 116
Width: 806
Flags: W
LayerCount: 2
Fore
SplineSet
365 -15 m 0,0,1
 267 -15 267 -15 193.5 20 c 128,-1,2
 120 55 120 55 80 119 c 128,-1,3
 40 183 40 183 40 269 c 0,4,5
 40 343 40 343 70 414.5 c 128,-1,6
 100 486 100 486 152 546.5 c 128,-1,7
 204 607 204 607 270 647 c 0,8,9
 369 707 369 707 487 707 c 0,10,11
 558 707 558 707 616 683 c 0,12,13
 646 671 646 671 665 664.5 c 128,-1,14
 684 658 684 658 692 658 c 0,15,16
 712 658 712 658 724.5 667.5 c 128,-1,17
 737 677 737 677 749 699 c 1,18,-1
 766 699 l 1,19,-1
 720 487 l 1,20,-1
 703 487 l 1,21,22
 693 576 693 576 638 625 c 128,-1,23
 583 674 583 674 493 674 c 0,24,25
 400 674 400 674 325 615 c 128,-1,26
 250 556 250 556 204 455 c 256,27,28
 158 354 158 354 158 258 c 0,29,30
 158 143 158 143 217 79.5 c 128,-1,31
 276 16 276 16 379 16 c 0,32,33
 432 16 432 16 475 38.5 c 128,-1,34
 518 61 518 61 527 95 c 2,35,-1
 563 235 l 2,36,37
 565 245 565 245 567.5 257 c 128,-1,38
 570 269 570 269 570 276 c 0,39,40
 570 301 570 301 550 309 c 0,41,42
 530 316 530 316 479 319 c 1,43,-1
 484 338 l 1,44,-1
 771 338 l 1,45,-1
 766 319 l 1,46,47
 729 319 729 319 709.5 309.5 c 128,-1,48
 690 300 690 300 680 280 c 0,49,50
 676 270 676 270 670.5 254.5 c 128,-1,51
 665 239 665 239 660 217 c 2,52,-1
 620 52 l 1,53,54
 501 -15 501 -15 365 -15 c 0,0,1
EndSplineSet
EndChar

StartChar: u1D4A2
Encoding: 119970 119970 117
Width: 678
Flags: W
LayerCount: 2
Fore
SplineSet
399 -9 m 0,0,1
 311 -9 311 -9 263.5 22.5 c 128,-1,2
 216 54 216 54 216 106 c 0,3,4
 216 142 216 142 240 164.5 c 128,-1,5
 264 187 264 187 296 187 c 0,6,7
 322 187 322 187 337 173 c 128,-1,8
 352 159 352 159 352 139 c 0,9,10
 352 118 352 118 340 106.5 c 128,-1,11
 328 95 328 95 296 87 c 0,12,13
 263 80 263 80 263 58 c 0,14,15
 263 42 263 42 292 25 c 0,16,17
 320 9 320 9 369 9 c 0,18,19
 424 9 424 9 469 51 c 0,20,21
 516 95 516 95 589 228 c 1,22,23
 533 199 533 199 481 199 c 0,24,25
 443 199 443 199 415.5 212.5 c 128,-1,26
 388 226 388 226 362 256 c 1,27,28
 353 255 353 255 343.5 254.5 c 128,-1,29
 334 254 334 254 325 254 c 0,30,31
 275 254 275 254 235 273 c 128,-1,32
 195 292 195 292 172 326.5 c 128,-1,33
 149 361 149 361 149 405 c 0,34,35
 149 458 149 458 181.5 505.5 c 128,-1,36
 214 553 214 553 272 584 c 0,37,38
 331 615 331 615 366 615 c 0,39,40
 376 615 376 615 376 608 c 0,41,42
 376 602 376 602 371 601 c 0,43,44
 369 600 369 600 365 599 c 128,-1,45
 361 598 361 598 357 596 c 0,46,47
 308 577 308 577 270.5 540 c 128,-1,48
 233 503 233 503 211.5 460 c 128,-1,49
 190 417 190 417 190 379 c 0,50,51
 190 328 190 328 226.5 297.5 c 128,-1,52
 263 267 263 267 320 267 c 0,53,54
 337 267 337 267 353 270 c 1,55,56
 334 315 334 315 334 355 c 0,57,58
 334 401 334 401 355.5 441.5 c 128,-1,59
 377 482 377 482 411.5 516 c 128,-1,60
 446 550 446 550 487.5 574.5 c 128,-1,61
 529 599 529 599 570.5 612.5 c 128,-1,62
 612 626 612 626 645 626 c 0,63,64
 684 626 684 626 707.5 605 c 128,-1,65
 731 584 731 584 731 551 c 0,66,67
 731 521 731 521 708.5 481 c 128,-1,68
 686 441 686 441 646.5 399.5 c 128,-1,69
 607 358 607 358 555 323 c 0,70,71
 517 298 517 298 478 281.5 c 128,-1,72
 439 265 439 265 399 259 c 1,73,74
 412 215 412 215 483 215 c 0,75,76
 531 215 531 215 579 237.5 c 128,-1,77
 627 260 627 260 667 291 c 0,78,79
 706 321 706 321 716 321 c 2,80,-1
 722 319 l 1,81,-1
 718 314 l 1,82,83
 692 291 692 291 677 237 c 2,84,-1
 664 191 l 2,85,86
 642 115 642 115 612 76 c 128,-1,87
 582 37 582 37 526 14 c 0,88,89
 469 -9 469 -9 399 -9 c 0,0,1
397 274 m 1,90,91
 443 283 443 283 488.5 306.5 c 128,-1,92
 534 330 534 330 575 362.5 c 128,-1,93
 616 395 616 395 647.5 430.5 c 128,-1,94
 679 466 679 466 697 499 c 128,-1,95
 715 532 715 532 715 556 c 0,96,97
 715 581 715 581 701 595.5 c 128,-1,98
 687 610 687 610 664 610 c 0,99,100
 638 610 638 610 603 586.5 c 128,-1,101
 568 563 568 563 530.5 521.5 c 128,-1,102
 493 480 493 480 458 424 c 0,103,104
 406 340 406 340 397 274 c 1,90,91
EndSplineSet
EndChar

StartChar: H
Encoding: 72 72 118
Width: 599
GlyphClass: 2
Flags: W
LayerCount: 2
Fore
SplineSet
453 -10 m 0,0,1
 411 -10 411 -10 386.5 17 c 128,-1,2
 362 44 362 44 362 90 c 0,3,4
 362 113 362 113 366.5 147 c 128,-1,5
 371 181 371 181 381 225 c 2,6,-1
 404 329 l 2,7,8
 411 359 411 359 415 382.5 c 128,-1,9
 419 406 419 406 419 422 c 0,10,11
 419 481 419 481 373 481 c 0,12,13
 316 481 316 481 258 405 c 0,14,15
 199 327 199 327 184 256 c 2,16,-1
 130 0 l 1,17,-1
 37 0 l 1,18,-1
 167 618 l 2,19,20
 176 662 176 662 176 671 c 0,21,22
 176 718 176 718 106 718 c 2,23,-1
 98 718 l 1,24,-1
 107 760 l 1,25,-1
 291 760 l 1,26,-1
 252 576 l 2,27,28
 243 535 243 535 233 493.5 c 128,-1,29
 223 452 223 452 212 410 c 1,30,-1
 223 410 l 1,31,32
 306 545 306 545 408 545 c 0,33,34
 515 545 515 545 515 434 c 0,35,36
 515 418 515 418 510 390.5 c 128,-1,37
 505 363 505 363 497 324 c 2,38,-1
 471 206 l 2,39,40
 464 176 464 176 461 150 c 128,-1,41
 458 124 458 124 458 101 c 0,42,43
 458 53 458 53 493 53 c 0,44,45
 522 53 522 53 557 76 c 1,46,-1
 575 47 l 1,47,48
 511 -10 511 -10 453 -10 c 0,0,1
EndSplineSet
EndChar

StartChar: u1D407
Encoding: 119815 119815 119
Width: 779
Flags: W
LayerCount: 2
Fore
SplineSet
23 0 m 1,0,-1
 23 26 l 1,1,2
 75 28 75 28 93 47 c 128,-1,3
 111 66 111 66 111 120 c 2,4,-1
 111 564 l 2,5,6
 111 612 111 612 92.5 631 c 128,-1,7
 74 650 74 650 24 653 c 1,8,-1
 24 678 l 1,9,-1
 360 678 l 1,10,-1
 360 653 l 1,11,12
 323 650 323 650 304 643 c 128,-1,13
 285 636 285 636 278 618 c 128,-1,14
 271 600 271 600 271 564 c 2,15,-1
 271 373 l 1,16,-1
 509 373 l 1,17,-1
 509 564 l 2,18,19
 509 600 509 600 502.5 618 c 128,-1,20
 496 636 496 636 477 643 c 128,-1,21
 458 650 458 650 420 653 c 1,22,-1
 420 678 l 1,23,-1
 755 678 l 1,24,-1
 755 653 l 1,25,26
 703 649 703 649 686 631.5 c 128,-1,27
 669 614 669 614 669 564 c 2,28,-1
 669 120 l 2,29,30
 669 70 669 70 686.5 49 c 128,-1,31
 704 28 704 28 755 26 c 1,32,-1
 755 0 l 1,33,-1
 420 0 l 1,34,-1
 420 26 l 1,35,36
 471 28 471 28 490 45.5 c 128,-1,37
 509 63 509 63 509 120 c 2,38,-1
 509 329 l 1,39,-1
 271 329 l 1,40,-1
 271 120 l 2,41,42
 271 66 271 66 289 47 c 128,-1,43
 307 28 307 28 360 26 c 1,44,-1
 360 0 l 1,45,-1
 23 0 l 1,0,-1
EndSplineSet
EndChar

StartChar: u1D46F
Encoding: 119919 119919 120
Width: 756
Flags: W
LayerCount: 2
Fore
SplineSet
-50 0 m 1,0,-1
 -50 23 l 1,1,2
 -19 23 -19 23 0.5 30.5 c 128,-1,3
 20 38 20 38 33 60.5 c 128,-1,4
 46 83 46 83 58 127 c 2,5,-1
 171 549 l 2,6,7
 175 563 175 563 177 575.5 c 128,-1,8
 179 588 179 588 179 601 c 0,9,10
 179 624 179 624 162 635 c 128,-1,11
 145 646 145 646 109 647 c 1,12,-1
 109 671 l 1,13,-1
 422 671 l 1,14,-1
 422 647 l 1,15,16
 390 647 390 647 370.5 639 c 128,-1,17
 351 631 351 631 339 609 c 128,-1,18
 327 587 327 587 315 544 c 2,19,-1
 269 375 l 1,20,-1
 508 375 l 1,21,-1
 555 549 l 2,22,23
 563 579 563 579 563 601 c 0,24,25
 563 624 563 624 546 635 c 128,-1,26
 529 646 529 646 492 647 c 1,27,-1
 492 671 l 1,28,-1
 806 671 l 1,29,-1
 806 647 l 1,30,31
 775 647 775 647 756 640.5 c 128,-1,32
 737 634 737 634 724.5 613 c 128,-1,33
 712 592 712 592 700 549 c 2,34,-1
 586 122 l 2,35,36
 577 86 577 86 577 71 c 0,37,38
 577 47 577 47 593.5 36 c 128,-1,39
 610 25 610 25 647 23 c 1,40,-1
 647 0 l 1,41,-1
 334 0 l 1,42,-1
 334 23 l 1,43,44
 365 23 365 23 384.5 30.5 c 128,-1,45
 404 38 404 38 417 60.5 c 128,-1,46
 430 83 430 83 442 127 c 2,47,-1
 496 329 l 1,48,-1
 257 329 l 1,49,-1
 202 122 l 2,50,51
 193 86 193 86 193 70 c 0,52,53
 193 26 193 26 263 23 c 1,54,-1
 263 0 l 1,55,-1
 -50 0 l 1,0,-1
EndSplineSet
EndChar

StartChar: u1D4D7
Encoding: 120023 120023 121
Width: 844
Flags: W
LayerCount: 2
Fore
SplineSet
166 -12 m 0,0,1
 83 -12 83 -12 38 20 c 128,-1,2
 -7 52 -7 52 -7 102 c 0,3,4
 -7 144 -7 144 21 170.5 c 128,-1,5
 49 197 49 197 90 197 c 0,6,7
 121 197 121 197 140.5 180.5 c 128,-1,8
 160 164 160 164 160 138 c 0,9,10
 160 115 160 115 139.5 102.5 c 128,-1,11
 119 90 119 90 91 85 c 0,12,13
 64 81 64 81 64 60 c 0,14,15
 64 46 64 46 86 31 c 128,-1,16
 108 16 108 16 144 16 c 0,17,18
 204 16 204 16 246.5 62.5 c 128,-1,19
 289 109 289 109 330 204 c 1,20,21
 319 200 319 200 299.5 191 c 128,-1,22
 280 182 280 182 251 166 c 0,23,24
 247 164 247 164 242 161.5 c 128,-1,25
 237 159 237 159 234 159 c 0,26,27
 214 159 214 159 214 170 c 0,28,29
 214 180 214 180 253 201 c 0,30,31
 293 222 293 222 350 242 c 1,32,33
 402 338 402 338 478 427 c 1,34,35
 393 365 393 365 350 365 c 0,36,37
 326 365 326 365 310.5 377.5 c 128,-1,38
 295 390 295 390 295 407 c 0,39,40
 295 428 295 428 327 465 c 256,41,42
 359 502 359 502 359 506 c 0,43,44
 359 511 359 511 355 511 c 0,45,46
 336 511 336 511 296.5 483.5 c 128,-1,47
 257 456 257 456 220 412 c 0,48,49
 183 367 183 367 172 367 c 0,50,51
 151 367 151 367 151 380 c 0,52,53
 151 385 151 385 165.5 401.5 c 128,-1,54
 180 418 180 418 203 439.5 c 128,-1,55
 226 461 226 461 250.5 481.5 c 128,-1,56
 275 502 275 502 294 514 c 0,57,58
 333 538 333 538 364 538 c 0,59,60
 393 538 393 538 411.5 524 c 128,-1,61
 430 510 430 510 430 487 c 0,62,63
 430 460 430 460 405 416 c 1,64,65
 450 442 450 442 532 510 c 256,66,67
 614 578 614 578 638 578 c 0,68,69
 643 578 643 578 648.5 575 c 128,-1,70
 654 572 654 572 654 569 c 0,71,72
 654 562 654 562 637 548 c 0,73,74
 618 533 618 533 580 466 c 0,75,76
 561 432 561 432 544 387 c 128,-1,77
 527 342 527 342 513 285 c 1,78,-1
 583 308 l 1,79,80
 645 405 645 405 707 475.5 c 128,-1,81
 769 546 769 546 826.5 584 c 128,-1,82
 884 622 884 622 931 622 c 0,83,84
 970 622 970 622 992 603 c 128,-1,85
 1014 584 1014 584 1014 555 c 0,86,87
 1014 503 1014 503 936 437 c 0,88,89
 896 403 896 403 841.5 373 c 128,-1,90
 787 343 787 343 718 315 c 1,91,92
 688 257 688 257 667.5 212.5 c 128,-1,93
 647 168 647 168 635 138 c 0,94,95
 611 77 611 77 611 64 c 0,96,97
 611 38 611 38 633 38 c 0,98,99
 678 38 678 38 726.5 65 c 128,-1,100
 775 92 775 92 822.5 132.5 c 128,-1,101
 870 173 870 173 911 212 c 0,102,103
 973 271 973 271 996 271 c 0,104,105
 1010 271 1010 271 1019 267 c 1,106,107
 1000 257 1000 257 981.5 241.5 c 128,-1,108
 963 226 963 226 944 206 c 256,109,110
 925 186 925 186 897.5 159.5 c 128,-1,111
 870 133 870 133 838.5 105.5 c 128,-1,112
 807 78 807 78 775.5 55.5 c 128,-1,113
 744 33 744 33 718 22 c 0,114,115
 664 -1 664 -1 609 -1 c 0,116,117
 561 -1 561 -1 536 31 c 128,-1,118
 511 63 511 63 511 115 c 0,119,120
 511 133 511 133 518 160 c 128,-1,121
 525 187 525 187 537 217 c 128,-1,122
 549 247 549 247 563 273 c 1,123,-1
 502 254 l 1,124,125
 453 128 453 128 363.5 58 c 128,-1,126
 274 -12 274 -12 166 -12 c 0,0,1
741 358 m 1,127,128
 802 387 802 387 847.5 424 c 128,-1,129
 893 461 893 461 918.5 498 c 128,-1,130
 944 535 944 535 944 562 c 0,131,132
 944 594 944 594 924 594 c 0,133,134
 890 594 890 594 843 537 c 0,135,136
 795 479 795 479 741 358 c 1,127,128
EndSplineSet
EndChar

StartChar: u1D43B
Encoding: 119867 119867 122
Width: 775
Flags: W
LayerCount: 2
Fore
SplineSet
-50 0 m 1,0,-1
 -45 20 l 1,1,-1
 -41 20 l 2,2,3
 -10 20 -10 20 9 27 c 128,-1,4
 28 34 28 34 40.5 53 c 128,-1,5
 53 72 53 72 62 108 c 2,6,-1
 187 573 l 2,7,8
 196 608 196 608 196 624 c 0,9,10
 196 649 196 649 178.5 659.5 c 128,-1,11
 161 670 161 670 121 672 c 1,12,-1
 126 692 l 1,13,-1
 402 692 l 1,14,-1
 397 672 l 1,15,-1
 393 672 l 2,16,17
 348 672 348 672 326 654 c 128,-1,18
 304 636 304 636 289 580 c 2,19,-1
 247 425 l 2,20,21
 243 413 243 413 243 403 c 256,22,23
 243 393 243 393 251 389.5 c 128,-1,24
 259 386 259 386 276 386 c 2,25,-1
 532 386 l 2,26,27
 549 386 549 386 556 390 c 128,-1,28
 563 394 563 394 567 408 c 2,29,-1
 611 573 l 2,30,31
 620 606 620 606 620 624 c 0,32,33
 620 649 620 649 602 659.5 c 128,-1,34
 584 670 584 670 544 672 c 1,35,-1
 550 692 l 1,36,-1
 826 692 l 1,37,-1
 820 672 l 1,38,-1
 812 672 l 2,39,40
 769 672 769 672 748 653.5 c 128,-1,41
 727 635 727 635 713 584 c 2,42,-1
 589 119 l 2,43,44
 585 102 585 102 582 89 c 128,-1,45
 579 76 579 76 579 67 c 0,46,47
 579 42 579 42 597 32 c 128,-1,48
 615 22 615 22 655 20 c 1,49,-1
 650 0 l 1,50,-1
 374 0 l 1,51,-1
 379 20 l 1,52,-1
 383 20 l 2,53,54
 415 20 415 20 434 27 c 128,-1,55
 453 34 453 34 465 53 c 128,-1,56
 477 72 477 72 486 108 c 2,57,-1
 542 316 l 2,58,59
 543 320 543 320 543.5 323.5 c 128,-1,60
 544 327 544 327 544 331 c 0,61,62
 544 342 544 342 536 345 c 128,-1,63
 528 348 528 348 511 348 c 2,64,-1
 256 348 l 2,65,66
 239 348 239 348 232 344.5 c 128,-1,67
 225 341 225 341 221 327 c 2,68,-1
 165 119 l 2,69,70
 161 102 161 102 158 89 c 128,-1,71
 155 76 155 76 155 67 c 0,72,73
 155 42 155 42 173 32 c 128,-1,74
 191 22 191 22 231 20 c 1,75,-1
 226 0 l 1,76,-1
 -50 0 l 1,0,-1
EndSplineSet
EndChar

StartChar: u1D408
Encoding: 119816 119816 123
Width: 388
Flags: W
LayerCount: 2
Fore
SplineSet
20 0 m 1,0,-1
 20 26 l 1,1,2
 70 31 70 31 91 48 c 128,-1,3
 112 65 112 65 112 112 c 2,4,-1
 112 576 l 2,5,6
 112 622 112 622 94 636.5 c 128,-1,7
 76 651 76 651 20 653 c 1,8,-1
 20 678 l 1,9,-1
 364 678 l 1,10,-1
 364 653 l 1,11,12
 311 651 311 651 291.5 636.5 c 128,-1,13
 272 622 272 622 272 576 c 2,14,-1
 272 115 l 2,15,16
 272 84 272 84 279 66 c 128,-1,17
 286 48 286 48 306.5 39 c 128,-1,18
 327 30 327 30 366 26 c 1,19,-1
 366 0 l 1,20,-1
 20 0 l 1,0,-1
EndSplineSet
EndChar

StartChar: u1D470
Encoding: 119920 119920 124
Width: 371
Flags: W
LayerCount: 2
Fore
SplineSet
-50 0 m 1,0,-1
 -50 23 l 1,1,2
 -19 23 -19 23 0.5 30.5 c 128,-1,3
 20 38 20 38 33 60.5 c 128,-1,4
 46 83 46 83 58 127 c 2,5,-1
 171 549 l 2,6,7
 175 563 175 563 177 575.5 c 128,-1,8
 179 588 179 588 179 601 c 0,9,10
 179 644 179 644 108 647 c 1,11,-1
 108 671 l 1,12,-1
 422 671 l 1,13,-1
 422 647 l 1,14,15
 387 647 387 647 368 638 c 128,-1,16
 349 629 349 629 338 610 c 0,17,18
 328 592 328 592 314 544 c 2,19,-1
 201 122 l 2,20,21
 192 88 192 88 192 70 c 0,22,23
 192 26 192 26 263 23 c 1,24,-1
 263 0 l 1,25,-1
 -50 0 l 1,0,-1
EndSplineSet
EndChar

StartChar: u1D4D8
Encoding: 120024 120024 125
Width: 630
Flags: W
LayerCount: 2
Fore
SplineSet
221 -7 m 0,0,1
 145 -7 145 -7 97.5 25.5 c 128,-1,2
 50 58 50 58 50 107 c 0,3,4
 50 147 50 147 79 175 c 128,-1,5
 108 203 108 203 151 203 c 0,6,7
 182 203 182 203 198.5 187.5 c 128,-1,8
 215 172 215 172 215 146 c 0,9,10
 215 117 215 117 192.5 107 c 128,-1,11
 170 97 170 97 146 93 c 256,12,13
 122 89 122 89 122 72 c 0,14,15
 122 53 122 53 149 36.5 c 128,-1,16
 176 20 176 20 209 20 c 0,17,18
 266 20 266 20 315 61.5 c 128,-1,19
 364 103 364 103 397 184 c 1,20,21
 334 195 334 195 298.5 234 c 128,-1,22
 263 273 263 273 263 327 c 0,23,24
 263 377 263 377 300.5 426 c 128,-1,25
 338 475 338 475 403 516.5 c 128,-1,26
 468 558 468 558 551 585 c 0,27,28
 672 625 672 625 805 625 c 0,29,30
 831 625 831 625 831 614 c 0,31,32
 831 601 831 601 799 601 c 0,33,34
 759 601 759 601 725 557 c 128,-1,35
 691 513 691 513 659 444 c 0,36,37
 643 409 643 409 620 354 c 128,-1,38
 597 299 597 299 567 222 c 1,39,40
 647 247 647 247 670 324 c 0,41,42
 672 330 672 330 673 337 c 128,-1,43
 674 344 674 344 674 350 c 0,44,45
 675 362 675 362 677 374.5 c 128,-1,46
 679 387 679 387 680 390 c 0,47,48
 681 394 681 394 687 394 c 0,49,50
 706 394 706 394 706 373 c 0,51,52
 706 298 706 298 666 251 c 128,-1,53
 626 204 626 204 549 190 c 1,54,55
 520 129 520 129 469.5 84.5 c 128,-1,56
 419 40 419 40 355.5 16.5 c 128,-1,57
 292 -7 292 -7 221 -7 c 0,0,1
411 211 m 1,58,59
 473 353 473 353 541 446.5 c 128,-1,60
 609 540 609 540 698 590 c 1,61,62
 598 575 598 575 522 528 c 128,-1,63
 446 481 446 481 396 411 c 0,64,65
 346 340 346 340 346 286 c 0,66,67
 346 222 346 222 411 211 c 1,58,59
EndSplineSet
EndChar

StartChar: u1D540
Encoding: 120128 120128 126
Width: 327
Flags: W
LayerCount: 2
Fore
SplineSet
77 0 m 1,0,-1
 77 714 l 1,1,-1
 250 714 l 1,2,-1
 250 0 l 1,3,-1
 77 0 l 1,0,-1
130 53 m 1,4,-1
 197 53 l 1,5,-1
 197 661 l 1,6,-1
 130 661 l 1,7,-1
 130 53 l 1,4,-1
EndSplineSet
EndChar

StartChar: u1D43C
Encoding: 119868 119868 127
Width: 365
Flags: W
LayerCount: 2
Fore
SplineSet
-46 0 m 1,0,-1
 -40 20 l 1,1,-1
 -36 20 l 2,2,3
 -4 20 -4 20 14.5 27 c 128,-1,4
 33 34 33 34 45 53 c 128,-1,5
 57 72 57 72 67 108 c 2,6,-1
 192 573 l 2,7,8
 201 608 201 608 201 624 c 0,9,10
 201 649 201 649 183 659.5 c 128,-1,11
 165 670 165 670 125 672 c 1,12,-1
 131 692 l 1,13,-1
 410 692 l 1,14,-1
 405 672 l 1,15,-1
 397 672 l 2,16,17
 354 672 354 672 333 653.5 c 128,-1,18
 312 635 312 635 298 584 c 2,19,-1
 173 119 l 2,20,21
 164 85 164 85 164 67 c 0,22,23
 164 42 164 42 181.5 32 c 128,-1,24
 199 22 199 22 239 20 c 1,25,-1
 234 0 l 1,26,-1
 -46 0 l 1,0,-1
EndSplineSet
EndChar

StartChar: u1D50D
Encoding: 120077 120077 128
Width: 583
Flags: W
LayerCount: 2
Fore
SplineSet
166 406 m 1,0,1
 100 417 100 417 64 456 c 128,-1,2
 28 495 28 495 28 549 c 0,3,4
 28 602 28 602 59 638.5 c 128,-1,5
 90 675 90 675 142 695 c 0,6,7
 168 706 168 706 185.5 710 c 128,-1,8
 203 714 203 714 212 714 c 0,9,10
 230 714 230 714 230 729 c 1,11,-1
 252 729 l 1,12,-1
 252 728 l 2,13,14
 252 720 252 720 281 703 c 2,15,-1
 365 655 l 2,16,17
 395 638 395 638 415 628.5 c 128,-1,18
 435 619 435 619 446 619 c 0,19,20
 460 619 460 619 477.5 629.5 c 128,-1,21
 495 640 495 640 495 650 c 0,22,23
 495 661 495 661 482 674 c 1,24,25
 482 682 482 682 489.5 688.5 c 128,-1,26
 497 695 497 695 507 695 c 0,27,28
 532 695 532 695 532 664 c 0,29,30
 532 648 532 648 512.5 630 c 128,-1,31
 493 612 493 612 466 596 c 128,-1,32
 439 580 439 580 414 570.5 c 128,-1,33
 389 561 389 561 378 561 c 0,34,35
 354 561 354 561 314 589 c 0,36,37
 274 616 274 616 236.5 634.5 c 128,-1,38
 199 653 199 653 162 653 c 0,39,40
 132 653 132 653 107 639 c 128,-1,41
 82 625 82 625 66.5 601.5 c 128,-1,42
 51 578 51 578 51 549 c 0,43,44
 51 504 51 504 83 470.5 c 128,-1,45
 115 437 115 437 172 429 c 1,46,-1
 166 406 l 1,0,1
216 -164 m 1,47,-1
 196 -155 l 1,48,49
 191 -109 191 -109 163 -78 c 128,-1,50
 135 -47 135 -47 103 -47 c 0,51,52
 61 -47 61 -47 42 -97 c 1,53,-1
 21 -91 l 1,54,55
 48 -13 48 -13 122 -13 c 0,56,57
 133 -13 133 -13 143 -14.5 c 128,-1,58
 153 -16 153 -16 162 -18 c 256,59,60
 171 -20 171 -20 179 -21 c 128,-1,61
 187 -22 187 -22 194 -22 c 0,62,63
 208 -22 208 -22 221 -13 c 1,64,-1
 238 -22 l 2,65,66
 237 -25 237 -25 237 -31 c 0,67,68
 237 -53 237 -53 252 -73.5 c 128,-1,69
 267 -94 267 -94 292 -107 c 128,-1,70
 317 -120 317 -120 347 -120 c 0,71,72
 398 -120 398 -120 428.5 -93.5 c 128,-1,73
 459 -67 459 -67 459 -23 c 0,74,75
 459 -4 459 -4 453.5 20.5 c 128,-1,76
 448 45 448 45 435 75 c 0,77,78
 425 99 425 99 411 133.5 c 128,-1,79
 397 168 397 168 381.5 207 c 128,-1,80
 366 246 366 246 353 282.5 c 128,-1,81
 340 319 340 319 331.5 348 c 128,-1,82
 323 377 323 377 323 390 c 0,83,84
 323 410 323 410 338 438 c 128,-1,85
 353 466 353 466 376.5 493.5 c 128,-1,86
 400 521 400 521 427.5 539.5 c 128,-1,87
 455 558 455 558 480 558 c 0,88,89
 521 558 521 558 521 523 c 0,90,91
 521 494 521 494 497 494 c 0,92,93
 489 494 489 494 482 501 c 1,94,95
 484 507 484 507 484 510 c 0,96,97
 484 525 484 525 461 525 c 0,98,99
 437 525 437 525 419 502 c 128,-1,100
 401 479 401 479 401 441 c 0,101,102
 401 419 401 419 407.5 393 c 128,-1,103
 414 367 414 367 426 338 c 2,104,-1
 485 195 l 2,105,106
 535 74 535 74 535 30 c 0,107,108
 535 -2 535 -2 514 -37 c 128,-1,109
 493 -72 493 -72 462.5 -99 c 128,-1,110
 432 -126 432 -126 402 -135 c 0,111,112
 359 -148 359 -148 258 -148 c 0,113,114
 232 -148 232 -148 216 -164 c 1,47,-1
EndSplineSet
EndChar

StartChar: u1D409
Encoding: 119817 119817 129
Width: 492
Flags: W
LayerCount: 2
Fore
SplineSet
162 -97 m 0,0,1
 114 -97 114 -97 76.5 -80 c 128,-1,2
 39 -63 39 -63 17 -33 c 128,-1,3
 -5 -3 -5 -3 -5 34 c 0,4,5
 -5 70 -5 70 16 90.5 c 128,-1,6
 37 111 37 111 66 111 c 0,7,8
 98 111 98 111 118 92 c 128,-1,9
 138 73 138 73 138 41 c 0,10,11
 138 19 138 19 126 -2 c 256,12,13
 114 -23 114 -23 114 -29 c 0,14,15
 114 -60 114 -60 156 -60 c 0,16,17
 193 -60 193 -60 206.5 -37 c 128,-1,18
 220 -14 220 -14 220 32 c 2,19,-1
 220 546 l 2,20,21
 220 587 220 587 212 609 c 128,-1,22
 204 631 204 631 182 640.5 c 128,-1,23
 160 650 160 650 118 653 c 1,24,-1
 118 678 l 1,25,-1
 468 678 l 1,26,-1
 468 653 l 1,27,28
 431 650 431 650 412 641.5 c 128,-1,29
 393 633 393 633 386.5 611.5 c 128,-1,30
 380 590 380 590 380 546 c 2,31,-1
 380 132 l 2,32,33
 380 -97 380 -97 162 -97 c 0,0,1
EndSplineSet
EndChar

StartChar: u1D471
Encoding: 119921 119921 130
Width: 444
Flags: W
LayerCount: 2
Fore
SplineSet
47 -103 m 0,0,1
 -98 -103 -98 -103 -98 0 c 0,2,3
 -98 29 -98 29 -79 49.5 c 128,-1,4
 -60 70 -60 70 -29 70 c 0,5,6
 -2 70 -2 70 14 55.5 c 128,-1,7
 30 41 30 41 30 18 c 0,8,9
 30 9 30 9 27.5 -2 c 128,-1,10
 25 -13 25 -13 19 -23 c 0,11,12
 8 -41 8 -41 8 -48 c 0,13,14
 8 -65 8 -65 32 -65 c 0,15,16
 59 -65 59 -65 73.5 -42.5 c 128,-1,17
 88 -20 88 -20 101 27 c 2,18,-1
 242 549 l 2,19,20
 246 564 246 564 248 576 c 128,-1,21
 250 588 250 588 250 597 c 0,22,23
 250 624 250 624 233.5 634 c 128,-1,24
 217 644 217 644 179 647 c 1,25,-1
 179 671 l 1,26,-1
 492 671 l 1,27,-1
 492 647 l 1,28,29
 460 647 460 647 440.5 639 c 128,-1,30
 421 631 421 631 409 609 c 128,-1,31
 397 587 397 587 385 544 c 2,32,-1
 257 65 l 2,33,34
 233 -24 233 -24 183 -63.5 c 128,-1,35
 133 -103 133 -103 47 -103 c 0,0,1
EndSplineSet
EndChar

StartChar: u1D4D9
Encoding: 120025 120025 131
Width: 528
Flags: W
LayerCount: 2
Fore
SplineSet
-1 -259 m 0,0,1
 -103 -259 -103 -259 -103 -167 c 0,2,3
 -103 -111 -103 -111 -49.5 -53 c 128,-1,4
 4 5 4 5 96 48 c 0,5,6
 142 70 142 70 193 85.5 c 128,-1,7
 244 101 244 101 299 109 c 1,8,9
 342 193 342 193 374.5 254 c 128,-1,10
 407 315 407 315 434 359.5 c 128,-1,11
 461 404 461 404 485 438 c 128,-1,12
 509 472 509 472 536 503 c 0,13,14
 590 566 590 566 647 594 c 1,15,16
 585 585 585 585 521 559 c 128,-1,17
 457 533 457 533 401.5 493 c 128,-1,18
 346 453 346 453 306 401 c 0,19,20
 247 322 247 322 247 275 c 0,21,22
 247 225 247 225 287 225 c 0,23,24
 296 225 296 225 313 230 c 256,25,26
 330 235 330 235 335 235 c 0,27,28
 349 235 349 235 349 222 c 0,29,30
 349 213 349 213 332 208 c 0,31,32
 313 202 313 202 287 202 c 0,33,34
 239 202 239 202 208.5 232 c 128,-1,35
 178 262 178 262 178 311 c 0,36,37
 178 365 178 365 217.5 417 c 128,-1,38
 257 469 257 469 325.5 512.5 c 128,-1,39
 394 556 394 556 480 583 c 0,40,41
 609 625 609 625 732 625 c 0,42,43
 763 625 763 625 763 613 c 0,44,45
 763 609 763 609 760 607 c 0,46,47
 756 605 756 605 726 599 c 0,48,49
 695 593 695 593 663 565 c 0,50,51
 647 551 647 551 623.5 508 c 128,-1,52
 600 465 600 465 568 392 c 0,53,54
 537 319 537 319 504.5 248.5 c 128,-1,55
 472 178 472 178 439 110 c 1,56,57
 479 103 479 103 501 81 c 128,-1,58
 523 59 523 59 523 27 c 0,59,60
 523 -11 523 -11 497.5 -43 c 128,-1,61
 472 -75 472 -75 429.5 -94 c 128,-1,62
 387 -113 387 -113 337 -113 c 0,63,64
 310 -113 310 -113 310 -100 c 0,65,66
 310 -89 310 -89 343 -86 c 0,67,68
 375 -83 375 -83 410.5 -70 c 128,-1,69
 446 -57 446 -57 470 -31 c 0,70,71
 494 -4 494 -4 494 27 c 0,72,73
 494 53 494 53 472.5 69 c 128,-1,74
 451 85 451 85 423 88 c 1,75,76
 384 13 384 13 330 -50 c 128,-1,77
 276 -113 276 -113 216.5 -160 c 128,-1,78
 157 -207 157 -207 100.5 -233 c 128,-1,79
 44 -259 44 -259 -1 -259 c 0,0,1
-2 -231 m 0,80,81
 53 -231 53 -231 120 -154 c 0,82,83
 187 -76 187 -76 285 81 c 1,84,85
 209 69 209 69 136 24 c 128,-1,86
 63 -21 63 -21 11 -86 c 0,87,88
 -41 -150 -41 -150 -41 -186 c 0,89,90
 -41 -231 -41 -231 -2 -231 c 0,80,81
EndSplineSet
EndChar

StartChar: u1D541
Encoding: 120129 120129 132
Width: 414
Flags: W
LayerCount: 2
Fore
SplineSet
137 -10 m 0,0,1
 102 -10 102 -10 61.5 -3 c 128,-1,2
 21 4 21 4 0 15 c 1,3,-1
 0 68 l 1,4,5
 59 41 59 41 137 41 c 0,6,7
 165 41 165 41 171 44 c 1,8,-1
 171 714 l 1,9,-1
 344 714 l 1,10,-1
 344 243 l 2,11,12
 344 108 344 108 294 49 c 128,-1,13
 244 -10 244 -10 137 -10 c 0,0,1
224 57 m 1,14,15
 259 75 259 75 275 121.5 c 128,-1,16
 291 168 291 168 291 241 c 2,17,-1
 291 661 l 1,18,-1
 224 661 l 1,19,-1
 224 57 l 1,14,15
EndSplineSet
EndChar

StartChar: u1D43D
Encoding: 119869 119869 133
Width: 382
Flags: W
LayerCount: 2
Fore
SplineSet
33 -15 m 0,0,1
 -18 -15 -18 -15 -47 10 c 128,-1,2
 -76 35 -76 35 -76 73 c 0,3,4
 -76 97 -76 97 -61.5 113 c 128,-1,5
 -47 129 -47 129 -24 129 c 0,6,7
 -3 129 -3 129 11.5 115.5 c 128,-1,8
 26 102 26 102 26 82 c 0,9,10
 26 76 26 76 24.5 70 c 128,-1,11
 23 64 23 64 21 59 c 0,12,13
 17 48 17 48 17 39 c 0,14,15
 17 14 17 14 41 14 c 256,16,17
 65 14 65 14 76 39 c 0,18,19
 81 51 81 51 87.5 70 c 128,-1,20
 94 89 94 89 101 114 c 2,21,-1
 220 565 l 2,22,23
 232 613 232 613 232 626 c 0,24,25
 232 652 232 652 211 660 c 128,-1,26
 190 668 190 668 143 670 c 1,27,-1
 150 692 l 1,28,-1
 436 692 l 1,29,-1
 430 672 l 1,30,31
 384 672 384 672 363.5 657 c 128,-1,32
 343 642 343 642 330 592 c 2,33,-1
 227 200 l 2,34,35
 199 91 199 91 151.5 38 c 128,-1,36
 104 -15 104 -15 33 -15 c 0,0,1
EndSplineSet
EndChar

StartChar: u1D4A5
Encoding: 119973 119973 134
Width: 528
Flags: W
LayerCount: 2
Fore
SplineSet
-4 -263 m 0,0,1
 -93 -263 -93 -263 -93 -175 c 0,2,3
 -93 -138 -93 -138 -67.5 -98.5 c 128,-1,4
 -42 -59 -42 -59 3.5 -22 c 128,-1,5
 49 15 49 15 110 44 c 0,6,7
 203 88 203 88 312 103 c 1,8,9
 447 367 447 367 528 472 c 0,10,11
 608 576 608 576 691 606 c 1,12,13
 618 603 618 603 544.5 577 c 128,-1,14
 471 551 471 551 408 507.5 c 128,-1,15
 345 464 345 464 300 408 c 0,16,17
 234 326 234 326 234 274 c 0,18,19
 234 219 234 219 289 219 c 0,20,21
 305 219 305 219 317 224 c 0,22,23
 326 228 326 228 331 228 c 0,24,25
 338 228 338 228 338 221 c 0,26,27
 338 212 338 212 324 209 c 0,28,29
 317 208 317 208 308 206.5 c 128,-1,30
 299 205 299 205 289 205 c 0,31,32
 247 205 247 205 219.5 234 c 128,-1,33
 192 263 192 263 192 311 c 0,34,35
 192 383 192 383 261 453 c 128,-1,36
 330 523 330 523 465 574 c 256,37,38
 600 625 600 625 741 625 c 0,39,40
 759 625 759 625 759 618 c 0,41,42
 759 615 759 615 754 612 c 0,43,44
 752 611 752 611 747 610 c 128,-1,45
 742 609 742 609 729 607 c 0,46,47
 705 603 705 603 680 587.5 c 128,-1,48
 655 572 655 572 626 526 c 0,49,50
 612 504 612 504 589 455.5 c 128,-1,51
 566 407 566 407 534 333 c 0,52,53
 502 260 502 260 475.5 202.5 c 128,-1,54
 449 145 449 145 427 103 c 1,55,56
 472 102 472 102 496 79.5 c 128,-1,57
 520 57 520 57 520 22 c 0,58,59
 520 -12 520 -12 493 -43.5 c 128,-1,60
 466 -75 466 -75 424.5 -95 c 128,-1,61
 383 -115 383 -115 340 -115 c 0,62,63
 326 -115 326 -115 326 -107 c 0,64,65
 326 -104 326 -104 332 -101 c 0,66,67
 337 -99 337 -99 347 -98 c 0,68,69
 391 -93 391 -93 426 -75 c 128,-1,70
 461 -57 461 -57 481.5 -31.5 c 128,-1,71
 502 -6 502 -6 502 22 c 0,72,73
 502 89 502 89 417 89 c 1,74,75
 376 11 376 11 321 -54 c 128,-1,76
 266 -119 266 -119 206.5 -165.5 c 128,-1,77
 147 -212 147 -212 92 -237.5 c 128,-1,78
 37 -263 37 -263 -4 -263 c 0,0,1
-5 -245 m 0,79,80
 50 -245 50 -245 119 -176 c 0,81,82
 187 -108 187 -108 306 85 c 1,83,84
 252 81 252 81 199.5 59 c 128,-1,85
 147 37 147 37 100.5 4.5 c 128,-1,86
 54 -28 54 -28 18.5 -64.5 c 128,-1,87
 -17 -101 -17 -101 -37.5 -135 c 128,-1,88
 -58 -169 -58 -169 -58 -194 c 0,89,90
 -58 -245 -58 -245 -5 -245 c 0,79,80
EndSplineSet
EndChar

StartChar: u1D50E
Encoding: 120078 120078 135
Width: 648
Flags: W
LayerCount: 2
Fore
SplineSet
182 -23 m 0,0,1
 149 -23 149 -23 120 -15 c 256,2,3
 91 -7 91 -7 71 -7 c 0,4,5
 53 -7 53 -7 37 -17 c 1,6,-1
 19 -6 l 1,7,8
 25 9 25 9 25 22 c 0,9,10
 25 68 25 68 4 92 c 1,11,-1
 19 111 l 1,12,13
 34 103 34 103 56 103 c 0,14,15
 89 103 89 103 106 120 c 1,16,-1
 124 108 l 1,17,18
 113 83 113 83 113 64 c 0,19,20
 113 35 113 35 130.5 17.5 c 128,-1,21
 148 0 148 0 180 0 c 0,22,23
 258 0 258 0 258 92 c 0,24,25
 258 201 258 201 149 367 c 0,26,27
 84 465 84 465 84 494 c 0,28,29
 84 512 84 512 97.5 539 c 128,-1,30
 111 566 111 566 134.5 595.5 c 128,-1,31
 158 625 158 625 188 651.5 c 128,-1,32
 218 678 218 678 250 694 c 0,33,34
 315 727 315 727 389 727 c 0,35,36
 537 727 537 727 621 618 c 0,37,38
 661 566 661 566 661 519 c 0,39,40
 661 485 661 485 628 485 c 0,41,42
 617 485 617 485 609 493 c 1,43,44
 611 501 611 501 612 510 c 128,-1,45
 613 519 613 519 613 527 c 0,46,47
 613 573 613 573 583.5 613 c 128,-1,48
 554 653 554 653 504.5 678 c 128,-1,49
 455 703 455 703 395 703 c 256,50,51
 335 703 335 703 283 678.5 c 128,-1,52
 231 654 231 654 199 615 c 128,-1,53
 167 576 167 576 167 530 c 0,54,55
 167 506 167 506 195 455 c 0,56,57
 209 429 209 429 231 391 c 128,-1,58
 253 353 253 353 284 302 c 1,59,-1
 286 303 l 1,60,-1
 254 413 l 2,61,62
 247 437 247 437 247 455 c 0,63,64
 247 489 247 489 270 512 c 0,65,66
 281 523 281 523 306 537.5 c 128,-1,67
 331 552 331 552 368 567 c 0,68,69
 382 573 382 573 396 581 c 0,70,71
 409 587 409 587 419 602 c 1,72,-1
 439 602 l 1,73,74
 458 568 458 568 475.5 542 c 128,-1,75
 493 516 493 516 509 499 c 0,76,77
 542 464 542 464 549 464 c 2,78,-1
 550 464 l 1,79,-1
 550 443 l 1,80,81
 532 433 532 433 501.5 412.5 c 128,-1,82
 471 392 471 392 427 363 c 1,83,84
 450 356 450 356 463 325 c 0,85,86
 478 291 478 291 508 208 c 0,87,88
 523 166 523 166 534.5 136.5 c 128,-1,89
 546 107 546 107 555 89 c 0,90,91
 573 53 573 53 597 53 c 0,92,93
 612 53 612 53 633 65 c 1,94,-1
 646 49 l 1,95,-1
 566 -20 l 1,96,-1
 555 -21 l 2,97,98
 537 -21 537 -21 521.5 -5 c 128,-1,99
 506 11 506 11 495.5 30 c 128,-1,100
 485 49 485 49 480 58 c 0,101,102
 470 79 470 79 459.5 104 c 128,-1,103
 449 129 449 129 440 154 c 0,104,105
 432 177 432 177 424 199.5 c 128,-1,106
 416 222 416 222 410 238 c 0,107,108
 384 315 384 315 358 315 c 0,109,110
 342 315 342 315 297 279 c 1,111,112
 323 212 323 212 323 146 c 0,113,114
 323 63 323 63 285.5 20 c 128,-1,115
 248 -23 248 -23 182 -23 c 0,0,1
304 314 m 1,116,-1
 442 402 l 2,117,118
 459 413 459 413 459 424 c 0,119,120
 459 430 459 430 448.5 446.5 c 128,-1,121
 438 463 438 463 422.5 482 c 128,-1,122
 407 501 407 501 391 515 c 128,-1,123
 375 529 375 529 363 529 c 0,124,125
 345 529 345 529 323 517.5 c 128,-1,126
 301 506 301 506 285 488.5 c 128,-1,127
 269 471 269 471 269 451 c 0,128,129
 269 444 269 444 270.5 437 c 128,-1,130
 272 430 272 430 273 424 c 2,131,-1
 304 314 l 1,116,-1
EndSplineSet
EndChar

StartChar: u1D40A
Encoding: 119818 119818 136
Width: 760
Flags: W
LayerCount: 2
Fore
SplineSet
24 0 m 1,0,-1
 24 26 l 1,1,2
 76 28 76 28 94 47 c 128,-1,3
 112 66 112 66 112 120 c 2,4,-1
 112 564 l 2,5,6
 112 612 112 612 93.5 631.5 c 128,-1,7
 75 651 75 651 25 653 c 1,8,-1
 25 678 l 1,9,-1
 361 678 l 1,10,-1
 361 653 l 1,11,12
 324 650 324 650 305 643 c 128,-1,13
 286 636 286 636 279 618 c 128,-1,14
 272 600 272 600 272 564 c 2,15,-1
 272 348 l 1,16,-1
 478 556 l 2,17,18
 519 597 519 597 519 623 c 0,19,20
 519 653 519 653 433 653 c 1,21,-1
 433 678 l 1,22,-1
 723 678 l 1,23,-1
 723 653 l 1,24,-1
 710 653 l 2,25,26
 624 653 624 653 513 537 c 2,27,-1
 403 424 l 1,28,-1
 690 69 l 2,29,30
 708 47 708 47 725 37 c 128,-1,31
 742 27 742 27 773 26 c 1,32,-1
 773 0 l 1,33,-1
 418 0 l 1,34,-1
 418 26 l 1,35,36
 440 26 440 26 455.5 27 c 128,-1,37
 471 28 471 28 479 31 c 0,38,39
 497 38 497 38 497 51 c 0,40,41
 497 66 497 66 471 98 c 2,42,-1
 297 318 l 1,43,-1
 272 295 l 1,44,-1
 272 120 l 2,45,46
 272 66 272 66 290 47 c 128,-1,47
 308 28 308 28 361 26 c 1,48,-1
 361 0 l 1,49,-1
 24 0 l 1,0,-1
EndSplineSet
EndChar

StartChar: u1D472
Encoding: 119922 119922 137
Width: 635
Flags: W
LayerCount: 2
Fore
SplineSet
-50 0 m 1,0,-1
 -50 23 l 1,1,2
 -19 23 -19 23 0.5 30.5 c 128,-1,3
 20 38 20 38 33 60.5 c 128,-1,4
 46 83 46 83 58 127 c 2,5,-1
 171 549 l 2,6,7
 175 564 175 564 177 576 c 128,-1,8
 179 588 179 588 179 597 c 0,9,10
 179 624 179 624 163 634 c 128,-1,11
 147 644 147 644 109 647 c 1,12,-1
 109 671 l 1,13,-1
 422 671 l 1,14,-1
 422 647 l 1,15,16
 390 647 390 647 370.5 639 c 128,-1,17
 351 631 351 631 339 609 c 128,-1,18
 327 587 327 587 315 544 c 2,19,-1
 266 360 l 1,20,-1
 266 357 l 1,21,-1
 268 355 l 1,22,-1
 277 360 l 1,23,-1
 454 521 l 2,24,25
 531 590 531 590 531 616 c 0,26,27
 531 643 531 643 477 649 c 1,28,-1
 477 671 l 1,29,-1
 684 671 l 1,30,-1
 684 647 l 1,31,-1
 676 647 l 2,32,33
 663 647 663 647 638.5 631.5 c 128,-1,34
 614 616 614 616 579 584 c 2,35,-1
 380 398 l 1,36,-1
 526 84 l 2,37,38
 540 54 540 54 554.5 41 c 128,-1,39
 569 28 569 28 600 26 c 1,40,-1
 600 0 l 1,41,-1
 319 0 l 1,42,-1
 319 26 l 1,43,-1
 335 26 l 2,44,45
 363 26 363 26 373.5 34 c 128,-1,46
 384 42 384 42 384 59 c 0,47,48
 384 75 384 75 362 122 c 2,49,-1
 268 322 l 2,50,51
 265 329 265 329 260 329 c 0,52,53
 257 329 257 329 254 319 c 2,54,-1
 202 122 l 2,55,56
 193 86 193 86 193 70 c 0,57,58
 193 46 193 46 209.5 35.5 c 128,-1,59
 226 25 226 25 263 23 c 1,60,-1
 263 0 l 1,61,-1
 -50 0 l 1,0,-1
EndSplineSet
EndChar

StartChar: u1D4DA
Encoding: 120026 120026 138
Width: 761
Flags: W
LayerCount: 2
Fore
SplineSet
612 -6 m 0,0,1
 575 -6 575 -6 552.5 16 c 128,-1,2
 530 38 530 38 530 74 c 0,3,4
 530 112 530 112 565 168 c 0,5,6
 600 226 600 226 600 263 c 0,7,8
 600 273 600 273 595 282 c 1,9,10
 590 281 590 281 583 280.5 c 128,-1,11
 576 280 576 280 569 280 c 0,12,13
 534 280 534 280 534 298 c 0,14,15
 534 306 534 306 544 312 c 128,-1,16
 554 318 554 318 572 318 c 0,17,18
 581 318 581 318 591 315.5 c 128,-1,19
 601 313 601 313 609 313 c 0,20,21
 627 313 627 313 653 348 c 0,22,23
 677 381 677 381 708 433 c 0,24,25
 737 483 737 483 776 522 c 128,-1,26
 815 561 815 561 869 590 c 0,27,28
 922 619 922 619 947 619 c 0,29,30
 967 619 967 619 967 614 c 0,31,32
 967 610 967 610 956 605 c 2,33,-1
 924 588 l 2,34,35
 872 560 872 560 847 509 c 0,36,37
 830 475 830 475 800.5 431 c 128,-1,38
 771 387 771 387 729.5 349.5 c 128,-1,39
 688 312 688 312 636 296 c 1,40,41
 659 283 659 283 673 257.5 c 128,-1,42
 687 232 687 232 687 202 c 0,43,44
 687 185 687 185 681 156.5 c 128,-1,45
 675 128 675 128 661 87 c 0,46,47
 660 82 660 82 657.5 73 c 128,-1,48
 655 64 655 64 655 62 c 0,49,50
 655 51 655 51 665 51 c 0,51,52
 681 51 681 51 778 160 c 256,53,54
 875 269 875 269 900 269 c 2,55,-1
 918 269 l 1,56,-1
 936 267 l 1,57,58
 899 241 899 241 846 186.5 c 128,-1,59
 793 132 793 132 731 63 c 0,60,61
 670 -6 670 -6 612 -6 c 0,0,1
148 -16 m 0,62,63
 68 -16 68 -16 17.5 15.5 c 128,-1,64
 -33 47 -33 47 -33 96 c 0,65,66
 -33 137 -33 137 -5 163 c 128,-1,67
 23 189 23 189 66 189 c 0,68,69
 98 189 98 189 116 175.5 c 128,-1,70
 134 162 134 162 134 137 c 0,71,72
 134 109 134 109 117.5 97.5 c 128,-1,73
 101 86 101 86 72 84 c 0,74,75
 44 83 44 83 44 60 c 0,76,77
 44 42 44 42 68.5 27 c 128,-1,78
 93 12 93 12 131 12 c 0,79,80
 185 12 185 12 226 50 c 0,81,82
 246 69 246 69 274 110 c 128,-1,83
 302 151 302 151 337 213 c 256,84,85
 372 275 372 275 403 324.5 c 128,-1,86
 434 374 434 374 461 410 c 1,87,88
 381 358 381 358 343 358 c 0,89,90
 315 358 315 358 297.5 370.5 c 128,-1,91
 280 383 280 383 280 406 c 0,92,93
 280 420 280 420 295 441.5 c 128,-1,94
 310 463 310 463 325 475 c 256,95,96
 340 487 340 487 340 494 c 0,97,98
 340 498 340 498 332 498 c 0,99,100
 319 498 319 498 297 485 c 128,-1,101
 275 472 275 472 250.5 453.5 c 128,-1,102
 226 435 226 435 206 417 c 128,-1,103
 186 399 186 399 177 388 c 0,104,105
 158 366 158 366 149 366 c 0,106,107
 134 366 134 366 134 374 c 0,108,109
 134 380 134 380 149 397 c 128,-1,110
 164 414 164 414 188 435 c 128,-1,111
 212 456 212 456 240.5 476.5 c 128,-1,112
 269 497 269 497 297.5 510 c 128,-1,113
 326 523 326 523 349 523 c 0,114,115
 379 523 379 523 395 511 c 128,-1,116
 411 499 411 499 411 479 c 0,117,118
 411 454 411 454 373 399 c 1,119,-1
 370 393 l 1,120,-1
 374 390 l 1,121,122
 385 390 385 390 436 419 c 0,123,124
 462 434 462 434 489 454 c 128,-1,125
 516 474 516 474 544 500 c 2,126,-1
 611 563 l 2,127,128
 642 591 642 591 654 591 c 2,129,-1
 666 591 l 1,130,-1
 672 589 l 1,131,132
 672 582 672 582 656 572 c 256,133,134
 640 562 640 562 608 512 c 0,135,136
 592 487 592 487 578.5 453.5 c 128,-1,137
 565 420 565 420 552 376 c 0,138,139
 527 290 527 290 488.5 216.5 c 128,-1,140
 450 143 450 143 410 102 c 0,141,142
 383 74 383 74 344.5 46.5 c 128,-1,143
 306 19 306 19 257 1.5 c 128,-1,144
 208 -16 208 -16 148 -16 c 0,62,63
EndSplineSet
EndChar

StartChar: u1D542
Encoding: 120130 120130 139
Width: 655
Flags: W
LayerCount: 2
Fore
SplineSet
77 0 m 1,0,-1
 77 714 l 1,1,-1
 250 714 l 1,2,-1
 250 425 l 1,3,-1
 544 714 l 1,4,-1
 619 714 l 1,5,-1
 371 469 l 1,6,-1
 655 0 l 1,7,-1
 455 0 l 1,8,-1
 250 341 l 1,9,-1
 250 0 l 1,10,-1
 77 0 l 1,0,-1
130 53 m 1,11,-1
 197 53 l 1,12,-1
 197 661 l 1,13,-1
 130 661 l 1,14,-1
 130 53 l 1,11,-1
483 53 m 1,15,-1
 562 53 l 1,16,-1
 333 431 l 1,17,-1
 284 384 l 1,18,-1
 483 53 l 1,15,-1
EndSplineSet
EndChar

StartChar: u1D43E
Encoding: 119870 119870 140
Width: 676
Flags: W
LayerCount: 2
Fore
SplineSet
-50 0 m 1,0,-1
 -45 20 l 1,1,-1
 -41 20 l 2,2,3
 -10 20 -10 20 9 27 c 128,-1,4
 28 34 28 34 40.5 53 c 128,-1,5
 53 72 53 72 62 108 c 2,6,-1
 187 573 l 2,7,8
 196 608 196 608 196 624 c 0,9,10
 196 649 196 649 178.5 659.5 c 128,-1,11
 161 670 161 670 121 672 c 1,12,-1
 126 692 l 1,13,-1
 400 692 l 1,14,-1
 394 672 l 1,15,-1
 386 672 l 2,16,17
 346 672 346 672 326 657 c 128,-1,18
 306 642 306 642 292 589 c 2,19,-1
 240 395 l 2,20,21
 239 393 239 393 238 388 c 128,-1,22
 237 383 237 383 237 381 c 0,23,24
 237 372 237 372 244 372 c 256,25,26
 251 372 251 372 256 377 c 2,27,-1
 501 574 l 2,28,29
 558 621 558 621 558 646 c 0,30,31
 558 672 558 672 505 672 c 2,32,-1
 499 672 l 1,33,-1
 504 692 l 1,34,-1
 746 692 l 1,35,-1
 739 673 l 1,36,-1
 734 673 l 2,37,38
 695 673 695 673 642 635 c 0,39,40
 588 596 588 596 501 527 c 2,41,-1
 332 393 l 1,42,-1
 529 103 l 2,43,44
 558 60 558 60 586 39.5 c 128,-1,45
 614 19 614 19 652 19 c 1,46,-1
 647 0 l 1,47,-1
 351 0 l 1,48,-1
 357 19 l 1,49,-1
 364 19 l 2,50,51
 397 19 397 19 412.5 27 c 128,-1,52
 428 35 428 35 428 55 c 0,53,54
 428 66 428 66 420.5 82 c 128,-1,55
 413 98 413 98 399 118 c 2,56,-1
 250 339 l 2,57,58
 244 347 244 347 237 347 c 0,59,60
 226 347 226 347 223 334 c 2,61,-1
 164 111 l 2,62,63
 156 81 156 81 156 69 c 0,64,65
 156 40 156 40 175.5 30.5 c 128,-1,66
 195 21 195 21 241 20 c 1,67,-1
 236 0 l 1,68,-1
 -50 0 l 1,0,-1
EndSplineSet
EndChar

StartChar: u1D4A6
Encoding: 119974 119974 141
Width: 721
Flags: W
LayerCount: 2
Fore
SplineSet
578 -6 m 0,0,1
 546 -6 546 -6 527.5 14.5 c 128,-1,2
 509 35 509 35 509 70 c 0,3,4
 509 90 509 90 517.5 116 c 128,-1,5
 526 142 526 142 544 173 c 0,6,7
 580 235 580 235 580 262 c 0,8,9
 580 282 580 282 564 289 c 1,10,11
 546 284 546 284 534 284 c 0,12,13
 513 284 513 284 513 298 c 0,14,15
 513 313 513 313 537 313 c 0,16,17
 541 313 541 313 546 312.5 c 128,-1,18
 551 312 551 312 556 311 c 0,19,20
 560 310 560 310 567 309 c 128,-1,21
 574 308 574 308 575 308 c 0,22,23
 607 308 607 308 632 341 c 128,-1,24
 657 374 657 374 685 427 c 0,25,26
 712 480 712 480 753.5 520.5 c 128,-1,27
 795 561 795 561 848 590 c 256,28,29
 901 619 901 619 918 619 c 0,30,31
 925 619 925 619 925 614 c 256,32,33
 925 609 925 609 916 607 c 0,34,35
 911 606 911 606 906 604 c 128,-1,36
 901 602 901 602 896 599 c 0,37,38
 865 584 865 584 842.5 561.5 c 128,-1,39
 820 539 820 539 804 510 c 0,40,41
 783 472 783 472 751.5 427 c 128,-1,42
 720 382 720 382 679 346 c 128,-1,43
 638 310 638 310 587 298 c 1,44,45
 611 286 611 286 625.5 260 c 128,-1,46
 640 234 640 234 640 200 c 0,47,48
 640 150 640 150 624 82 c 0,49,50
 623 77 623 77 621 69.5 c 128,-1,51
 619 62 619 62 619 57 c 0,52,53
 619 41 619 41 629 41 c 0,54,55
 644 41 644 41 682 85 c 0,56,57
 701 107 701 107 730 138 c 128,-1,58
 759 169 759 169 789.5 199 c 128,-1,59
 820 229 820 229 845.5 249 c 128,-1,60
 871 269 871 269 883 269 c 2,61,-1
 894 267 l 1,62,63
 853 244 853 244 816 204 c 128,-1,64
 779 164 779 164 726 101 c 0,65,66
 673 39 673 39 641 17 c 0,67,68
 608 -6 608 -6 578 -6 c 0,0,1
126 -16 m 0,69,70
 51 -16 51 -16 4 15 c 128,-1,71
 -43 46 -43 46 -43 93 c 0,72,73
 -43 131 -43 131 -19 156.5 c 128,-1,74
 5 182 5 182 43 182 c 0,75,76
 98 182 98 182 98 134 c 0,77,78
 98 89 98 89 53 86 c 0,79,80
 7 83 7 83 7 56 c 0,81,82
 7 36 7 36 35.5 18 c 128,-1,83
 64 0 64 0 109 0 c 0,84,85
 146 0 146 0 177 15 c 128,-1,86
 208 30 208 30 238 64.5 c 128,-1,87
 268 99 268 99 301 158 c 2,88,-1
 379 296 l 2,89,90
 420 369 420 369 487 450 c 1,91,92
 363 364 363 364 325 364 c 0,93,94
 302 364 302 364 288.5 375.5 c 128,-1,95
 275 387 275 387 275 407 c 0,96,97
 275 429 275 429 301 458 c 256,98,99
 327 487 327 487 327 496 c 0,100,101
 327 506 327 506 320 506 c 0,102,103
 306 506 306 506 285 494 c 128,-1,104
 264 482 264 482 241 464 c 128,-1,105
 218 446 218 446 198.5 427.5 c 128,-1,106
 179 409 179 409 168 396 c 0,107,108
 147 371 147 371 136 371 c 0,109,110
 128 371 128 371 128 375 c 0,111,112
 128 380 128 380 142 396.5 c 128,-1,113
 156 413 156 413 179.5 434 c 128,-1,114
 203 455 203 455 230 475 c 128,-1,115
 257 495 257 495 283.5 508 c 128,-1,116
 310 521 310 521 331 521 c 0,117,118
 354 521 354 521 367 510 c 128,-1,119
 380 499 380 499 380 482 c 0,120,121
 380 469 380 469 374.5 456 c 128,-1,122
 369 443 369 443 358 428 c 0,123,124
 337 398 337 398 337 391 c 256,125,126
 337 384 337 384 343 384 c 0,127,128
 350 384 350 384 397 409 c 0,129,130
 420 421 420 421 450.5 444 c 128,-1,131
 481 467 481 467 512 492.5 c 128,-1,132
 543 518 543 518 568.5 540 c 128,-1,133
 594 562 594 562 607 573 c 0,134,135
 633 596 633 596 641 596 c 0,136,137
 645 596 645 596 645 593 c 0,138,139
 645 586 645 586 635 579 c 0,140,141
 624 572 624 572 595 531 c 0,142,143
 565 489 565 489 539 417 c 0,144,145
 517 357 517 357 488 287 c 0,146,147
 469 241 469 241 448 198 c 128,-1,148
 427 155 427 155 403 126 c 0,149,150
 361 74 361 74 316 44 c 128,-1,151
 271 14 271 14 223 -1 c 256,152,153
 175 -16 175 -16 126 -16 c 0,69,70
EndSplineSet
EndChar

StartChar: u1D50F
Encoding: 120079 120079 142
Width: 542
Flags: W
LayerCount: 2
Fore
SplineSet
348 -23 m 0,0,1
 320 -22 320 -22 282 -10.5 c 128,-1,2
 244 1 244 1 195 25 c 0,3,4
 98 73 98 73 75 73 c 0,5,6
 65 73 65 73 55 60 c 2,7,-1
 27 21 l 1,8,-1
 10 31 l 1,9,10
 30 66 30 66 43 91.5 c 128,-1,11
 56 117 56 117 63 134 c 0,12,13
 78 167 78 167 88 167 c 2,14,-1
 135 154 l 1,15,16
 199 185 199 185 199 234 c 0,17,18
 199 260 199 260 175.5 297 c 128,-1,19
 152 334 152 334 123 372 c 256,20,21
 94 410 94 410 72 448 c 128,-1,22
 50 486 50 486 50 514 c 0,23,24
 50 550 50 550 67 588.5 c 128,-1,25
 84 627 84 627 115.5 660 c 128,-1,26
 147 693 147 693 190.5 713 c 128,-1,27
 234 733 234 733 288 733 c 0,28,29
 347 733 347 733 391 709 c 128,-1,30
 435 685 435 685 460 644 c 128,-1,31
 485 603 485 603 485 550 c 0,32,33
 485 517 485 517 477 495 c 0,34,35
 469 471 469 471 469 461 c 0,36,37
 469 453 469 453 475 447 c 1,38,-1
 462 431 l 1,39,40
 456 434 456 434 450 435 c 128,-1,41
 444 436 444 436 439 436 c 0,42,43
 406 436 406 436 383 418.5 c 128,-1,44
 360 401 360 401 360 379 c 0,45,46
 360 362 360 362 374 350 c 128,-1,47
 388 338 388 338 411 338 c 256,48,49
 434 338 434 338 458 350 c 1,50,-1
 465 328 l 1,51,52
 437 316 437 316 412 316 c 0,53,54
 374 316 374 316 353 336.5 c 128,-1,55
 332 357 332 357 332 394 c 0,56,57
 332 408 332 408 336.5 426 c 128,-1,58
 341 444 341 444 354 474 c 1,59,-1
 350 485 l 1,60,-1
 366 495 l 1,61,62
 377 492 377 492 388 492 c 0,63,64
 414 493 414 493 434 513 c 128,-1,65
 454 533 454 533 454 567 c 0,66,67
 454 630 454 630 407.5 670 c 128,-1,68
 361 710 361 710 288 710 c 0,69,70
 216 710 216 710 170 671.5 c 128,-1,71
 124 633 124 633 124 573 c 0,72,73
 124 554 124 554 132 532.5 c 128,-1,74
 140 511 140 511 154 488 c 0,75,76
 172 460 172 460 192.5 430 c 128,-1,77
 213 400 213 400 234 371 c 0,78,79
 272 317 272 317 272 276 c 0,80,81
 272 205 272 205 157 144 c 1,82,83
 237 105 237 105 295 81.5 c 128,-1,84
 353 58 353 58 382 58 c 0,85,86
 392 58 392 58 401 60 c 128,-1,87
 410 62 410 62 418 68 c 0,88,89
 427 74 427 74 440.5 89.5 c 128,-1,90
 454 105 454 105 473 130 c 1,91,-1
 492 117 l 1,92,93
 474 92 474 92 445 58.5 c 128,-1,94
 416 25 416 25 376 -19 c 1,95,96
 369 -20 369 -20 362 -21.5 c 128,-1,97
 355 -23 355 -23 348 -23 c 0,0,1
EndSplineSet
EndChar

StartChar: u1D40B
Encoding: 119819 119819 143
Width: 635
Flags: W
LayerCount: 2
Fore
SplineSet
23 0 m 1,0,-1
 23 26 l 1,1,2
 75 28 75 28 93 47 c 128,-1,3
 111 66 111 66 111 120 c 2,4,-1
 111 564 l 2,5,6
 111 614 111 614 92.5 632.5 c 128,-1,7
 74 651 74 651 24 653 c 1,8,-1
 24 678 l 1,9,-1
 372 678 l 1,10,-1
 372 653 l 1,11,12
 332 653 332 653 310 646 c 128,-1,13
 288 639 288 639 279.5 620 c 128,-1,14
 271 601 271 601 271 564 c 2,15,-1
 271 123 l 2,16,17
 271 88 271 88 276 70 c 128,-1,18
 281 52 281 52 297.5 46.5 c 128,-1,19
 314 41 314 41 348 41 c 0,20,21
 420 41 420 41 468.5 59 c 128,-1,22
 517 77 517 77 550.5 118.5 c 128,-1,23
 584 160 584 160 609 230 c 1,24,-1
 636 230 l 1,25,-1
 598 0 l 1,26,-1
 23 0 l 1,0,-1
EndSplineSet
EndChar

StartChar: u1D473
Encoding: 119923 119923 144
Width: 633
Flags: W
LayerCount: 2
Fore
SplineSet
-50 0 m 1,0,-1
 -50 23 l 1,1,2
 -19 23 -19 23 0.5 30.5 c 128,-1,3
 20 38 20 38 33 60.5 c 128,-1,4
 46 83 46 83 58 127 c 2,5,-1
 171 549 l 2,6,7
 179 578 179 578 179 597 c 0,8,9
 179 623 179 623 162.5 634.5 c 128,-1,10
 146 646 146 646 108 647 c 1,11,-1
 108 671 l 1,12,-1
 422 671 l 1,13,-1
 422 647 l 1,14,15
 390 647 390 647 370 638.5 c 128,-1,16
 350 630 350 630 337.5 607.5 c 128,-1,17
 325 585 325 585 314 544 c 2,18,-1
 203 123 l 2,19,20
 191 75 191 75 191 63 c 0,21,22
 191 46 191 46 212 41 c 0,23,24
 223 39 223 39 240 37 c 128,-1,25
 257 35 257 35 280 35 c 0,26,27
 378 35 378 35 444 74.5 c 128,-1,28
 510 114 510 114 553 199 c 1,29,-1
 585 199 l 1,30,-1
 522 0 l 1,31,-1
 -50 0 l 1,0,-1
EndSplineSet
EndChar

StartChar: u1D4DB
Encoding: 120027 120027 145
Width: 637
Flags: W
LayerCount: 2
Fore
SplineSet
185 -7 m 0,0,1
 122 -7 122 -7 94.5 13.5 c 128,-1,2
 67 34 67 34 67 60 c 256,3,4
 67 86 67 86 90.5 104.5 c 128,-1,5
 114 123 114 123 168 123 c 0,6,7
 224 123 224 123 310 86 c 1,8,9
 355 137 355 137 394 240 c 1,10,11
 312 245 312 245 263 288.5 c 128,-1,12
 214 332 214 332 214 396 c 0,13,14
 214 455 214 455 256 508.5 c 128,-1,15
 298 562 298 562 373 593 c 0,16,17
 449 625 449 625 538 625 c 0,18,19
 555 625 555 625 566.5 624.5 c 128,-1,20
 578 624 578 624 585 622 c 0,21,22
 600 618 600 618 600 607 c 0,23,24
 600 597 600 597 573 597 c 0,25,26
 504 597 504 597 451.5 575.5 c 128,-1,27
 399 554 399 554 363.5 519.5 c 128,-1,28
 328 485 328 485 310 445.5 c 128,-1,29
 292 406 292 406 292 370 c 0,30,31
 292 321 292 321 322 292.5 c 128,-1,32
 352 264 352 264 404 264 c 1,33,34
 448 370 448 370 506.5 451.5 c 128,-1,35
 565 533 565 533 626.5 579.5 c 128,-1,36
 688 626 688 626 742 626 c 0,37,38
 783 626 783 626 809 603 c 128,-1,39
 835 580 835 580 835 542 c 0,40,41
 835 507 835 507 813.5 467.5 c 128,-1,42
 792 428 792 428 753 390 c 128,-1,43
 714 352 714 352 662 319.5 c 128,-1,44
 610 287 610 287 550 264 c 1,45,46
 489 119 489 119 382 50 c 1,47,48
 420 30 420 30 453 30 c 0,49,50
 479 30 479 30 513 50 c 128,-1,51
 547 70 547 70 583.5 100 c 128,-1,52
 620 130 620 130 653 162.5 c 128,-1,53
 686 195 686 195 711 220 c 0,54,55
 738 247 738 247 758 259 c 128,-1,56
 778 271 778 271 791 271 c 2,57,-1
 812 267 l 1,58,59
 799 260 799 260 779.5 244.5 c 128,-1,60
 760 229 760 229 735 204 c 0,61,62
 702 171 702 171 662.5 132.5 c 128,-1,63
 623 94 623 94 587 63 c 128,-1,64
 551 32 551 32 526 19 c 0,65,66
 489 0 489 0 453 0 c 0,67,68
 399 0 399 0 347 31 c 1,69,70
 273 -7 273 -7 185 -7 c 0,0,1
562 296 m 1,71,72
 608 315 608 315 648 346 c 128,-1,73
 688 377 688 377 717 412.5 c 128,-1,74
 746 448 746 448 758 480 c 0,75,76
 776 528 776 528 776 555 c 0,77,78
 776 599 776 599 745 599 c 0,79,80
 702 599 702 599 654 525 c 0,81,82
 630 488 630 488 607.5 430.5 c 128,-1,83
 585 373 585 373 562 296 c 1,71,72
176 19 m 0,84,85
 247 19 247 19 293 62 c 1,86,87
 231 97 231 97 166 97 c 0,88,89
 135 97 135 97 116 86 c 128,-1,90
 97 75 97 75 97 60 c 0,91,92
 97 46 97 46 119 32.5 c 128,-1,93
 141 19 141 19 176 19 c 0,84,85
EndSplineSet
EndChar

StartChar: u1D543
Encoding: 120131 120131 146
Width: 536
Flags: W
LayerCount: 2
Fore
SplineSet
77 0 m 1,0,-1
 77 714 l 1,1,-1
 250 714 l 1,2,-1
 250 53 l 1,3,-1
 511 53 l 1,4,-1
 511 0 l 1,5,-1
 77 0 l 1,0,-1
130 53 m 1,6,-1
 197 53 l 1,7,-1
 197 661 l 1,8,-1
 130 661 l 1,9,-1
 130 53 l 1,6,-1
EndSplineSet
EndChar

StartChar: u1D43F
Encoding: 119871 119871 147
Width: 668
Flags: W
LayerCount: 2
Fore
SplineSet
-36 0 m 1,0,-1
 -31 20 l 1,1,-1
 -27 20 l 2,2,3
 20 20 20 20 41.5 38 c 128,-1,4
 63 56 63 56 77 108 c 2,5,-1
 201 573 l 2,6,7
 206 590 206 590 208.5 603 c 128,-1,8
 211 616 211 616 211 624 c 0,9,10
 211 649 211 649 193 659.5 c 128,-1,11
 175 670 175 670 135 672 c 1,12,-1
 140 692 l 1,13,-1
 415 692 l 1,14,-1
 408 673 l 1,15,16
 364 673 364 673 342 654.5 c 128,-1,17
 320 636 320 636 306 585 c 2,18,-1
 186 137 l 2,19,20
 179 110 179 110 175.5 95 c 128,-1,21
 172 80 172 80 172 76 c 0,22,23
 172 51 172 51 188 43 c 128,-1,24
 204 35 204 35 245 35 c 2,25,-1
 316 35 l 2,26,27
 394 35 394 35 443 48.5 c 128,-1,28
 492 62 492 62 526.5 97 c 128,-1,29
 561 132 561 132 594 196 c 1,30,-1
 613 196 l 1,31,-1
 548 0 l 1,32,-1
 -36 0 l 1,0,-1
EndSplineSet
EndChar

StartChar: u1D510
Encoding: 120080 120080 148
Width: 947
Flags: W
LayerCount: 2
Fore
SplineSet
192 -23 m 1,0,-1
 192 -16 l 2,1,2
 192 -8 192 -8 178.5 2.5 c 128,-1,3
 165 13 165 13 148.5 21 c 128,-1,4
 132 29 132 29 122 29 c 0,5,6
 118 29 118 29 88 -3 c 1,7,-1
 72 8 l 1,8,9
 108 61 108 61 126 83 c 0,10,11
 143 106 143 106 155 106 c 0,12,13
 166 106 166 106 190 93 c 0,14,15
 203 86 203 86 218 77.5 c 128,-1,16
 233 69 233 69 252 58 c 1,17,18
 293 97 293 97 310.5 159 c 128,-1,19
 328 221 328 221 328 312 c 0,20,21
 328 478 328 478 280.5 564.5 c 128,-1,22
 233 651 233 651 156 651 c 0,23,24
 96 651 96 651 60.5 613.5 c 128,-1,25
 25 576 25 576 25 514 c 0,26,27
 25 450 25 450 59 405 c 128,-1,28
 93 360 93 360 153 344 c 1,29,-1
 143 323 l 1,30,31
 74 343 74 343 36.5 394.5 c 128,-1,32
 -1 446 -1 446 -1 518 c 0,33,34
 -1 577 -1 577 24 623.5 c 128,-1,35
 49 670 49 670 91.5 697.5 c 128,-1,36
 134 725 134 725 186 725 c 0,37,38
 234 725 234 725 274.5 701.5 c 128,-1,39
 315 678 315 678 341 636 c 1,40,41
 357 687 357 687 387 713 c 128,-1,42
 417 739 417 739 455 739 c 0,43,44
 551 739 551 739 601 617 c 1,45,46
 621 675 621 675 657 700.5 c 128,-1,47
 693 726 693 726 753 726 c 0,48,49
 910 726 910 726 910 538 c 0,50,51
 910 531 910 531 910 523.5 c 128,-1,52
 910 516 910 516 909 508 c 1,53,-1
 920 508 l 1,54,-1
 920 485 l 1,55,56
 874 478 874 478 848 464.5 c 128,-1,57
 822 451 822 451 812 425.5 c 128,-1,58
 802 400 802 400 802 355 c 2,59,-1
 802 116 l 2,60,61
 802 101 802 101 815 87 c 128,-1,62
 828 73 828 73 842.5 64 c 128,-1,63
 857 55 857 55 860 55 c 0,64,65
 866 55 866 55 912 88 c 1,66,-1
 924 73 l 1,67,-1
 823 -22 l 1,68,-1
 803 -22 l 1,69,70
 800 -5 800 -5 780 4 c 0,71,72
 759 15 759 15 741 32.5 c 128,-1,73
 723 50 723 50 723 84 c 2,74,-1
 723 330 l 2,75,76
 723 369 723 369 733 393 c 128,-1,77
 743 417 743 417 766.5 437 c 128,-1,78
 790 457 790 457 832 480 c 1,79,-1
 832 498 l 2,80,81
 832 593 832 593 805.5 630 c 128,-1,82
 779 667 779 667 718 667 c 0,83,84
 639 667 639 667 610 587 c 1,85,86
 621 543 621 543 627 498 c 128,-1,87
 633 453 633 453 633 406 c 0,88,89
 633 329 633 329 615 260 c 128,-1,90
 597 191 597 191 557 122.5 c 128,-1,91
 517 54 517 54 450 -23 c 1,92,-1
 431 -23 l 1,93,-1
 431 -16 l 2,94,95
 431 -8 431 -8 417.5 2.5 c 128,-1,96
 404 13 404 13 387.5 21 c 128,-1,97
 371 29 371 29 361 29 c 0,98,99
 357 29 357 29 327 -3 c 1,100,-1
 311 8 l 1,101,102
 347 61 347 61 366 84 c 0,103,104
 384 106 384 106 394 106 c 0,105,106
 405 106 405 106 429 93 c 0,107,108
 442 86 442 86 456.5 78 c 128,-1,109
 471 70 471 70 489 59 c 1,110,111
 558 170 558 170 558 327 c 0,112,113
 558 478 558 478 518 579 c 0,114,115
 477 680 477 680 422 680 c 256,116,117
 367 680 367 680 355 611 c 1,118,119
 397 514 397 514 397 372 c 0,120,121
 397 258 397 258 358.5 177 c 128,-1,122
 320 96 320 96 268 42 c 0,123,124
 212 -17 212 -17 211 -23 c 1,125,-1
 192 -23 l 1,0,-1
EndSplineSet
EndChar

StartChar: u1D40C
Encoding: 119820 119820 149
Width: 944
Flags: W
LayerCount: 2
Fore
SplineSet
21 0 m 1,0,-1
 21 26 l 1,1,2
 71 28 71 28 91.5 47 c 128,-1,3
 112 66 112 66 112 118 c 2,4,-1
 112 569 l 2,5,6
 112 602 112 602 105 619 c 128,-1,7
 98 636 98 636 78.5 643.5 c 128,-1,8
 59 651 59 651 22 653 c 1,9,-1
 22 678 l 1,10,-1
 275 678 l 1,11,-1
 472 212 l 1,12,-1
 669 678 l 1,13,-1
 919 678 l 1,14,-1
 919 653 l 1,15,16
 871 649 871 649 852.5 630 c 128,-1,17
 834 611 834 611 834 563 c 2,18,-1
 834 127 l 2,19,20
 834 85 834 85 841 63.5 c 128,-1,21
 848 42 848 42 866 34.5 c 128,-1,22
 884 27 884 27 918 26 c 1,23,-1
 918 0 l 1,24,-1
 589 0 l 1,25,-1
 589 26 l 1,26,27
 625 29 625 29 644 37 c 128,-1,28
 663 45 663 45 670 65.5 c 128,-1,29
 677 86 677 86 677 124 c 2,30,-1
 677 594 l 1,31,-1
 429 0 l 1,32,-1
 402 0 l 1,33,-1
 157 579 l 1,34,-1
 157 119 l 2,35,36
 157 62 157 62 178 44 c 128,-1,37
 199 26 199 26 252 26 c 1,38,-1
 252 0 l 1,39,-1
 21 0 l 1,0,-1
EndSplineSet
EndChar

StartChar: u1D474
Encoding: 119924 119924 150
Width: 874
Flags: W
LayerCount: 2
Fore
SplineSet
280 -16 m 1,0,-1
 214 540 l 1,1,-1
 102 122 l 2,2,3
 93 88 93 88 93 70 c 0,4,5
 93 46 93 46 109.5 35.5 c 128,-1,6
 126 25 126 25 163 23 c 1,7,-1
 163 0 l 1,8,-1
 -52 0 l 1,9,-1
 -52 23 l 1,10,11
 -20 23 -20 23 -1 30.5 c 128,-1,12
 18 38 18 38 31 60.5 c 128,-1,13
 44 83 44 83 56 127 c 2,14,-1
 169 549 l 2,15,16
 177 578 177 578 177 600 c 0,17,18
 177 624 177 624 160.5 635 c 128,-1,19
 144 646 144 646 107 647 c 1,20,-1
 107 671 l 1,21,-1
 334 671 l 1,22,-1
 392 196 l 1,23,-1
 699 671 l 1,24,-1
 926 671 l 1,25,-1
 926 647 l 1,26,27
 894 647 894 647 874.5 639 c 128,-1,28
 855 631 855 631 842.5 609 c 128,-1,29
 830 587 830 587 818 544 c 2,30,-1
 705 122 l 2,31,32
 701 109 701 109 699 96 c 128,-1,33
 697 83 697 83 697 70 c 0,34,35
 697 26 697 26 768 23 c 1,36,-1
 768 0 l 1,37,-1
 454 0 l 1,38,-1
 454 23 l 1,39,40
 487 23 487 23 507 32 c 128,-1,41
 527 41 527 41 537 60 c 0,42,43
 542 69 542 69 548.5 85.5 c 128,-1,44
 555 102 555 102 562 127 c 2,45,-1
 675 557 l 1,46,-1
 308 -16 l 1,47,-1
 280 -16 l 1,0,-1
EndSplineSet
EndChar

StartChar: u1D4DC
Encoding: 120028 120028 151
Width: 808
Flags: W
LayerCount: 2
Fore
SplineSet
61 -7 m 0,0,1
 13 -7 13 -7 -13 20 c 128,-1,2
 -39 47 -39 47 -39 87 c 0,3,4
 -39 117 -39 117 -25 140 c 128,-1,5
 -11 163 -11 163 11.5 176.5 c 128,-1,6
 34 190 34 190 58 190 c 0,7,8
 119 190 119 190 119 140 c 0,9,10
 119 116 119 116 105.5 106 c 128,-1,11
 92 96 92 96 56 88 c 0,12,13
 20 81 20 81 20 52 c 0,14,15
 20 42 20 42 33 30 c 128,-1,16
 46 18 46 18 67 18 c 0,17,18
 101 18 101 18 144 61 c 0,19,20
 165 82 165 82 192.5 121 c 128,-1,21
 220 160 220 160 254 216 c 0,22,23
 323 329 323 329 389 416.5 c 128,-1,24
 455 504 455 504 514 565 c 0,25,26
 573 625 573 625 594 625 c 0,27,28
 620 625 620 625 620 609 c 0,29,30
 620 577 620 577 580 491 c 0,31,32
 559 447 559 447 534.5 392 c 128,-1,33
 510 337 510 337 487 282.5 c 128,-1,34
 464 228 464 228 448.5 183 c 128,-1,35
 433 138 433 138 431 114 c 1,36,37
 483 217 483 217 538.5 303.5 c 128,-1,38
 594 390 594 390 647.5 456 c 128,-1,39
 701 522 701 522 746 563 c 0,40,41
 813 625 813 625 831 625 c 0,42,43
 856 625 856 625 856 611 c 0,44,45
 856 609 856 609 853.5 602.5 c 128,-1,46
 851 596 851 596 849 591 c 0,47,48
 811 510 811 510 781.5 439.5 c 128,-1,49
 752 369 752 369 729 310 c 0,50,51
 706 249 706 249 688.5 204.5 c 128,-1,52
 671 160 671 160 658 130 c 0,53,54
 633 73 633 73 633 41 c 0,55,56
 633 32 633 32 641 32 c 0,57,58
 660 32 660 32 696 57.5 c 128,-1,59
 732 83 732 83 777 123 c 128,-1,60
 822 163 822 163 867 206 c 0,61,62
 935 271 935 271 959 271 c 0,63,64
 974 271 974 271 983 267 c 1,65,66
 955 254 955 254 868 167 c 256,67,68
 781 80 781 80 719.5 36.5 c 128,-1,69
 658 -7 658 -7 614 -7 c 0,70,71
 579 -7 579 -7 556.5 19 c 128,-1,72
 534 45 534 45 534 89 c 0,73,74
 534 108 534 108 539 129.5 c 128,-1,75
 544 151 544 151 551 175 c 0,76,77
 557 195 557 195 575.5 231 c 128,-1,78
 594 267 594 267 619 311.5 c 128,-1,79
 644 356 644 356 670.5 400.5 c 128,-1,80
 697 445 697 445 721 483 c 128,-1,81
 745 521 745 521 760 543 c 1,82,83
 716 497 716 497 674.5 445.5 c 128,-1,84
 633 394 633 394 579 314 c 0,85,86
 552 274 552 274 527 230.5 c 128,-1,87
 502 187 502 187 478 139 c 256,88,89
 454 91 454 91 438 61 c 128,-1,90
 422 31 422 31 413 19 c 0,91,92
 395 -5 395 -5 370 -5 c 0,93,94
 342 -5 342 -5 326.5 23.5 c 128,-1,95
 311 52 311 52 311 97 c 0,96,97
 311 135 311 135 336 200.5 c 128,-1,98
 361 266 361 266 404.5 347 c 128,-1,99
 448 428 448 428 504 514 c 1,100,101
 471 479 471 479 428 423.5 c 128,-1,102
 385 368 385 368 342.5 305 c 128,-1,103
 300 242 300 242 266 184 c 0,104,105
 215 96 215 96 168.5 44.5 c 128,-1,106
 122 -7 122 -7 61 -7 c 0,0,1
EndSplineSet
EndChar

StartChar: u1D544
Encoding: 120132 120132 152
Width: 917
Flags: W
LayerCount: 2
Fore
SplineSet
77 0 m 1,0,-1
 77 714 l 1,1,-1
 264 714 l 1,2,-1
 475 152 l 1,3,-1
 667 714 l 1,4,-1
 840 714 l 1,5,-1
 840 0 l 1,6,-1
 667 0 l 1,7,-1
 667 550 l 1,8,-1
 505 75 l 1,9,-1
 320 75 l 1,10,-1
 130 579 l 1,11,-1
 130 0 l 1,12,-1
 77 0 l 1,0,-1
357 128 m 1,13,-1
 428 128 l 1,14,-1
 227 661 l 1,15,-1
 156 661 l 1,16,-1
 357 128 l 1,13,-1
720 53 m 1,17,-1
 787 53 l 1,18,-1
 787 661 l 1,19,-1
 720 661 l 1,20,-1
 720 53 l 1,17,-1
EndSplineSet
EndChar

StartChar: u1D440
Encoding: 119872 119872 153
Width: 878
Flags: W
LayerCount: 2
Fore
SplineSet
-54 0 m 1,0,-1
 -48 20 l 1,1,2
 -15 20 -15 20 5 27 c 128,-1,3
 25 34 25 34 37 53 c 128,-1,4
 49 72 49 72 59 108 c 2,5,-1
 190 573 l 2,6,7
 199 605 199 605 199 624 c 0,8,9
 199 649 199 649 181 659.5 c 128,-1,10
 163 670 163 670 123 672 c 1,11,-1
 129 692 l 1,12,-1
 316 692 l 1,13,-1
 388 161 l 1,14,-1
 739 692 l 1,15,-1
 929 692 l 1,16,-1
 923 672 l 1,17,-1
 915 672 l 2,18,19
 872 672 872 672 851 653.5 c 128,-1,20
 830 635 830 635 816 584 c 2,21,-1
 692 119 l 2,22,23
 688 102 688 102 685 89 c 128,-1,24
 682 76 682 76 682 67 c 0,25,26
 682 42 682 42 700 32 c 128,-1,27
 718 22 718 22 758 20 c 1,28,-1
 753 0 l 1,29,-1
 479 0 l 1,30,-1
 484 17 l 1,31,32
 516 19 516 19 535 27 c 128,-1,33
 554 35 554 35 567 57.5 c 128,-1,34
 580 80 580 80 591 123 c 2,35,-1
 715 584 l 1,36,-1
 326 0 l 1,37,-1
 312 0 l 1,38,-1
 234 585 l 1,39,-1
 114 153 l 2,40,41
 99 99 99 99 99 71 c 0,42,43
 99 42 99 42 116.5 31.5 c 128,-1,44
 134 21 134 21 175 19 c 1,45,-1
 170 0 l 1,46,-1
 -54 0 l 1,0,-1
EndSplineSet
EndChar

StartChar: u1D511
Encoding: 120081 120081 154
Width: 731
Flags: W
LayerCount: 2
Fore
SplineSet
190 -23 m 0,0,1
 172 -23 172 -23 157 -21 c 128,-1,2
 142 -19 142 -19 128 -15 c 0,3,4
 115 -11 115 -11 102.5 -9 c 128,-1,5
 90 -7 90 -7 79 -7 c 0,6,7
 61 -7 61 -7 45 -17 c 1,8,-1
 28 -6 l 1,9,10
 33 7 33 7 33 22 c 0,11,12
 33 69 33 69 13 92 c 1,13,-1
 27 111 l 1,14,15
 42 103 42 103 64 103 c 0,16,17
 98 103 98 103 115 120 c 1,18,-1
 132 108 l 1,19,20
 121 83 121 83 121 63 c 0,21,22
 121 34 121 34 140.5 17 c 128,-1,23
 160 0 160 0 195 0 c 0,24,25
 262 0 262 0 301 80 c 0,26,27
 321 120 321 120 330 180 c 128,-1,28
 339 240 339 240 339 319 c 0,29,30
 339 483 339 483 292 565 c 128,-1,31
 245 647 245 647 165 647 c 0,32,33
 112 647 112 647 76.5 610 c 128,-1,34
 41 573 41 573 41 511 c 0,35,36
 41 450 41 450 75 404.5 c 128,-1,37
 109 359 109 359 169 344 c 1,38,-1
 159 323 l 1,39,40
 90 343 90 343 53 394.5 c 128,-1,41
 16 446 16 446 16 518 c 0,42,43
 16 575 16 575 40.5 622 c 128,-1,44
 65 669 65 669 106 697 c 128,-1,45
 147 725 147 725 196 725 c 0,46,47
 328 725 328 725 378 588 c 1,48,49
 395 660 395 660 433.5 693 c 128,-1,50
 472 726 472 726 539 726 c 0,51,52
 695 726 695 726 695 538 c 0,53,54
 695 531 695 531 695 523.5 c 128,-1,55
 695 516 695 516 694 508 c 1,56,-1
 706 508 l 1,57,-1
 706 485 l 1,58,59
 660 478 660 478 634 464.5 c 128,-1,60
 608 451 608 451 598 425.5 c 128,-1,61
 588 400 588 400 588 355 c 2,62,-1
 588 116 l 2,63,64
 588 101 588 101 601 87 c 128,-1,65
 614 73 614 73 628.5 64 c 128,-1,66
 643 55 643 55 646 55 c 0,67,68
 652 55 652 55 698 88 c 1,69,-1
 710 73 l 1,70,-1
 609 -22 l 1,71,-1
 589 -22 l 1,72,73
 586 -5 586 -5 560 8 c 0,74,75
 534 22 534 22 521.5 39 c 128,-1,76
 509 56 509 56 509 84 c 2,77,-1
 509 330 l 2,78,79
 509 369 509 369 519 393 c 128,-1,80
 529 417 529 417 552.5 437 c 128,-1,81
 576 457 576 457 618 480 c 1,82,-1
 618 502 l 2,83,84
 618 585 618 585 594.5 626 c 128,-1,85
 571 667 571 667 504 667 c 0,86,87
 416 667 416 667 387 560 c 1,88,89
 413 464 413 464 413 355 c 0,90,91
 413 244 413 244 384 159 c 128,-1,92
 355 74 355 74 305 25.5 c 128,-1,93
 255 -23 255 -23 190 -23 c 0,0,1
EndSplineSet
EndChar

StartChar: u1D579
Encoding: 120185 120185 155
Width: 875
Flags: W
LayerCount: 2
Fore
SplineSet
58 -24 m 1,0,-1
 35 -4 l 1,1,2
 46 26 46 26 46 49 c 0,3,4
 46 75 46 75 13 114 c 1,5,-1
 33 141 l 1,6,7
 59 127 59 127 93 127 c 0,8,9
 108 127 108 127 127 134 c 128,-1,10
 146 141 146 141 156 153 c 1,11,-1
 181 134 l 1,12,13
 165 98 165 98 165 77 c 0,14,15
 165 49 165 49 184.5 34.5 c 128,-1,16
 204 20 204 20 233 20 c 0,17,18
 302 20 302 20 339 84 c 0,19,20
 377 149 377 149 377 310 c 256,21,22
 377 471 377 471 331 555.5 c 128,-1,23
 285 640 285 640 204 640 c 0,24,25
 148 640 148 640 112 601 c 128,-1,26
 76 562 76 562 76 506 c 0,27,28
 76 472 76 472 96.5 438 c 128,-1,29
 117 404 117 404 152 378 c 128,-1,30
 187 352 187 352 232 340 c 1,31,-1
 218 300 l 1,32,33
 118 328 118 328 71.5 386 c 128,-1,34
 25 444 25 444 25 517 c 0,35,36
 25 577 25 577 53.5 626 c 128,-1,37
 82 675 82 675 131 704 c 128,-1,38
 180 733 180 733 241 733 c 0,39,40
 297 733 297 733 349 708 c 128,-1,41
 401 683 401 683 436 635 c 1,42,43
 504 736 504 736 625 736 c 0,44,45
 719 736 719 736 768 683 c 128,-1,46
 817 630 817 630 817 531 c 2,47,-1
 817 517 l 1,48,-1
 841 517 l 1,49,-1
 841 484 l 1,50,51
 771 474 771 474 742.5 447.5 c 128,-1,52
 714 421 714 421 714 364 c 2,53,-1
 714 156 l 2,54,55
 714 141 714 141 716 138 c 256,56,57
 718 135 718 135 728.5 125.5 c 128,-1,58
 739 116 739 116 750 107 c 128,-1,59
 761 98 761 98 763 98 c 0,60,61
 774 98 774 98 792 111 c 128,-1,62
 810 124 810 124 829 140 c 1,63,-1
 854 110 l 1,64,-1
 719 -24 l 1,65,-1
 689 -24 l 1,66,67
 688 5 688 5 660 22 c 2,68,-1
 620 46 l 2,69,70
 603 57 603 57 591 71 c 128,-1,71
 579 85 579 85 579 104 c 2,72,-1
 579 334 l 2,73,74
 579 375 579 375 587 396 c 128,-1,75
 595 417 595 417 616 437 c 0,76,77
 626 447 626 447 642 458 c 128,-1,78
 658 469 658 469 680 482 c 1,79,-1
 680 514 l 2,80,81
 680 582 680 582 652 618.5 c 128,-1,82
 624 655 624 655 573 655 c 0,83,84
 545 655 545 655 520.5 644 c 128,-1,85
 496 633 496 633 479.5 619 c 128,-1,86
 463 605 463 605 458 594 c 1,87,88
 501 495 501 495 501 352 c 0,89,90
 501 275 501 275 482 207 c 128,-1,91
 463 139 463 139 429 87 c 128,-1,92
 395 35 395 35 349.5 5.5 c 128,-1,93
 304 -24 304 -24 250 -24 c 0,94,95
 228 -24 228 -24 178 -15 c 0,96,97
 153 -10 153 -10 135.5 -8.5 c 128,-1,98
 118 -7 118 -7 107 -7 c 0,99,100
 84 -7 84 -7 58 -24 c 1,0,-1
EndSplineSet
EndChar

StartChar: u1D40D
Encoding: 119821 119821 157
Width: 735
Flags: W
LayerCount: 2
Fore
SplineSet
600 -16 m 1,0,-1
 159 521 l 1,1,-1
 159 117 l 2,2,3
 159 64 159 64 176.5 46 c 128,-1,4
 194 28 194 28 248 26 c 1,5,-1
 248 0 l 1,6,-1
 27 0 l 1,7,-1
 27 26 l 1,8,9
 62 27 62 27 80.5 34.5 c 128,-1,10
 99 42 99 42 106 61.5 c 128,-1,11
 113 81 113 81 113 117 c 2,12,-1
 113 578 l 1,13,14
 62 641 62 641 54 645 c 0,15,16
 44 650 44 650 27 653 c 1,17,-1
 27 678 l 1,18,-1
 233 678 l 1,19,-1
 582 251 l 1,20,-1
 582 562 l 2,21,22
 582 598 582 598 575 616.5 c 128,-1,23
 568 635 568 635 549 642.5 c 128,-1,24
 530 650 530 650 493 653 c 1,25,-1
 493 678 l 1,26,-1
 714 678 l 1,27,-1
 714 653 l 1,28,29
 662 651 662 651 645 632.5 c 128,-1,30
 628 614 628 614 628 561 c 2,31,-1
 628 -16 l 1,32,-1
 600 -16 l 1,0,-1
EndSplineSet
EndChar

StartChar: u1D475
Encoding: 119925 119925 158
Width: 697
Flags: W
LayerCount: 2
Fore
SplineSet
461 -16 m 1,0,-1
 208 523 l 1,1,-1
 101 122 l 2,2,3
 92 86 92 86 92 70 c 0,4,5
 92 26 92 26 163 23 c 1,6,-1
 163 0 l 1,7,-1
 -52 0 l 1,8,-1
 -52 23 l 1,9,10
 -21 23 -21 23 -1.5 30.5 c 128,-1,11
 18 38 18 38 31.5 60.5 c 128,-1,12
 45 83 45 83 56 127 c 2,13,-1
 162 528 l 2,14,15
 168 550 168 550 170.5 565.5 c 128,-1,16
 173 581 173 581 173 589 c 0,17,18
 173 618 173 618 155 631 c 128,-1,19
 137 644 137 644 96 647 c 1,20,-1
 96 671 l 1,21,-1
 293 671 l 1,22,-1
 505 205 l 1,23,-1
 598 549 l 2,24,25
 603 566 603 566 605.5 578.5 c 128,-1,26
 608 591 608 591 608 598 c 0,27,28
 608 623 608 623 591 634.5 c 128,-1,29
 574 646 574 646 537 647 c 1,30,-1
 537 671 l 1,31,-1
 752 671 l 1,32,-1
 752 647 l 1,33,34
 721 647 721 647 701.5 639.5 c 128,-1,35
 682 632 682 632 669 610 c 128,-1,36
 656 588 656 588 644 544 c 2,37,-1
 491 -16 l 1,38,-1
 461 -16 l 1,0,-1
EndSplineSet
EndChar

StartChar: u1D4DD
Encoding: 120029 120029 159
Width: 660
Flags: W
LayerCount: 2
Fore
SplineSet
473 -14 m 1,0,1
 461 73 461 73 454.5 141.5 c 128,-1,2
 448 210 448 210 448 261 c 0,3,4
 448 403 448 403 481 503 c 1,5,6
 459 469 459 469 439 433 c 128,-1,7
 419 397 419 397 401 360 c 2,8,-1
 325 206 l 2,9,10
 273 100 273 100 203.5 46.5 c 128,-1,11
 134 -7 134 -7 55 -7 c 0,12,13
 1 -7 1 -7 -29.5 21.5 c 128,-1,14
 -60 50 -60 50 -60 94 c 0,15,16
 -60 133 -60 133 -31.5 161.5 c 128,-1,17
 -3 190 -3 190 37 190 c 0,18,19
 72 190 72 190 90.5 175.5 c 128,-1,20
 109 161 109 161 109 138 c 0,21,22
 109 113 109 113 91 102.5 c 128,-1,23
 73 92 73 92 38 86 c 256,24,25
 3 80 3 80 3 57 c 0,26,27
 3 42 3 42 18.5 32 c 128,-1,28
 34 22 34 22 59 22 c 0,29,30
 124 22 124 22 190 77 c 0,31,32
 254 130 254 130 335 305 c 0,33,34
 376 391 376 391 412 453 c 128,-1,35
 448 515 448 515 478 552 c 0,36,37
 538 625 538 625 565 625 c 0,38,39
 574 625 574 625 580 621.5 c 128,-1,40
 586 618 586 618 586 613 c 0,41,42
 586 609 586 609 584 601 c 128,-1,43
 582 593 582 593 580 584 c 0,44,45
 576 559 576 559 572.5 526 c 128,-1,46
 569 493 569 493 567 465 c 128,-1,47
 565 437 565 437 565 424 c 0,48,49
 565 355 565 355 568 296 c 128,-1,50
 571 237 571 237 576 189 c 1,51,-1
 637 335 l 2,52,53
 660 388 660 388 677.5 424.5 c 128,-1,54
 695 461 695 461 710 480 c 0,55,56
 740 519 740 519 778 519 c 0,57,58
 798 519 798 519 809 510.5 c 128,-1,59
 820 502 820 502 820 489 c 0,60,61
 820 464 820 464 766 452 c 0,62,63
 733 445 733 445 706.5 405 c 128,-1,64
 680 365 680 365 655 305 c 0,65,66
 639 265 639 265 621 218 c 128,-1,67
 603 171 603 171 586 124 c 1,68,-1
 595 46 l 1,69,-1
 473 -14 l 1,0,1
EndSplineSet
EndChar

StartChar: u1D441
Encoding: 119873 119873 160
Width: 745
Flags: W
LayerCount: 2
Fore
SplineSet
503 -16 m 1,0,-1
 229 555 l 1,1,-1
 112 125 l 2,2,3
 106 104 106 104 103.5 89 c 128,-1,4
 101 74 101 74 101 64 c 0,5,6
 101 38 101 38 119 30 c 128,-1,7
 137 22 137 22 181 20 c 1,8,-1
 176 0 l 1,9,-1
 -50 0 l 1,10,-1
 -45 20 l 1,11,12
 2 20 2 20 25 37.5 c 128,-1,13
 48 55 48 55 62 108 c 2,14,-1
 193 585 l 2,15,16
 195 590 195 590 196 596.5 c 128,-1,17
 197 603 197 603 197 608 c 0,18,19
 197 631 197 631 178 651.5 c 128,-1,20
 159 672 159 672 128 672 c 2,21,-1
 121 672 l 1,22,-1
 126 692 l 1,23,-1
 271 692 l 1,24,-1
 526 161 l 1,25,-1
 636 567 l 2,26,27
 642 588 642 588 644.5 603 c 128,-1,28
 647 618 647 618 647 628 c 0,29,30
 647 654 647 654 628.5 662 c 128,-1,31
 610 670 610 670 566 672 c 1,32,-1
 571 692 l 1,33,-1
 798 692 l 1,34,-1
 792 672 l 1,35,36
 761 672 761 672 741 665 c 128,-1,37
 721 658 721 658 708 639.5 c 128,-1,38
 695 621 695 621 685 584 c 2,39,-1
 522 -16 l 1,40,-1
 503 -16 l 1,0,-1
EndSplineSet
EndChar

StartChar: u1D4A9
Encoding: 119977 119977 161
Width: 648
Flags: W
LayerCount: 2
Fore
SplineSet
41 -7 m 0,0,1
 -7 -7 -7 -7 -34.5 21 c 128,-1,2
 -62 49 -62 49 -62 91 c 0,3,4
 -62 128 -62 128 -36.5 155.5 c 128,-1,5
 -11 183 -11 183 22 183 c 0,6,7
 51 183 51 183 66.5 169.5 c 128,-1,8
 82 156 82 156 82 135 c 0,9,10
 82 110 82 110 63.5 101.5 c 128,-1,11
 45 93 45 93 10 85 c 0,12,13
 -26 78 -26 78 -26 53 c 0,14,15
 -26 36 -26 36 -6.5 21 c 128,-1,16
 13 6 13 6 45 6 c 0,17,18
 191 6 191 6 342 323 c 0,19,20
 380 403 380 403 414.5 460.5 c 128,-1,21
 449 518 449 518 478 554 c 0,22,23
 536 625 536 625 559 625 c 0,24,25
 566 625 566 625 566 616 c 0,26,27
 566 613 566 613 565 610 c 128,-1,28
 564 607 564 607 563 604 c 0,29,30
 556 582 556 582 550.5 533.5 c 128,-1,31
 545 485 545 485 545 426 c 0,32,33
 545 365 545 365 549.5 295 c 128,-1,34
 554 225 554 225 564 146 c 1,35,-1
 633 304 l 2,36,37
 661 367 661 367 682.5 409 c 128,-1,38
 704 451 704 451 719 473 c 0,39,40
 749 517 749 517 775 517 c 0,41,42
 804 517 804 517 804 492 c 0,43,44
 804 480 804 480 793 472 c 0,45,46
 780 464 780 464 753 458 c 0,47,48
 727 452 727 452 708 423 c 0,49,50
 691 396 691 396 660 325 c 2,51,-1
 568 112 l 1,52,-1
 575 42 l 1,53,-1
 477 -6 l 1,54,55
 466 76 466 76 460 142 c 128,-1,56
 454 208 454 208 454 260 c 0,57,58
 454 465 454 465 519 578 c 1,59,60
 445 504 445 504 365 329 c 0,61,62
 285 153 285 153 205 73 c 128,-1,63
 125 -7 125 -7 41 -7 c 0,0,1
EndSplineSet
EndChar

StartChar: u1D512
Encoding: 120082 120082 162
Width: 773
Flags: W
LayerCount: 2
Fore
SplineSet
350 -23 m 0,0,1
 334 -23 334 -23 309 -14.5 c 128,-1,2
 284 -6 284 -6 257 7 c 0,3,4
 223 23 223 23 191 41 c 128,-1,5
 159 59 159 59 139 70 c 0,6,7
 121 81 121 81 108.5 85.5 c 128,-1,8
 96 90 96 90 89 90 c 0,9,10
 71 90 71 90 31 59 c 1,11,-1
 16 76 l 1,12,13
 125 161 125 161 147 161 c 0,14,15
 152 161 152 161 169.5 154 c 128,-1,16
 187 147 187 147 214 132 c 256,17,18
 241 117 241 117 268.5 102.5 c 128,-1,19
 296 88 296 88 323 74 c 0,20,21
 351 61 351 61 378 51.5 c 128,-1,22
 405 42 405 42 430 42 c 0,23,24
 471 42 471 42 514 64 c 128,-1,25
 557 86 557 86 593 126.5 c 128,-1,26
 629 167 629 167 651.5 222.5 c 128,-1,27
 674 278 674 278 674 345 c 0,28,29
 674 435 674 435 632.5 491.5 c 128,-1,30
 591 548 591 548 511 573 c 0,31,32
 432 598 432 598 349 603 c 0,33,34
 266 607 266 607 239 664 c 1,35,36
 180 629 180 629 151 598.5 c 128,-1,37
 122 568 122 568 122 534 c 0,38,39
 122 488 122 488 169 429 c 2,40,-1
 207 382 l 2,41,42
 229 355 229 355 245 331.5 c 128,-1,43
 261 308 261 308 261 287 c 0,44,45
 261 250 261 250 223.5 224 c 128,-1,46
 186 198 186 198 123 198 c 0,47,48
 109 198 109 198 96.5 200 c 128,-1,49
 84 202 84 202 74 205 c 1,50,-1
 74 228 l 1,51,52
 85 225 85 225 96.5 223 c 128,-1,53
 108 221 108 221 119 221 c 0,54,55
 180 221 180 221 180 263 c 0,56,57
 180 285 180 285 150 318 c 0,58,59
 135 335 135 335 117 356.5 c 128,-1,60
 99 378 99 378 84 402 c 0,61,62
 70 425 70 425 60 448 c 128,-1,63
 50 471 50 471 50 492 c 0,64,65
 50 530 50 530 77.5 567 c 128,-1,66
 105 604 105 604 148 631 c 0,67,68
 166 642 166 642 185 654.5 c 128,-1,69
 204 667 204 667 220 680 c 0,70,71
 241 696 241 696 255 711.5 c 128,-1,72
 269 727 269 727 269 743 c 2,73,-1
 269 745 l 1,74,-1
 288 742 l 1,75,76
 296 716 296 716 317 702 c 0,77,78
 339 689 339 689 441 677 c 0,79,80
 544 665 544 665 604 626.5 c 128,-1,81
 664 588 664 588 695 523 c 0,82,83
 727 456 727 456 727 377 c 0,84,85
 727 271 727 271 670 182 c 128,-1,86
 613 93 613 93 511 35 c 0,87,88
 410 -23 410 -23 350 -23 c 0,0,1
EndSplineSet
EndChar

StartChar: u1D40E
Encoding: 119822 119822 163
Width: 782
Flags: W
LayerCount: 2
Fore
SplineSet
388 -16 m 0,0,1
 314 -16 314 -16 251 11 c 128,-1,2
 188 38 188 38 140.5 86 c 128,-1,3
 93 134 93 134 67 199 c 128,-1,4
 41 264 41 264 41 339 c 256,5,6
 41 414 41 414 67 478.5 c 128,-1,7
 93 543 93 543 141 591.5 c 128,-1,8
 189 640 189 640 253.5 667 c 128,-1,9
 318 694 318 694 395 694 c 0,10,11
 469 694 469 694 532 667.5 c 128,-1,12
 595 641 595 641 642 593.5 c 128,-1,13
 689 546 689 546 715.5 481 c 128,-1,14
 742 416 742 416 742 339 c 0,15,16
 742 264 742 264 715.5 199 c 128,-1,17
 689 134 689 134 641 86 c 128,-1,18
 593 38 593 38 528.5 11 c 128,-1,19
 464 -16 464 -16 388 -16 c 0,0,1
394 18 m 0,20,21
 565 18 565 18 565 339 c 0,22,23
 565 497 565 497 517.5 578.5 c 128,-1,24
 470 660 470 660 387 660 c 0,25,26
 216 660 216 660 216 339 c 0,27,28
 216 182 216 182 264 100 c 128,-1,29
 312 18 312 18 394 18 c 0,20,21
EndSplineSet
EndChar

StartChar: u1D476
Encoding: 119926 119926 164
Width: 712
Flags: W
LayerCount: 2
Fore
SplineSet
266 -17 m 0,0,1
 157 -17 157 -17 92.5 48.5 c 128,-1,2
 28 114 28 114 28 229 c 0,3,4
 28 302 28 302 56.5 376.5 c 128,-1,5
 85 451 85 451 134.5 515.5 c 128,-1,6
 184 580 184 580 246 624 c 0,7,8
 338 689 338 689 445 689 c 0,9,10
 557 689 557 689 621.5 624 c 128,-1,11
 686 559 686 559 686 447 c 0,12,13
 686 373 686 373 659 297.5 c 128,-1,14
 632 222 632 222 583 157 c 128,-1,15
 534 92 534 92 469 48 c 0,16,17
 373 -17 373 -17 266 -17 c 0,0,1
274 19 m 0,18,19
 341 19 341 19 397.5 90 c 128,-1,20
 454 161 454 161 497 293 c 256,21,22
 540 425 540 425 540 521 c 0,23,24
 540 586 540 586 513 620 c 128,-1,25
 486 654 486 654 438 654 c 0,26,27
 399 654 399 654 363 626 c 128,-1,28
 327 598 327 598 295 551 c 0,29,30
 259 497 259 497 231 427 c 128,-1,31
 203 357 203 357 187.5 285 c 128,-1,32
 172 213 172 213 172 153 c 0,33,34
 172 87 172 87 198.5 53 c 128,-1,35
 225 19 225 19 274 19 c 0,18,19
EndSplineSet
EndChar

StartChar: u1D4DE
Encoding: 120030 120030 165
Width: 566
Flags: W
LayerCount: 2
Fore
SplineSet
249 -7 m 0,0,1
 179 -7 179 -7 134.5 38.5 c 128,-1,2
 90 84 90 84 90 164 c 0,3,4
 90 221 90 221 118 281 c 128,-1,5
 146 341 146 341 196 399 c 0,6,7
 230 438 230 438 277 478 c 128,-1,8
 324 518 324 518 376 551 c 128,-1,9
 428 584 428 584 474 601 c 0,10,11
 546 627 546 627 596 627 c 0,12,13
 710 627 710 627 710 540 c 0,14,15
 710 500 710 500 686 500 c 0,16,17
 673 500 673 500 673 516 c 0,18,19
 673 522 673 522 674 528 c 128,-1,20
 675 534 675 534 675 538 c 0,21,22
 675 567 675 567 653.5 584.5 c 128,-1,23
 632 602 632 602 603 602 c 0,24,25
 536 602 536 602 461 537 c 0,26,27
 430 511 430 511 395.5 466.5 c 128,-1,28
 361 422 361 422 328 368 c 128,-1,29
 295 314 295 314 267.5 259.5 c 128,-1,30
 240 205 240 205 224 157 c 128,-1,31
 208 109 208 109 208 77 c 0,32,33
 208 19 208 19 254 19 c 0,34,35
 295 19 295 19 346 53 c 128,-1,36
 397 87 397 87 447.5 146 c 128,-1,37
 498 205 498 205 537 281 c 0,38,39
 596 394 596 394 596 451 c 0,40,41
 596 496 596 496 570 496 c 0,42,43
 543 496 543 496 510.5 469 c 128,-1,44
 478 442 478 442 440 391 c 0,45,46
 421 366 421 366 401.5 332 c 128,-1,47
 382 298 382 298 365 263 c 128,-1,48
 348 228 348 228 336 196 c 128,-1,49
 324 164 324 164 319 141 c 0,50,51
 310 97 310 97 305 92 c 0,52,53
 301 88 301 88 290 88 c 256,54,55
 279 88 279 88 276.5 92.5 c 128,-1,56
 274 97 274 97 274 107 c 0,57,58
 274 127 274 127 287.5 166.5 c 128,-1,59
 301 206 301 206 324 255 c 128,-1,60
 347 304 347 304 377.5 353 c 128,-1,61
 408 402 408 402 442 441 c 0,62,63
 510 519 510 519 575 519 c 0,64,65
 611 519 611 519 634.5 494.5 c 128,-1,66
 658 470 658 470 658 428 c 0,67,68
 658 389 658 389 637.5 339.5 c 128,-1,69
 617 290 617 290 582.5 238.5 c 128,-1,70
 548 187 548 187 505 140.5 c 128,-1,71
 462 94 462 94 418 60 c 0,72,73
 330 -7 330 -7 249 -7 c 0,0,1
EndSplineSet
EndChar

StartChar: u1D546
Encoding: 120134 120134 166
Width: 759
Flags: W
LayerCount: 2
Fore
SplineSet
380 -10 m 0,0,1
 276 -10 276 -10 202 34 c 128,-1,2
 128 78 128 78 89 161 c 128,-1,3
 50 244 50 244 50 359 c 256,4,5
 50 474 50 474 89 555.5 c 128,-1,6
 128 637 128 637 202.5 681 c 128,-1,7
 277 725 277 725 381 725 c 256,8,9
 485 725 485 725 558.5 681 c 128,-1,10
 632 637 632 637 670.5 555 c 128,-1,11
 709 473 709 473 709 358 c 0,12,13
 709 183 709 183 622 86.5 c 128,-1,14
 535 -10 535 -10 380 -10 c 0,0,1
380 38 m 0,15,16
 457 38 457 38 512 65 c 1,17,-1
 512 649 l 1,18,19
 454 677 454 677 381 677 c 0,20,21
 305 677 305 677 247 648 c 1,22,-1
 247 66 l 1,23,24
 302 38 302 38 380 38 c 0,15,16
565 101 m 1,25,26
 656 187 656 187 656 358 c 0,27,28
 656 531 656 531 565 614 c 1,29,-1
 565 101 l 1,25,26
194 102 m 1,30,-1
 194 612 l 1,31,32
 103 530 103 530 103 358 c 0,33,34
 103 184 103 184 194 102 c 1,30,-1
EndSplineSet
EndChar

